<svg xmlns="http://www.w3.org/2000/svg" xmlns:xlink="http://www.w3.org/1999/xlink" width="500" zoomAndPan="magnify" viewBox="0 0 375 374.999991" height="500" preserveAspectRatio="xMidYMid meet" version="1.0"><defs><clipPath id="c035d9583e"><path d="M 257 40 L 374.742188 40 L 374.742188 188 L 257 188 Z M 257 40 " clip-rule="nonzero"/></clipPath><clipPath id="2ad1e91fe6"><path d="M 257 134 L 374.742188 134 L 374.742188 217 L 257 217 Z M 257 134 " clip-rule="nonzero"/></clipPath><clipPath id="3a5f64bec9"><path d="M 0 142 L 374.742188 142 L 374.742188 374.941406 L 0 374.941406 Z M 0 142 " clip-rule="nonzero"/></clipPath></defs><path fill="#f03c4f" d="M 111.070312 181.75 C 111.070312 181.75 111.195312 92.171875 111.234375 91.542969 C 110.421875 76.507812 100.140625 71.0625 83.542969 63.972656 L 58.1875 52.960938 L 33.175781 63.972656 C 16.414062 71.347656 5.851562 77.21875 5.851562 93.371094 L 5.851562 181.75 L 111.070312 181.75 " fill-opacity="1" fill-rule="nonzero"/><path fill="#100f0d" d="M 116.921875 187.621094 L 105.199219 187.601562 L 105.222656 181.75 C 105.324219 106.496094 105.363281 93.941406 105.382812 91.726562 C 104.753906 81.140625 98.78125 76.855469 81.246094 69.359375 L 58.207031 59.363281 L 35.535156 69.335938 C 17.65625 77.199219 11.703125 81.769531 11.703125 93.371094 L 11.703125 187.621094 L 0 187.621094 L 0 93.371094 C 0 72.183594 16.375 64.96875 30.820312 58.609375 L 58.167969 46.582031 L 85.859375 58.609375 C 100.667969 64.929688 116.007812 71.46875 117.066406 91.21875 L 117.085938 91.542969 L 117.066406 91.867188 C 117.046875 93.414062 116.964844 151.355469 116.921875 181.769531 L 116.921875 187.621094 " fill-opacity="1" fill-rule="nonzero"/><path fill="#ffffff" d="M 38.054688 35.40625 C 38.054688 48.328125 47.214844 58.8125 58.53125 58.8125 C 69.847656 58.8125 79.03125 48.328125 79.03125 35.40625 C 79.03125 22.464844 69.847656 11.984375 58.53125 11.984375 C 47.214844 11.984375 38.054688 22.464844 38.054688 35.40625 " fill-opacity="1" fill-rule="nonzero"/><path fill="#100f0d" d="M 58.53125 17.835938 C 50.46875 17.835938 43.90625 25.71875 43.90625 35.40625 C 43.90625 45.078125 50.46875 52.960938 58.53125 52.960938 C 66.617188 52.960938 73.179688 45.078125 73.179688 35.40625 C 73.179688 25.71875 66.617188 17.835938 58.53125 17.835938 Z M 58.53125 64.683594 C 44.007812 64.683594 32.203125 51.539062 32.203125 35.40625 C 32.203125 19.257812 44.007812 6.132812 58.53125 6.132812 C 73.078125 6.132812 84.882812 19.257812 84.882812 35.40625 C 84.882812 51.539062 73.078125 64.683594 58.53125 64.683594 " fill-opacity="1" fill-rule="nonzero"/><path fill="#6dcfe8" d="M 368.8125 181.75 C 368.8125 181.75 368.792969 86.300781 368.8125 85.691406 C 368 70.65625 357.71875 65.214844 341.121094 58.121094 L 315.765625 47.109375 L 290.773438 58.121094 C 273.992188 65.496094 263.449219 71.367188 263.449219 87.519531 L 263.449219 175.898438 L 368.8125 181.75 " fill-opacity="1" fill-rule="nonzero"/><g clip-path="url(#c035d9583e)"><path fill="#100f0d" d="M 362.960938 187.621094 L 362.960938 181.769531 C 362.941406 101.457031 362.941406 88.191406 362.960938 85.875 C 362.351562 75.289062 356.378906 70.984375 338.824219 63.507812 L 315.785156 53.511719 L 293.132812 63.484375 C 275.253906 71.347656 269.300781 75.921875 269.300781 87.519531 L 269.300781 181.75 L 257.578125 181.75 L 257.578125 87.519531 C 257.578125 66.332031 273.953125 59.117188 288.398438 52.757812 L 315.742188 40.730469 L 343.457031 52.757812 C 358.246094 59.058594 373.585938 65.621094 374.664062 85.367188 L 374.683594 85.691406 L 374.664062 85.996094 C 374.640625 87.601562 374.664062 149.367188 374.664062 181.75 L 374.664062 187.601562 L 362.960938 187.621094 " fill-opacity="1" fill-rule="nonzero"/></g><path fill="#ffffff" d="M 295.652344 29.558594 C 295.652344 42.476562 304.8125 52.960938 316.128906 52.960938 C 327.445312 52.960938 336.609375 42.476562 336.609375 29.558594 C 336.609375 16.613281 327.445312 6.132812 316.128906 6.132812 C 304.8125 6.132812 295.652344 16.613281 295.652344 29.558594 " fill-opacity="1" fill-rule="nonzero"/><path fill="#100f0d" d="M 316.128906 11.984375 C 308.0625 11.984375 301.5 19.867188 301.5 29.558594 C 301.5 39.226562 308.0625 47.109375 316.128906 47.109375 C 324.195312 47.109375 330.757812 39.226562 330.757812 29.558594 C 330.757812 19.867188 324.195312 11.984375 316.128906 11.984375 Z M 316.128906 58.8125 C 301.601562 58.8125 289.777344 45.6875 289.777344 29.558594 C 289.777344 13.40625 301.601562 0.28125 316.128906 0.28125 C 330.65625 0.28125 342.460938 13.40625 342.460938 29.558594 C 342.460938 45.6875 330.65625 58.8125 316.128906 58.8125 " fill-opacity="1" fill-rule="nonzero"/><path fill="#f4d433" d="M 316.128906 193.472656 C 316.128906 192.800781 316.089844 127.300781 316.128906 126.671875 C 315.316406 111.636719 305.035156 106.191406 288.4375 99.101562 L 263.082031 88.089844 L 238.074219 99.101562 C 221.3125 106.476562 210.746094 112.347656 210.746094 128.5 L 210.746094 193.472656 L 316.128906 193.472656 " fill-opacity="1" fill-rule="nonzero"/><path fill="#100f0d" d="M 321.980469 199.324219 L 310.277344 199.324219 L 310.277344 191.910156 C 310.238281 138.191406 310.257812 128.683594 310.277344 126.832031 C 309.648438 116.269531 303.65625 111.960938 286.140625 104.484375 L 263.101562 94.488281 L 240.429688 104.464844 C 222.550781 112.328125 216.597656 116.898438 216.597656 128.5 L 216.597656 199.324219 L 204.894531 199.324219 L 204.894531 128.5 C 204.894531 107.308594 221.269531 100.097656 235.714844 93.738281 L 263.0625 81.710938 L 290.773438 93.738281 C 305.566406 100.054688 320.90625 106.597656 321.980469 126.347656 L 321.980469 126.976562 C 321.960938 127.953125 321.960938 151.679688 321.980469 191.910156 L 321.980469 199.324219 " fill-opacity="1" fill-rule="nonzero"/><path fill="#ffffff" d="M 242.949219 70.535156 C 242.949219 83.457031 252.132812 93.941406 263.449219 93.941406 C 274.746094 93.941406 283.929688 83.457031 283.929688 70.535156 C 283.929688 57.59375 274.746094 47.109375 263.449219 47.109375 C 252.132812 47.109375 242.949219 57.59375 242.949219 70.535156 " fill-opacity="1" fill-rule="nonzero"/><path fill="#100f0d" d="M 263.449219 52.960938 C 255.363281 52.960938 248.800781 60.84375 248.800781 70.535156 C 248.800781 80.207031 255.363281 88.089844 263.449219 88.089844 C 271.515625 88.089844 278.078125 80.207031 278.078125 70.535156 C 278.078125 60.84375 271.515625 52.960938 263.449219 52.960938 Z M 263.449219 99.792969 C 248.902344 99.792969 237.097656 86.667969 237.097656 70.535156 C 237.097656 54.382812 248.902344 41.257812 263.449219 41.257812 C 277.976562 41.257812 289.777344 54.382812 289.777344 70.535156 C 289.777344 86.667969 277.976562 99.792969 263.449219 99.792969 " fill-opacity="1" fill-rule="nonzero"/><path fill="#6dcfe8" d="M 163.917969 199.324219 C 163.917969 199.324219 163.875 127.300781 163.917969 126.671875 C 163.105469 111.636719 152.824219 106.191406 136.222656 99.101562 L 110.867188 88.089844 L 85.859375 99.101562 C 69.097656 106.476562 58.53125 112.347656 58.53125 128.5 L 58.53125 199.324219 L 163.917969 199.324219 " fill-opacity="1" fill-rule="nonzero"/><path fill="#100f0d" d="M 158.066406 205.175781 L 158.066406 199.324219 C 158.042969 139.574219 158.042969 128.886719 158.066406 126.855469 C 157.457031 116.269531 151.460938 111.960938 133.929688 104.484375 L 110.890625 94.488281 L 88.234375 104.464844 C 70.355469 112.328125 64.40625 116.898438 64.40625 128.5 L 64.40625 205.175781 L 52.679688 205.175781 L 52.679688 128.5 C 52.679688 107.308594 69.058594 100.097656 83.503906 93.738281 L 110.847656 81.710938 L 138.5625 93.738281 C 153.351562 100.054688 168.691406 106.597656 169.765625 126.347656 L 169.789062 126.671875 L 169.765625 126.976562 C 169.746094 128.417969 169.765625 174.945312 169.765625 199.324219 L 169.765625 205.175781 L 158.066406 205.175781 " fill-opacity="1" fill-rule="nonzero"/><path fill="#ffffff" d="M 90.734375 70.535156 C 90.734375 83.457031 99.917969 93.941406 111.234375 93.941406 C 122.550781 93.941406 131.714844 83.457031 131.714844 70.535156 C 131.714844 57.59375 122.550781 47.109375 111.234375 47.109375 C 99.917969 47.109375 90.734375 57.59375 90.734375 70.535156 " fill-opacity="1" fill-rule="nonzero"/><path fill="#100f0d" d="M 111.234375 52.960938 C 103.167969 52.960938 96.585938 60.84375 96.585938 70.535156 C 96.585938 80.207031 103.167969 88.089844 111.234375 88.089844 C 119.300781 88.089844 125.863281 80.207031 125.863281 70.535156 C 125.863281 60.84375 119.300781 52.960938 111.234375 52.960938 Z M 111.234375 99.792969 C 96.707031 99.792969 84.882812 86.667969 84.882812 70.535156 C 84.882812 54.382812 96.707031 41.257812 111.234375 41.257812 C 125.761719 41.257812 137.566406 54.382812 137.566406 70.535156 C 137.566406 86.667969 125.761719 99.792969 111.234375 99.792969 " fill-opacity="1" fill-rule="nonzero"/><path fill="#f4d433" d="M 111.234375 211.027344 C 111.234375 211.027344 111.195312 179.984375 111.234375 179.351562 C 110.421875 164.339844 100.140625 158.875 83.542969 151.78125 L 58.1875 140.769531 L 33.175781 151.78125 C 16.414062 159.179688 5.851562 165.050781 5.851562 181.179688 L 5.851562 211.027344 L 111.234375 211.027344 " fill-opacity="1" fill-rule="nonzero"/><path fill="#100f0d" d="M 11.703125 216.878906 L 0 216.878906 L 0 181.179688 C 0 159.992188 16.375 152.777344 30.820312 146.417969 L 58.167969 134.390625 L 85.859375 146.417969 C 100.667969 152.738281 116.007812 159.28125 117.066406 179.046875 L 117.085938 179.351562 L 117.066406 179.679688 C 117.046875 181.101562 117.085938 211.027344 117.085938 211.027344 L 105.382812 211.027344 C 105.34375 186.445312 105.363281 180.875 105.382812 179.515625 C 104.753906 168.949219 98.761719 164.644531 81.246094 157.167969 L 58.207031 147.171875 L 35.535156 157.148438 C 17.65625 165.007812 11.703125 169.601562 11.703125 181.179688 L 11.703125 216.878906 " fill-opacity="1" fill-rule="nonzero"/><path fill="#ffffff" d="M 38.054688 123.21875 C 38.054688 136.160156 47.214844 146.644531 58.53125 146.644531 C 69.847656 146.644531 79.03125 136.160156 79.03125 123.21875 C 79.03125 110.277344 69.847656 99.792969 58.53125 99.792969 C 47.214844 99.792969 38.054688 110.277344 38.054688 123.21875 " fill-opacity="1" fill-rule="nonzero"/><path fill="#100f0d" d="M 58.53125 105.644531 C 50.46875 105.644531 43.90625 113.527344 43.90625 123.21875 C 43.90625 132.910156 50.46875 140.769531 58.53125 140.769531 C 66.617188 140.769531 73.179688 132.910156 73.179688 123.21875 C 73.179688 113.527344 66.617188 105.644531 58.53125 105.644531 Z M 58.53125 152.492188 C 44.007812 152.492188 32.203125 139.347656 32.203125 123.21875 C 32.203125 107.085938 44.007812 93.941406 58.53125 93.941406 C 73.078125 93.941406 84.882812 107.085938 84.882812 123.21875 C 84.882812 139.347656 73.078125 152.492188 58.53125 152.492188 " fill-opacity="1" fill-rule="nonzero"/><path fill="#acabaa" d="M 368.8125 211.027344 C 368.8125 211.027344 368.792969 179.984375 368.8125 179.351562 C 368 164.339844 357.71875 158.875 341.121094 151.78125 L 315.765625 140.769531 L 290.773438 151.78125 C 273.992188 159.179688 263.449219 165.050781 263.449219 181.179688 L 263.449219 211.027344 L 368.8125 211.027344 " fill-opacity="1" fill-rule="nonzero"/><g clip-path="url(#2ad1e91fe6)"><path fill="#100f0d" d="M 269.300781 216.878906 L 257.578125 216.878906 L 257.578125 181.179688 C 257.578125 159.992188 273.953125 152.777344 288.398438 146.417969 L 315.742188 134.390625 L 343.457031 146.417969 C 358.246094 152.738281 373.585938 159.28125 374.664062 179.046875 L 374.683594 179.351562 L 374.664062 179.679688 C 374.640625 181.101562 374.664062 211.027344 374.664062 211.027344 L 362.960938 211.027344 C 362.941406 186.445312 362.941406 180.875 362.960938 179.515625 C 362.332031 168.949219 356.355469 164.644531 338.824219 157.167969 L 315.785156 147.171875 L 293.132812 157.148438 C 275.253906 165.007812 269.300781 169.601562 269.300781 181.179688 L 269.300781 216.878906 " fill-opacity="1" fill-rule="nonzero"/></g><path fill="#ffffff" d="M 295.652344 123.21875 C 295.652344 136.160156 304.8125 146.644531 316.128906 146.644531 C 327.445312 146.644531 336.609375 136.160156 336.609375 123.21875 C 336.609375 110.277344 327.445312 99.792969 316.128906 99.792969 C 304.8125 99.792969 295.652344 110.277344 295.652344 123.21875 " fill-opacity="1" fill-rule="nonzero"/><path fill="#100f0d" d="M 316.128906 105.644531 C 308.0625 105.644531 301.5 113.527344 301.5 123.21875 C 301.5 132.910156 308.0625 140.769531 316.128906 140.769531 C 324.195312 140.769531 330.757812 132.910156 330.757812 123.21875 C 330.757812 113.527344 324.195312 105.644531 316.128906 105.644531 Z M 316.128906 152.492188 C 301.601562 152.492188 289.777344 139.347656 289.777344 123.21875 C 289.777344 107.085938 301.601562 93.941406 316.128906 93.941406 C 330.65625 93.941406 342.460938 107.085938 342.460938 123.21875 C 342.460938 139.347656 330.65625 152.492188 316.128906 152.492188 " fill-opacity="1" fill-rule="nonzero"/><path fill="#8371bf" d="M 303.574219 369.09375 L 303.574219 358.832031 C 316.292969 360.394531 320.519531 362.042969 320.519531 362.042969 C 320.519531 362.042969 368.914062 372.34375 368.914062 337.945312 C 368.914062 312.023438 348.921875 218.929688 348.921875 218.929688 C 345.628906 197.210938 314.6875 181.140625 292.441406 181.140625 L 186.8125 148.308594 L 82.425781 181.140625 C 60.179688 181.140625 29.234375 197.210938 25.925781 218.929688 C 25.925781 218.929688 5.953125 312.023438 5.953125 337.945312 C 5.953125 372.34375 54.347656 362.042969 54.347656 362.042969 C 54.347656 362.042969 58.574219 360.394531 71.269531 358.832031 L 71.269531 369.09375 L 303.574219 369.09375 " fill-opacity="1" fill-rule="nonzero"/><g clip-path="url(#3a5f64bec9)"><path fill="#100f0d" d="M 309.425781 374.941406 L 297.722656 374.941406 L 297.722656 352.230469 L 304.285156 353.019531 C 315.316406 354.382812 320.4375 355.84375 322.0625 356.375 C 329.03125 357.773438 347.945312 359.5625 357.230469 352.027344 C 361.152344 348.855469 363.0625 344.246094 363.0625 337.945312 C 363.0625 312.9375 343.394531 221.082031 343.191406 220.167969 C 340.449219 202.148438 313.019531 186.992188 292.441406 186.992188 L 290.691406 186.726562 L 186.832031 154.445312 L 82.425781 186.992188 C 61.84375 186.992188 34.394531 202.148438 31.714844 219.824219 C 31.449219 221.082031 11.804688 312.9375 11.804688 337.945312 C 11.804688 344.246094 13.714844 348.855469 17.636719 352.027344 C 26.960938 359.582031 45.855469 357.796875 52.78125 356.375 C 54.410156 355.84375 59.527344 354.382812 70.558594 353.019531 L 77.144531 352.230469 L 77.144531 374.941406 L 65.421875 374.941406 L 65.421875 365.578125 C 58.917969 366.632812 56.417969 367.507812 56.378906 367.527344 L 55.566406 367.75 C 54.347656 368.015625 26.003906 373.867188 10.261719 361.128906 C 3.515625 355.664062 0.101562 347.859375 0.101562 337.945312 C 0.101562 311.695312 19.382812 221.53125 20.214844 217.710938 C 23.75 194.246094 55.851562 175.738281 81.492188 175.289062 L 186.8125 142.171875 L 293.355469 175.289062 C 318.996094 175.738281 351.09375 194.265625 354.710938 218.054688 C 355.464844 221.53125 374.765625 311.695312 374.765625 337.945312 C 374.765625 347.859375 371.332031 355.664062 364.585938 361.128906 C 348.859375 373.867188 320.5 368.015625 319.300781 367.75 L 318.40625 367.488281 C 318.40625 367.488281 315.90625 366.613281 309.425781 365.578125 L 309.425781 374.941406 " fill-opacity="1" fill-rule="nonzero"/></g><path fill="#100f0d" d="M 78.363281 294.792969 L 66.742188 293.371094 L 74.015625 233.902344 L 85.65625 235.324219 L 78.363281 294.792969 " fill-opacity="1" fill-rule="nonzero"/><path fill="#100f0d" d="M 296.484375 294.792969 L 289.210938 235.324219 L 300.832031 233.902344 L 308.105469 293.371094 L 296.484375 294.792969 " fill-opacity="1" fill-rule="nonzero"/><path fill="#ffffff" d="M 166.273438 176.019531 C 179.074219 183.679688 195.792969 183.679688 208.574219 176.019531 C 214.851562 172.28125 220.070312 166.9375 220.070312 159.5625 L 220.070312 141.503906 L 154.792969 141.503906 L 154.792969 159.5625 C 154.792969 166.9375 160.015625 172.28125 166.273438 176.019531 " fill-opacity="1" fill-rule="nonzero"/><path fill="#100f0d" d="M 160.644531 147.355469 L 160.644531 159.5625 C 160.644531 163.730469 163.550781 167.570312 169.28125 171.003906 C 180.3125 177.585938 194.554688 177.585938 205.566406 171.003906 C 211.296875 167.570312 214.199219 163.730469 214.199219 159.5625 L 214.199219 147.355469 Z M 187.421875 187.621094 C 179.011719 187.621094 170.601562 185.425781 163.265625 181.039062 C 151.421875 173.96875 148.941406 165.457031 148.941406 159.5625 L 148.941406 135.652344 L 225.921875 135.652344 L 225.921875 159.5625 C 225.921875 165.457031 223.425781 173.96875 211.578125 181.039062 C 204.246094 185.425781 195.832031 187.621094 187.421875 187.621094 " fill-opacity="1" fill-rule="nonzero"/><path fill="#ffffff" d="M 250.953125 81.425781 C 250.953125 122.992188 222.511719 156.699219 187.421875 156.699219 C 152.355469 156.699219 123.914062 122.992188 123.914062 81.425781 C 123.914062 39.835938 152.355469 6.132812 187.421875 6.132812 C 222.511719 6.132812 250.953125 39.835938 250.953125 81.425781 " fill-opacity="1" fill-rule="nonzero"/><path fill="#100f0d" d="M 187.421875 11.984375 C 155.625 11.984375 129.761719 43.128906 129.761719 81.425781 C 129.761719 119.703125 155.625 150.847656 187.421875 150.847656 C 219.21875 150.847656 245.082031 119.703125 245.082031 81.425781 C 245.082031 43.128906 219.21875 11.984375 187.421875 11.984375 Z M 187.421875 162.570312 C 149.167969 162.570312 118.0625 126.164062 118.0625 81.425781 C 118.0625 36.6875 149.167969 0.28125 187.421875 0.28125 C 225.679688 0.28125 256.804688 36.6875 256.804688 81.425781 C 256.804688 126.164062 225.679688 162.570312 187.421875 162.570312 " fill-opacity="1" fill-rule="nonzero"/><path fill="#f03c4f" d="M 187.339844 339.816406 L 242.398438 282.886719 C 255.707031 269.132812 255.707031 246.824219 242.398438 233.070312 C 229.09375 219.296875 207.515625 219.296875 194.230469 233.070312 L 187.339844 240.179688 L 180.453125 233.070312 C 167.148438 219.296875 145.570312 219.316406 132.261719 233.070312 C 118.953125 246.824219 118.953125 269.132812 132.261719 282.886719 L 187.339844 339.816406 " fill-opacity="1" fill-rule="nonzero"/><path fill="#100f0d" d="M 156.359375 228.601562 C 148.863281 228.601562 141.792969 231.628906 136.46875 237.132812 C 125.355469 248.632812 125.355469 267.324219 136.488281 278.824219 L 187.339844 331.402344 L 238.195312 278.824219 C 249.308594 267.324219 249.308594 248.632812 238.195312 237.132812 C 232.871094 231.628906 225.800781 228.601562 218.304688 228.601562 C 210.808594 228.601562 203.757812 231.628906 198.433594 237.132812 L 187.339844 248.59375 L 176.25 237.132812 C 170.925781 231.628906 163.855469 228.601562 156.359375 228.601562 Z M 187.339844 348.246094 L 128.058594 286.949219 C 112.617188 270.980469 112.597656 244.976562 128.058594 228.988281 C 135.59375 221.183594 145.652344 216.898438 156.359375 216.898438 C 167.066406 216.898438 177.101562 221.183594 184.660156 228.988281 L 187.339844 231.75 L 190.003906 228.988281 C 197.5625 221.183594 207.597656 216.898438 218.304688 216.878906 C 229.011719 216.878906 239.066406 221.183594 246.605469 228.988281 C 262.066406 244.976562 262.066406 270.980469 246.605469 286.949219 L 187.339844 348.246094 " fill-opacity="1" fill-rule="nonzero"/><path fill="#8371bf" d="M 42.238281 283.742188 C 42.238281 283.742188 66.921875 280.246094 84.578125 283.742188 C 96.039062 285.996094 104.714844 297.515625 114.222656 297.515625 C 114.222656 297.515625 84.578125 325.898438 108.777344 356.007812 C 96.6875 356.007812 54.347656 362.042969 54.347656 362.042969 L 42.238281 283.742188 " fill-opacity="1" fill-rule="nonzero"/><path fill="#100f0d" d="M 49.371094 368.644531 L 47.722656 357.0625 L 53.515625 356.230469 C 54.917969 356.027344 81.449219 352.269531 98.375 350.765625 C 88.359375 331.34375 95.386719 312.40625 103.898438 300.582031 C 101.28125 299.242188 98.761719 297.597656 96.28125 295.953125 C 92.117188 293.1875 87.808594 290.34375 83.460938 289.46875 C 66.964844 286.21875 43.296875 289.511719 43.050781 289.53125 L 37.261719 290.34375 L 35.636719 278.761719 L 41.425781 277.929688 C 42.484375 277.789062 67.289062 274.355469 85.714844 277.992188 C 92.339844 279.292969 97.867188 282.949219 102.742188 286.179688 C 107.007812 289.003906 111.03125 291.664062 114.222656 291.664062 L 128.808594 291.664062 L 118.265625 301.742188 C 117.226562 302.757812 92.867188 326.851562 113.347656 352.351562 L 121.007812 361.859375 L 108.777344 361.859375 C 97.238281 361.859375 55.585938 367.769531 55.160156 367.832031 L 49.371094 368.644531 " fill-opacity="1" fill-rule="nonzero"/><path fill="#8371bf" d="M 332.605469 283.742188 C 332.605469 283.742188 307.941406 280.246094 290.265625 283.742188 C 278.828125 285.996094 270.132812 297.515625 260.625 297.515625 C 260.625 297.515625 290.265625 325.898438 266.070312 356.007812 C 278.15625 356.007812 320.519531 362.042969 320.519531 362.042969 L 332.605469 283.742188 " fill-opacity="1" fill-rule="nonzero"/><path fill="#100f0d" d="M 325.476562 368.644531 L 319.683594 367.832031 C 319.257812 367.769531 277.609375 361.859375 266.070312 361.859375 L 253.859375 361.859375 L 261.496094 352.351562 C 282.097656 326.710938 257.636719 302.757812 256.582031 301.742188 L 246.058594 291.664062 L 260.625 291.664062 C 263.8125 291.664062 267.835938 289.003906 272.101562 286.179688 C 276.980469 282.949219 282.527344 279.292969 289.128906 277.992188 C 307.554688 274.355469 332.382812 277.789062 333.441406 277.929688 L 339.230469 278.761719 L 337.585938 290.34375 L 331.792969 289.53125 C 331.550781 289.492188 307.859375 286.21875 291.40625 289.46875 C 287.054688 290.34375 282.730469 293.1875 278.5625 295.953125 C 276.085938 297.597656 273.585938 299.242188 270.945312 300.582031 C 279.457031 312.40625 286.507812 331.34375 276.472656 350.765625 C 293.394531 352.269531 319.949219 356.027344 321.332031 356.230469 L 327.121094 357.0625 L 325.476562 368.644531 " fill-opacity="1" fill-rule="nonzero"/><path fill="#ffffff" d="M 108.046875 297.578125 C 97.113281 301.113281 88.90625 308.285156 86.386719 317.976562 C 81.734375 335.957031 98.210938 355.722656 123.222656 362.164062 C 148.210938 368.582031 162.433594 354.726562 168.773438 337.296875 C 180.921875 303.855469 133.808594 287.84375 108.046875 297.578125 " fill-opacity="1" fill-rule="nonzero"/><path fill="#100f0d" d="M 108.046875 297.578125 L 108.085938 297.578125 Z M 124.949219 300.582031 C 119.667969 300.582031 114.546875 301.375 110.097656 303.042969 L 109.832031 303.144531 C 100.445312 306.191406 93.945312 312.144531 92.054688 319.457031 C 90.675781 324.78125 91.691406 330.550781 95 336.160156 C 100.527344 345.523438 111.621094 353.121094 124.683594 356.496094 C 148.027344 362.488281 158.550781 348.289062 163.285156 335.285156 C 166.496094 326.46875 164.890625 318.808594 158.511719 312.507812 C 150.914062 304.992188 137.464844 300.582031 124.949219 300.582031 Z M 134.824219 369.558594 C 130.65625 369.558594 126.289062 368.992188 121.757812 367.832031 C 105.503906 363.648438 92.097656 354.28125 84.925781 342.109375 C 79.988281 333.761719 78.542969 324.902344 80.71875 316.511719 C 83.644531 305.296875 92.886719 296.378906 106.09375 292.050781 C 125.457031 284.796875 152.621094 290.242188 166.742188 304.179688 C 176.371094 313.707031 179.050781 326.164062 174.277344 339.285156 C 167.167969 358.851562 152.882812 369.558594 134.824219 369.558594 " fill-opacity="1" fill-rule="nonzero"/><path fill="#ffffff" d="M 266.820312 297.578125 C 277.75 301.113281 285.9375 308.285156 288.457031 317.976562 C 293.132812 335.957031 276.632812 355.722656 251.625 362.164062 C 226.632812 368.582031 212.414062 354.726562 206.074219 337.296875 C 193.925781 303.855469 241.039062 287.84375 266.820312 297.578125 " fill-opacity="1" fill-rule="nonzero"/><path fill="#100f0d" d="M 249.898438 300.582031 C 237.382812 300.582031 223.953125 304.992188 216.332031 312.507812 C 209.972656 318.808594 208.371094 326.46875 211.578125 335.285156 C 216.292969 348.289062 226.796875 362.46875 250.179688 356.496094 C 263.246094 353.121094 274.316406 345.523438 279.84375 336.160156 C 283.15625 330.550781 284.171875 324.78125 282.789062 319.457031 C 280.902344 312.144531 274.417969 306.191406 265.011719 303.144531 L 264.75 303.042969 C 260.300781 301.375 255.179688 300.582031 249.898438 300.582031 Z M 240.023438 369.558594 C 221.980469 369.558594 207.679688 358.851562 200.566406 339.285156 C 195.792969 326.164062 198.476562 313.707031 208.105469 304.179688 C 222.226562 290.242188 249.410156 284.796875 268.75 292.050781 C 281.976562 296.378906 291.222656 305.296875 294.125 316.511719 C 296.300781 324.902344 294.859375 333.761719 289.941406 342.109375 C 282.769531 354.28125 269.339844 363.648438 253.085938 367.832031 C 248.554688 368.992188 244.1875 369.558594 240.023438 369.558594 " fill-opacity="1" fill-rule="nonzero"/></svg>