<svg xmlns="http://www.w3.org/2000/svg" xmlns:xlink="http://www.w3.org/1999/xlink" width="500" zoomAndPan="magnify" viewBox="0 0 375 374.999991" height="500" preserveAspectRatio="xMidYMid meet" version="1.0"><defs><clipPath id="c0a1e6b7f7"><path d="M 2 3.066406 L 373 3.066406 L 373 371.976562 L 2 371.976562 Z M 2 3.066406 " clip-rule="nonzero"/></clipPath></defs><path fill="#d3a06c" d="M 302.023438 86.296875 L 73.035156 86.296875 L 187.5 45.472656 Z M 302.023438 86.296875 " fill-opacity="1" fill-rule="nonzero"/><path fill="#cf9e76" d="M 354.167969 229.136719 L 354.167969 274.011719 C 350.65625 271.988281 346.605469 270.796875 342.261719 270.796875 C 341.964844 270.796875 341.726562 270.859375 341.429688 270.859375 C 338.808594 260.5625 329.582031 252.945312 318.453125 252.945312 C 307.144531 252.945312 297.679688 260.859375 295.296875 271.453125 C 288.570312 273 282.976562 277.40625 279.761719 283.296875 C 275.714844 275.917969 267.976562 270.796875 258.929688 270.796875 C 245.773438 270.796875 235.117188 281.453125 235.117188 294.605469 L 235.117188 229.136719 Z M 354.167969 229.136719 " fill-opacity="1" fill-rule="nonzero"/><path fill="#cf9e76" d="M 56.546875 252.945312 C 45.417969 252.945312 36.191406 260.5625 33.570312 270.859375 C 33.273438 270.859375 33.035156 270.796875 32.738281 270.796875 C 28.394531 270.796875 24.34375 271.988281 20.832031 274.011719 L 20.832031 229.136719 L 139.882812 229.136719 L 139.882812 294.605469 C 139.882812 281.453125 129.226562 270.796875 116.070312 270.796875 C 107.023438 270.796875 99.285156 275.917969 95.238281 283.296875 C 92.023438 277.40625 86.429688 273 79.703125 271.453125 C 77.320312 260.859375 67.855469 252.945312 56.546875 252.945312 Z M 56.546875 252.945312 " fill-opacity="1" fill-rule="nonzero"/><path fill="#e6e9ed" d="M 318.453125 110.105469 L 318.453125 229.136719 L 235.117188 229.136719 L 235.117188 163.667969 L 139.882812 163.667969 L 139.882812 229.136719 L 56.546875 229.136719 L 56.546875 110.105469 Z M 318.453125 110.105469 " fill-opacity="1" fill-rule="nonzero"/><path fill="#cf9e76" d="M 318.453125 92.132812 L 318.453125 110.105469 L 56.546875 110.105469 L 56.546875 92.132812 L 72.976562 86.296875 L 302.023438 86.296875 Z M 318.453125 92.132812 " fill-opacity="1" fill-rule="nonzero"/><path fill="#cf9e76" d="M 44.644531 8.929688 L 80.355469 8.929688 L 80.355469 32.734375 L 44.644531 32.734375 Z M 44.644531 8.929688 " fill-opacity="1" fill-rule="nonzero"/><path fill="#d3a06c" d="M 92.261719 32.734375 L 92.261719 54.042969 L 32.738281 75.347656 L 32.738281 32.734375 Z M 92.261719 32.734375 " fill-opacity="1" fill-rule="nonzero"/><path fill="#b27946" d="M 32.738281 100.640625 L 25.121094 103.378906 C 23.691406 103.914062 22.320312 104.152344 20.832031 104.152344 C 15.894531 104.152344 11.488281 101.179688 9.703125 96.535156 C 7.382812 90.40625 10.417969 83.5 16.546875 81.121094 L 32.738281 75.347656 L 92.261719 54.042969 L 187.5 19.996094 L 358.453125 81.121094 C 364.582031 83.5 367.617188 90.40625 365.296875 96.535156 C 363.511719 101.117188 359.046875 104.152344 354.167969 104.152344 C 352.738281 104.152344 351.25 103.914062 349.941406 103.378906 L 342.261719 100.640625 L 318.453125 92.132812 L 302.023438 86.296875 L 187.5 45.472656 L 73.035156 86.296875 L 72.976562 86.296875 L 56.546875 92.132812 L 56.546875 92.191406 Z M 32.738281 100.640625 " fill-opacity="1" fill-rule="nonzero"/><path fill="#d3a06c" d="M 342.261719 100.640625 L 342.261719 229.136719 L 318.453125 229.136719 L 318.453125 92.132812 Z M 342.261719 100.640625 " fill-opacity="1" fill-rule="nonzero"/><path fill="#d3a06c" d="M 32.738281 100.640625 L 56.546875 92.191406 L 56.546875 229.136719 L 32.738281 229.136719 Z M 32.738281 100.640625 " fill-opacity="1" fill-rule="nonzero"/><path fill="#d3a06c" d="M 342.261719 318.410156 L 342.261719 366.023438 L 258.929688 366.023438 L 258.929688 342.21875 L 247.023438 342.21875 L 247.023438 318.410156 Z M 342.261719 318.410156 " fill-opacity="1" fill-rule="nonzero"/><path fill="#d3a06c" d="M 127.976562 318.410156 L 127.976562 342.21875 L 116.070312 342.21875 L 116.070312 366.023438 L 32.738281 366.023438 L 32.738281 318.410156 Z M 127.976562 318.410156 " fill-opacity="1" fill-rule="nonzero"/><path fill="#cf9e76" d="M 139.882812 294.605469 L 235.117188 294.605469 L 235.117188 318.410156 L 139.882812 318.410156 Z M 139.882812 294.605469 " fill-opacity="1" fill-rule="nonzero"/><path fill="#cf9e76" d="M 127.976562 318.410156 L 247.023438 318.410156 L 247.023438 342.21875 L 127.976562 342.21875 Z M 127.976562 318.410156 " fill-opacity="1" fill-rule="nonzero"/><path fill="#cf9e76" d="M 116.070312 342.21875 L 258.929688 342.21875 L 258.929688 366.023438 L 116.070312 366.023438 Z M 116.070312 342.21875 " fill-opacity="1" fill-rule="nonzero"/><path fill="#aab2bd" d="M 235.117188 229.136719 L 235.117188 294.605469 L 139.882812 294.605469 L 139.882812 163.667969 L 235.117188 163.667969 Z M 235.117188 229.136719 " fill-opacity="1" fill-rule="nonzero"/><path fill="#b4dd7f" d="M 354.167969 274.011719 C 361.308594 278.121094 366.070312 285.796875 366.070312 294.605469 C 366.070312 307.757812 355.417969 318.410156 342.261719 318.410156 L 235.117188 318.410156 L 235.117188 294.605469 C 235.117188 281.453125 245.773438 270.796875 258.929688 270.796875 C 267.976562 270.796875 275.714844 275.917969 279.761719 283.296875 C 282.976562 277.40625 288.570312 273 295.296875 271.453125 C 297.679688 260.859375 307.144531 252.945312 318.453125 252.945312 C 329.582031 252.945312 338.808594 260.5625 341.429688 270.859375 C 341.726562 270.859375 341.964844 270.796875 342.261719 270.796875 C 346.605469 270.796875 350.65625 271.988281 354.167969 274.011719 Z M 354.167969 274.011719 " fill-opacity="1" fill-rule="nonzero"/><path fill="#b4dd7f" d="M 139.882812 294.605469 L 139.882812 318.410156 L 32.738281 318.410156 C 19.582031 318.410156 8.929688 307.757812 8.929688 294.605469 C 8.929688 285.796875 13.691406 278.121094 20.832031 274.011719 C 24.34375 271.988281 28.394531 270.796875 32.738281 270.796875 C 33.035156 270.796875 33.273438 270.859375 33.570312 270.859375 C 36.191406 260.5625 45.417969 252.945312 56.546875 252.945312 C 67.855469 252.945312 77.320312 260.859375 79.703125 271.453125 C 86.429688 273 92.023438 277.40625 95.238281 283.296875 C 99.285156 275.917969 107.023438 270.796875 116.070312 270.796875 C 129.226562 270.796875 139.882812 281.453125 139.882812 294.605469 Z M 139.882812 294.605469 " fill-opacity="1" fill-rule="nonzero"/><path fill="#69d6f4" d="M 294.644531 163.667969 L 294.644531 193.429688 L 258.929688 193.429688 L 258.929688 163.667969 C 258.929688 153.789062 266.90625 145.816406 276.785156 145.816406 C 286.667969 145.816406 294.644531 153.789062 294.644531 163.667969 Z M 294.644531 163.667969 " fill-opacity="1" fill-rule="nonzero"/><path fill="#69d6f4" d="M 163.691406 187.476562 L 211.308594 187.476562 L 211.308594 211.28125 L 163.691406 211.28125 Z M 163.691406 187.476562 " fill-opacity="1" fill-rule="nonzero"/><path fill="#69d6f4" d="M 116.070312 163.667969 L 116.070312 193.429688 L 80.355469 193.429688 L 80.355469 163.667969 C 80.355469 153.789062 88.332031 145.816406 98.214844 145.816406 C 108.09375 145.816406 116.070312 153.789062 116.070312 163.667969 Z M 116.070312 163.667969 " fill-opacity="1" fill-rule="nonzero"/><path fill="#000000" d="M 157.738281 217.234375 L 217.261719 217.234375 L 217.261719 181.523438 L 157.738281 181.523438 Z M 169.644531 193.429688 L 205.355469 193.429688 L 205.355469 205.332031 L 169.644531 205.332031 Z M 169.644531 193.429688 " fill-opacity="1" fill-rule="nonzero"/><g clip-path="url(#c0a1e6b7f7)"><path fill="#000000" d="M 372.023438 235.089844 L 372.023438 223.1875 L 348.214844 223.1875 L 348.214844 109.046875 C 350.128906 109.730469 352.125 110.105469 354.167969 110.105469 C 361.492188 110.105469 368.195312 105.511719 370.839844 98.660156 C 374.375 89.472656 369.765625 79.121094 360.453125 75.53125 L 187.5 13.660156 L 98.214844 45.601562 L 98.214844 26.78125 L 86.308594 26.78125 L 86.308594 2.976562 L 38.691406 2.976562 L 38.691406 26.78125 L 26.785156 26.78125 L 26.785156 71.15625 L 14.417969 75.585938 C 5.226562 79.128906 0.636719 89.484375 4.171875 98.679688 C 6.84375 105.617188 13.394531 110.105469 20.839844 110.105469 C 22.886719 110.105469 24.90625 109.730469 26.785156 109.070312 L 26.785156 223.1875 L 2.976562 223.1875 L 2.976562 235.089844 L 14.882812 235.089844 L 14.882812 270.863281 C 7.671875 276.296875 2.976562 284.898438 2.976562 294.605469 C 2.976562 308.972656 13.21875 320.996094 26.785156 323.761719 L 26.785156 371.976562 L 348.214844 371.976562 L 348.214844 323.761719 C 361.78125 320.996094 372.023438 308.976562 372.023438 294.605469 C 372.023438 284.898438 367.328125 276.296875 360.117188 270.863281 L 360.117188 235.089844 Z M 318.453125 246.992188 C 316.410156 246.992188 314.433594 247.265625 312.5 247.660156 L 312.5 235.089844 L 324.40625 235.089844 L 324.40625 247.671875 C 322.464844 247.273438 320.492188 246.992188 318.453125 246.992188 Z M 252.976562 348.167969 L 252.976562 360.074219 L 122.023438 360.074219 L 122.023438 348.167969 Z M 133.929688 336.265625 L 133.929688 324.363281 L 241.070312 324.363281 L 241.070312 336.265625 Z M 145.832031 312.460938 L 145.832031 300.558594 L 229.167969 300.558594 L 229.167969 312.460938 Z M 74.023438 92.25 L 300.992188 92.25 L 312.5 96.351562 L 312.5 104.152344 L 62.5 104.152344 L 62.5 96.355469 Z M 107.421875 80.347656 L 187.5 51.804688 L 267.59375 80.347656 Z M 62.5 116.058594 L 312.5 116.058594 L 312.5 223.1875 L 241.070312 223.1875 L 241.070312 157.71875 L 133.929688 157.71875 L 133.929688 223.1875 L 62.5 223.1875 Z M 145.832031 288.652344 L 145.832031 169.621094 L 229.167969 169.621094 L 229.167969 288.652344 Z M 62.5 235.089844 L 62.5 247.660156 C 60.566406 247.265625 58.589844 246.992188 56.546875 246.992188 C 54.507812 246.992188 52.535156 247.273438 50.59375 247.671875 L 50.59375 235.089844 Z M 74.40625 235.089844 L 86.308594 235.089844 L 86.308594 267.542969 C 85.695312 267.269531 85.144531 266.886719 84.511719 266.65625 C 82.519531 261.074219 78.941406 256.394531 74.40625 252.980469 Z M 98.214844 235.089844 L 110.121094 235.089844 L 110.121094 265.472656 C 105.75 266.375 101.730469 268.351562 98.214844 271.042969 Z M 122.023438 235.089844 L 133.929688 235.089844 L 133.929688 270.953125 C 130.453125 268.324219 126.445312 266.351562 122.023438 265.453125 Z M 241.070312 235.089844 L 252.976562 235.089844 L 252.976562 265.449219 C 248.554688 266.351562 244.546875 268.316406 241.070312 270.949219 Z M 264.878906 235.089844 L 276.785156 235.089844 L 276.785156 271.042969 C 273.269531 268.347656 269.25 266.375 264.878906 265.472656 Z M 288.691406 235.089844 L 300.59375 235.089844 L 300.59375 252.984375 C 296.058594 256.402344 292.488281 261.078125 290.492188 266.664062 C 289.863281 266.894531 289.304688 267.277344 288.691406 267.550781 Z M 324.40625 223.1875 L 324.40625 100.59375 L 336.308594 104.839844 L 336.308594 223.1875 Z M 50.59375 14.878906 L 74.40625 14.878906 L 74.40625 26.78125 L 50.59375 26.78125 Z M 38.691406 38.6875 L 86.308594 38.6875 L 86.308594 49.863281 L 38.691406 66.898438 Z M 15.28125 94.394531 C 14.101562 91.320312 15.632812 87.871094 18.558594 86.738281 L 187.5 26.304688 L 356.304688 86.691406 C 359.367188 87.871094 360.898438 91.316406 359.726562 94.382812 C 358.578125 97.34375 355.410156 99.089844 351.910156 97.753906 L 187.5 39.167969 L 23.019531 97.792969 C 19.84375 98.988281 16.441406 97.386719 15.28125 94.394531 Z M 38.691406 104.84375 L 50.59375 100.601562 L 50.59375 223.1875 L 38.691406 223.1875 Z M 26.785156 235.089844 L 38.691406 235.089844 L 38.691406 253.074219 C 34.636719 256.152344 31.320312 260.210938 29.261719 265.050781 C 28.410156 265.152344 27.613281 265.40625 26.785156 265.574219 Z M 14.882812 294.605469 C 14.882812 284.761719 22.894531 276.75 32.351562 276.734375 L 38.132812 277.03125 L 39.320312 272.351562 C 41.339844 264.429688 48.429688 258.894531 56.546875 258.894531 C 64.898438 258.894531 72.046875 264.597656 73.917969 272.769531 L 74.75 276.40625 L 78.394531 277.238281 C 83.308594 278.363281 87.542969 281.605469 90.007812 286.140625 L 95.238281 295.753906 L 100.464844 286.148438 C 103.621094 280.34375 109.601562 276.75 116.070312 276.75 C 125.917969 276.75 133.929688 284.761719 133.929688 294.605469 L 133.929688 312.460938 L 32.738281 312.460938 C 22.894531 312.460938 14.882812 304.449219 14.882812 294.605469 Z M 38.691406 324.363281 L 122.023438 324.363281 L 122.023438 336.265625 L 110.121094 336.265625 L 110.121094 360.074219 L 38.691406 360.074219 Z M 336.308594 360.074219 L 264.878906 360.074219 L 264.878906 336.265625 L 252.976562 336.265625 L 252.976562 324.363281 L 336.308594 324.363281 Z M 342.261719 312.460938 L 241.070312 312.460938 L 241.070312 294.605469 C 241.070312 284.761719 249.082031 276.75 258.929688 276.75 C 265.398438 276.75 271.378906 280.34375 274.535156 286.148438 L 279.761719 295.753906 L 284.992188 286.140625 C 287.457031 281.605469 291.695312 278.363281 296.613281 277.238281 L 300.253906 276.40625 L 301.089844 272.761719 C 302.953125 264.597656 310.101562 258.894531 318.453125 258.894531 C 326.570312 258.894531 333.660156 264.429688 335.683594 272.351562 L 336.851562 276.933594 L 341.578125 276.832031 C 341.953125 276.820312 342.328125 276.785156 342.261719 276.75 C 352.105469 276.75 360.117188 284.761719 360.117188 294.605469 C 360.117188 304.449219 352.105469 312.460938 342.261719 312.460938 Z M 348.214844 265.574219 C 347.386719 265.402344 346.589844 265.144531 345.738281 265.050781 C 343.679688 260.210938 340.363281 256.152344 336.308594 253.074219 L 336.308594 235.089844 L 348.214844 235.089844 Z M 348.214844 265.574219 " fill-opacity="1" fill-rule="nonzero"/></g><path fill="#000000" d="M 98.214844 139.863281 C 85.082031 139.863281 74.40625 150.539062 74.40625 163.667969 L 74.40625 199.378906 L 122.023438 199.378906 L 122.023438 163.667969 C 122.023438 150.539062 111.34375 139.863281 98.214844 139.863281 Z M 110.121094 187.476562 L 86.308594 187.476562 L 86.308594 163.667969 C 86.308594 157.105469 91.648438 151.765625 98.214844 151.765625 C 104.78125 151.765625 110.121094 157.105469 110.121094 163.667969 Z M 110.121094 187.476562 " fill-opacity="1" fill-rule="nonzero"/><path fill="#000000" d="M 300.59375 163.667969 C 300.59375 150.539062 289.917969 139.863281 276.785156 139.863281 C 263.65625 139.863281 252.976562 150.539062 252.976562 163.667969 L 252.976562 199.378906 L 300.59375 199.378906 Z M 288.691406 187.476562 L 264.878906 187.476562 L 264.878906 163.667969 C 264.878906 157.105469 270.21875 151.765625 276.785156 151.765625 C 283.351562 151.765625 288.691406 157.105469 288.691406 163.667969 Z M 288.691406 187.476562 " fill-opacity="1" fill-rule="nonzero"/></svg>