<svg xmlns="http://www.w3.org/2000/svg" xmlns:xlink="http://www.w3.org/1999/xlink" width="500" zoomAndPan="magnify" viewBox="0 0 375 374.999991" height="500" preserveAspectRatio="xMidYMid meet" version="1.0"><path fill="#e6e9ed" d="M 320.566406 30.242188 C 313.910156 30.242188 308.46875 24.796875 308.46875 18.144531 L 284.273438 18.144531 L 284.273438 30.242188 L 272.175781 30.242188 C 265.523438 30.242188 260.082031 24.796875 260.082031 18.144531 L 42.339844 18.144531 C 28.972656 18.144531 18.144531 28.972656 18.144531 42.339844 L 18.144531 235.886719 C 11.492188 235.886719 6.046875 241.332031 6.046875 247.984375 L 6.046875 272.175781 L 18.144531 272.175781 C 24.796875 272.175781 30.242188 277.621094 30.242188 284.273438 L 54.433594 284.273438 L 54.433594 272.175781 L 66.53125 272.175781 C 73.183594 272.175781 78.628906 277.621094 78.628906 284.273438 L 169.355469 284.273438 L 191.070312 305.988281 C 192.640625 307.558594 194.820312 308.46875 197.117188 308.46875 C 201.835938 308.46875 205.644531 304.65625 205.644531 299.941406 L 205.644531 284.273438 L 296.371094 284.273438 L 296.371094 133.066406 C 296.371094 123.023438 304.476562 114.917969 314.515625 114.917969 L 320.566406 114.917969 L 320.566406 66.53125 C 327.21875 66.53125 332.660156 61.089844 332.660156 54.433594 L 332.660156 30.242188 Z M 320.566406 30.242188 " fill-opacity="1" fill-rule="nonzero"/><path fill="#b4dd7f" d="M 42.339844 42.339844 L 235.886719 42.339844 L 235.886719 90.726562 L 42.339844 90.726562 Z M 42.339844 42.339844 " fill-opacity="1" fill-rule="nonzero"/><path fill="#ef7385" d="M 247.984375 235.886719 L 272.175781 235.886719 L 272.175781 260.082031 L 247.984375 260.082031 Z M 247.984375 235.886719 " fill-opacity="1" fill-rule="nonzero"/><path fill="#ef7385" d="M 199.597656 235.886719 L 223.789062 235.886719 L 223.789062 260.082031 L 199.597656 260.082031 Z M 199.597656 235.886719 " fill-opacity="1" fill-rule="nonzero"/><path fill="#ef7385" d="M 151.210938 235.886719 L 175.402344 235.886719 L 175.402344 260.082031 L 151.210938 260.082031 Z M 151.210938 235.886719 " fill-opacity="1" fill-rule="nonzero"/><path fill="#ccd1d9" d="M 332.660156 332.660156 L 332.660156 356.855469 C 332.660156 363.507812 327.21875 368.953125 320.566406 368.953125 C 313.910156 368.953125 308.46875 363.507812 308.46875 356.855469 L 308.46875 332.660156 Z M 332.660156 332.660156 " fill-opacity="1" fill-rule="nonzero"/><path fill="#fcd770" d="M 344.757812 139.113281 L 344.757812 308.46875 L 332.660156 332.660156 L 308.46875 332.660156 L 296.371094 308.46875 L 296.371094 133.066406 C 296.371094 123.023438 304.476562 114.917969 314.515625 114.917969 L 326.613281 114.917969 C 336.652344 114.917969 344.757812 123.023438 344.757812 133.066406 Z M 344.757812 139.113281 " fill-opacity="1" fill-rule="nonzero"/><path fill="#ef7385" d="M 332.660156 18.144531 L 332.660156 30.242188 L 320.566406 30.242188 C 313.910156 30.242188 308.46875 24.796875 308.46875 18.144531 C 308.46875 14.820312 309.796875 11.792969 312.035156 9.617188 C 314.214844 7.378906 317.238281 6.046875 320.566406 6.046875 C 323.890625 6.046875 326.914062 7.378906 329.09375 9.617188 C 331.332031 11.792969 332.660156 14.820312 332.660156 18.144531 Z M 332.660156 18.144531 " fill-opacity="1" fill-rule="nonzero"/><path fill="#ef7385" d="M 284.273438 18.144531 L 284.273438 30.242188 L 272.175781 30.242188 C 265.523438 30.242188 260.082031 24.796875 260.082031 18.144531 C 260.082031 14.820312 261.410156 11.792969 263.648438 9.617188 C 265.828125 7.378906 268.851562 6.046875 272.175781 6.046875 C 275.503906 6.046875 278.527344 7.378906 280.707031 9.617188 C 282.945312 11.792969 284.273438 14.820312 284.273438 18.144531 Z M 284.273438 18.144531 " fill-opacity="1" fill-rule="nonzero"/><path fill="#ef7385" d="M 66.53125 272.175781 C 73.183594 272.175781 78.628906 277.621094 78.628906 284.273438 C 78.628906 287.601562 77.296875 290.625 75.058594 292.800781 C 72.882812 295.039062 69.859375 296.371094 66.53125 296.371094 C 63.207031 296.371094 60.179688 295.039062 58.003906 292.800781 C 55.765625 290.625 54.433594 287.601562 54.433594 284.273438 L 54.433594 272.175781 Z M 66.53125 272.175781 " fill-opacity="1" fill-rule="nonzero"/><path fill="#ef7385" d="M 18.144531 272.175781 C 24.796875 272.175781 30.242188 277.621094 30.242188 284.273438 C 30.242188 287.601562 28.910156 290.625 26.671875 292.800781 C 24.496094 295.039062 21.472656 296.371094 18.144531 296.371094 C 14.820312 296.371094 11.792969 295.039062 9.617188 292.800781 C 7.378906 290.625 6.046875 287.601562 6.046875 284.273438 L 6.046875 272.175781 Z M 18.144531 272.175781 " fill-opacity="1" fill-rule="nonzero"/><path fill="#000000" d="M 375 151.210938 C 375 141.207031 366.859375 133.066406 356.855469 133.066406 L 350.804688 133.066406 C 350.804688 119.722656 339.957031 108.871094 326.613281 108.871094 L 326.613281 71.46875 C 333.636719 68.964844 338.710938 62.308594 338.710938 54.433594 L 338.710938 18.144531 C 338.710938 8.140625 330.570312 0 320.566406 0 C 310.558594 0 302.417969 8.140625 302.417969 18.144531 C 302.417969 28.148438 310.558594 36.289062 320.566406 36.289062 L 326.613281 36.289062 L 326.613281 54.433594 C 326.613281 57.769531 323.902344 60.484375 320.566406 60.484375 C 317.226562 60.484375 314.515625 57.769531 314.515625 54.433594 L 302.417969 54.433594 C 302.417969 62.308594 307.492188 68.964844 314.515625 71.46875 L 314.515625 108.871094 C 301.171875 108.871094 290.324219 119.722656 290.324219 133.066406 L 290.324219 278.226562 L 199.597656 278.226562 L 199.597656 299.914062 C 199.597656 301.953125 196.761719 303.132812 195.320312 301.6875 L 171.859375 278.226562 L 83.566406 278.226562 C 81.058594 271.203125 74.40625 266.128906 66.53125 266.128906 L 60.484375 266.128906 L 60.484375 247.984375 C 60.484375 244.652344 63.195312 241.933594 66.53125 241.933594 C 69.871094 241.933594 72.582031 244.652344 72.582031 247.984375 L 84.675781 247.984375 C 84.675781 237.980469 76.535156 229.839844 66.53125 229.839844 C 56.527344 229.839844 48.386719 237.980469 48.386719 247.984375 L 48.386719 284.273438 C 48.386719 294.277344 56.527344 302.417969 66.53125 302.417969 C 74.40625 302.417969 81.058594 297.34375 83.566406 290.324219 L 166.851562 290.324219 L 186.761719 310.234375 C 189.476562 312.957031 193.238281 314.515625 197.09375 314.515625 C 205.144531 314.515625 211.695312 307.964844 211.695312 299.914062 L 211.695312 290.324219 L 290.324219 290.324219 L 290.324219 309.894531 L 302.417969 334.089844 L 302.417969 356.855469 C 302.417969 366.859375 310.558594 375 320.566406 375 C 330.570312 375 338.710938 366.859375 338.710938 356.855469 L 338.710938 334.089844 L 350.804688 309.894531 L 350.804688 145.160156 L 356.855469 145.160156 C 360.195312 145.160156 362.902344 147.878906 362.902344 151.210938 L 362.902344 194.582031 C 362.902344 196.199219 362.273438 197.722656 361.132812 198.863281 L 354.351562 205.644531 L 361.132812 212.425781 C 362.273438 213.570312 362.902344 215.09375 362.902344 216.707031 L 362.902344 229.839844 L 375 229.839844 L 375 216.707031 C 375 212.65625 373.679688 208.800781 371.242188 205.644531 C 373.679688 202.488281 375 198.636719 375 194.582031 Z M 320.566406 24.195312 C 317.226562 24.195312 314.515625 21.476562 314.515625 18.144531 C 314.515625 14.8125 317.226562 12.097656 320.566406 12.097656 C 323.902344 12.097656 326.613281 14.8125 326.613281 18.144531 L 326.613281 24.195312 Z M 66.53125 290.324219 C 63.195312 290.324219 60.484375 287.605469 60.484375 284.273438 L 60.484375 278.226562 L 66.53125 278.226562 C 69.871094 278.226562 72.582031 280.941406 72.582031 284.273438 C 72.582031 287.605469 69.871094 290.324219 66.53125 290.324219 Z M 314.515625 120.96875 L 326.613281 120.96875 C 333.285156 120.96875 338.710938 126.394531 338.710938 133.066406 L 338.710938 181.453125 L 302.417969 181.453125 L 302.417969 133.066406 C 302.417969 126.394531 307.84375 120.96875 314.515625 120.96875 Z M 302.417969 302.417969 L 302.417969 193.546875 L 338.710938 193.546875 L 338.710938 302.417969 Z M 334.972656 314.515625 L 328.921875 326.613281 L 312.207031 326.613281 L 306.15625 314.515625 Z M 326.613281 356.855469 C 326.613281 360.1875 323.902344 362.902344 320.566406 362.902344 C 317.226562 362.902344 314.515625 360.1875 314.515625 356.855469 L 314.515625 338.710938 L 326.613281 338.710938 Z M 326.613281 356.855469 " fill-opacity="1" fill-rule="nonzero"/><path fill="#000000" d="M 18.144531 241.933594 C 21.484375 241.933594 24.195312 244.652344 24.195312 247.984375 L 36.289062 247.984375 C 36.289062 240.109375 31.214844 233.457031 24.195312 230.953125 L 24.195312 42.339844 C 24.195312 32.335938 32.335938 24.195312 42.339844 24.195312 L 255.144531 24.195312 C 257.648438 31.214844 264.300781 36.289062 272.175781 36.289062 L 278.226562 36.289062 L 278.226562 54.433594 C 278.226562 57.769531 275.515625 60.484375 272.175781 60.484375 C 268.839844 60.484375 266.128906 57.769531 266.128906 54.433594 L 254.03125 54.433594 C 254.03125 64.441406 262.171875 72.582031 272.175781 72.582031 C 282.179688 72.582031 290.324219 64.441406 290.324219 54.433594 L 290.324219 18.144531 C 290.324219 8.140625 282.179688 0 272.175781 0 C 264.300781 0 257.648438 5.074219 255.144531 12.097656 L 42.339844 12.097656 C 25.664062 12.097656 12.097656 25.664062 12.097656 42.339844 L 12.097656 230.953125 C 5.074219 233.457031 0 240.109375 0 247.984375 L 0 284.273438 C 0 294.277344 8.140625 302.417969 18.144531 302.417969 C 28.148438 302.417969 36.289062 294.277344 36.289062 284.273438 C 36.289062 274.269531 28.148438 266.128906 18.144531 266.128906 L 12.097656 266.128906 L 12.097656 247.984375 C 12.097656 244.652344 14.804688 241.933594 18.144531 241.933594 Z M 272.175781 12.097656 C 275.515625 12.097656 278.226562 14.8125 278.226562 18.144531 L 278.226562 24.195312 L 272.175781 24.195312 C 268.839844 24.195312 266.128906 21.476562 266.128906 18.144531 C 266.128906 14.8125 268.839844 12.097656 272.175781 12.097656 Z M 18.144531 278.226562 C 21.484375 278.226562 24.195312 280.941406 24.195312 284.273438 C 24.195312 287.605469 21.484375 290.324219 18.144531 290.324219 C 14.804688 290.324219 12.097656 287.605469 12.097656 284.273438 L 12.097656 278.226562 Z M 18.144531 278.226562 " fill-opacity="1" fill-rule="nonzero"/><path fill="#000000" d="M 241.933594 36.289062 L 36.289062 36.289062 L 36.289062 96.773438 L 241.933594 96.773438 Z M 229.839844 84.675781 L 48.386719 84.675781 L 48.386719 48.386719 L 229.839844 48.386719 Z M 229.839844 84.675781 " fill-opacity="1" fill-rule="nonzero"/><path fill="#000000" d="M 36.289062 108.871094 L 60.484375 108.871094 L 60.484375 120.96875 L 36.289062 120.96875 Z M 36.289062 108.871094 " fill-opacity="1" fill-rule="nonzero"/><path fill="#000000" d="M 72.582031 108.871094 L 278.226562 108.871094 L 278.226562 120.96875 L 72.582031 120.96875 Z M 72.582031 108.871094 " fill-opacity="1" fill-rule="nonzero"/><path fill="#000000" d="M 36.289062 133.066406 L 278.226562 133.066406 L 278.226562 145.160156 L 36.289062 145.160156 Z M 36.289062 133.066406 " fill-opacity="1" fill-rule="nonzero"/><path fill="#000000" d="M 36.289062 157.257812 L 120.96875 157.257812 L 120.96875 169.355469 L 36.289062 169.355469 Z M 36.289062 157.257812 " fill-opacity="1" fill-rule="nonzero"/><path fill="#000000" d="M 133.066406 157.257812 L 278.226562 157.257812 L 278.226562 169.355469 L 133.066406 169.355469 Z M 133.066406 157.257812 " fill-opacity="1" fill-rule="nonzero"/><path fill="#000000" d="M 241.933594 181.453125 L 278.226562 181.453125 L 278.226562 193.546875 L 241.933594 193.546875 Z M 241.933594 181.453125 " fill-opacity="1" fill-rule="nonzero"/><path fill="#000000" d="M 36.289062 181.453125 L 229.839844 181.453125 L 229.839844 193.546875 L 36.289062 193.546875 Z M 36.289062 181.453125 " fill-opacity="1" fill-rule="nonzero"/><path fill="#000000" d="M 36.289062 205.644531 L 278.226562 205.644531 L 278.226562 217.742188 L 36.289062 217.742188 Z M 36.289062 205.644531 " fill-opacity="1" fill-rule="nonzero"/><path fill="#000000" d="M 278.226562 266.128906 L 278.226562 229.839844 L 241.933594 229.839844 L 241.933594 266.128906 Z M 254.03125 241.933594 L 266.128906 241.933594 L 266.128906 254.03125 L 254.03125 254.03125 Z M 254.03125 241.933594 " fill-opacity="1" fill-rule="nonzero"/><path fill="#000000" d="M 229.839844 266.128906 L 229.839844 229.839844 L 193.546875 229.839844 L 193.546875 266.128906 Z M 205.644531 241.933594 L 217.742188 241.933594 L 217.742188 254.03125 L 205.644531 254.03125 Z M 205.644531 241.933594 " fill-opacity="1" fill-rule="nonzero"/><path fill="#000000" d="M 181.453125 266.128906 L 181.453125 229.839844 L 145.160156 229.839844 L 145.160156 266.128906 Z M 157.257812 241.933594 L 169.355469 241.933594 L 169.355469 254.03125 L 157.257812 254.03125 Z M 157.257812 241.933594 " fill-opacity="1" fill-rule="nonzero"/></svg>