<svg xmlns="http://www.w3.org/2000/svg" xmlns:xlink="http://www.w3.org/1999/xlink" width="500" zoomAndPan="magnify" viewBox="0 0 375 374.999991" height="500" preserveAspectRatio="xMidYMid meet" version="1.0"><defs><clipPath id="1fb189e43e"><path d="M 19.089844 0 L 355.816406 0 L 355.816406 375 L 19.089844 375 Z M 19.089844 0 " clip-rule="nonzero"/></clipPath><clipPath id="44dc7110d1"><path d="M 19.089844 0 L 355.816406 0 L 355.816406 375 L 19.089844 375 Z M 19.089844 0 " clip-rule="nonzero"/></clipPath><clipPath id="a363d1e0cc"><path d="M 19.089844 241 L 355.816406 241 L 355.816406 261 L 19.089844 261 Z M 19.089844 241 " clip-rule="nonzero"/></clipPath></defs><g clip-path="url(#1fb189e43e)"><path fill="#a45d4e" d="M 355.816406 34.960938 C 355.816406 25.6875 352.140625 16.796875 345.582031 10.242188 C 339.03125 3.683594 330.140625 0.00390625 320.871094 0.00390625 C 261.363281 0.00390625 113.523438 0.00390625 54.011719 0.00390625 C 44.742188 0.00390625 35.855469 3.683594 29.304688 10.242188 C 22.746094 16.796875 19.066406 25.6875 19.066406 34.960938 C 19.066406 100.476562 19.066406 274.523438 19.066406 340.039062 C 19.066406 349.3125 22.746094 358.203125 29.304688 364.757812 C 35.855469 371.316406 44.742188 374.996094 54.011719 374.996094 C 113.523438 374.996094 261.363281 374.996094 320.871094 374.996094 C 330.140625 374.996094 339.03125 371.316406 345.582031 364.757812 C 352.140625 358.203125 355.816406 349.3125 355.816406 340.039062 C 355.816406 274.523438 355.816406 100.476562 355.816406 34.960938 Z M 355.816406 34.960938 " fill-opacity="1" fill-rule="evenodd"/></g><path fill="#e8e8f9" d="M 128.671875 0.00390625 L 246.214844 0.00390625 L 246.214844 251.058594 L 128.671875 251.058594 Z M 128.671875 0.00390625 " fill-opacity="1" fill-rule="evenodd"/><g clip-path="url(#44dc7110d1)"><path fill="#3d2723" d="M 355.816406 34.960938 C 355.816406 25.6875 352.140625 16.796875 345.582031 10.242188 C 339.03125 3.683594 330.140625 0.00390625 320.871094 0.00390625 C 261.363281 0.00390625 113.523438 0.00390625 54.011719 0.00390625 C 44.742188 0.00390625 35.855469 3.683594 29.304688 10.242188 C 22.746094 16.796875 19.066406 25.6875 19.066406 34.960938 C 19.066406 100.476562 19.066406 274.523438 19.066406 340.039062 C 19.066406 349.3125 22.746094 358.203125 29.304688 364.757812 C 35.855469 371.316406 44.742188 374.996094 54.011719 374.996094 C 113.523438 374.996094 261.363281 374.996094 320.871094 374.996094 C 330.140625 374.996094 339.03125 371.316406 345.582031 364.757812 C 352.140625 358.203125 355.816406 349.3125 355.816406 340.039062 C 355.816406 274.523438 355.816406 100.476562 355.816406 34.960938 Z M 336.757812 34.960938 L 336.757812 340.039062 C 336.757812 344.253906 335.085938 348.292969 332.105469 351.273438 C 329.125 354.257812 325.085938 355.925781 320.871094 355.925781 L 54.011719 355.925781 C 49.800781 355.925781 45.761719 354.257812 42.78125 351.273438 C 39.800781 348.292969 38.128906 344.253906 38.128906 340.039062 C 38.128906 274.523438 38.128906 100.476562 38.128906 34.960938 C 38.128906 30.746094 39.800781 26.707031 42.78125 23.726562 C 45.761719 20.742188 49.800781 19.070312 54.011719 19.070312 L 320.871094 19.070312 C 325.085938 19.070312 329.125 20.742188 332.105469 23.726562 C 335.085938 26.707031 336.757812 30.746094 336.757812 34.960938 Z M 336.757812 34.960938 " fill-opacity="1" fill-rule="evenodd"/></g><g clip-path="url(#a363d1e0cc)"><path fill="#3d2723" d="M 28.597656 260.589844 L 346.285156 260.589844 C 351.546875 260.589844 355.816406 256.320312 355.816406 251.058594 C 355.816406 245.796875 351.546875 241.523438 346.285156 241.523438 L 28.597656 241.523438 C 23.335938 241.523438 19.066406 245.796875 19.066406 251.058594 C 19.066406 256.320312 23.335938 260.589844 28.597656 260.589844 Z M 28.597656 260.589844 " fill-opacity="1" fill-rule="evenodd"/></g><path fill="#3d2723" d="M 119.140625 9.539062 L 119.140625 365.460938 C 119.140625 370.722656 123.410156 374.996094 128.671875 374.996094 C 133.929688 374.996094 138.199219 370.722656 138.199219 365.460938 L 138.199219 9.539062 C 138.199219 4.277344 133.929688 0.00390625 128.671875 0.00390625 C 123.410156 0.00390625 119.140625 4.277344 119.140625 9.539062 Z M 119.140625 9.539062 " fill-opacity="1" fill-rule="evenodd"/><path fill="#3d2723" d="M 236.683594 9.539062 L 236.683594 365.460938 C 236.683594 370.722656 240.953125 374.996094 246.214844 374.996094 C 251.476562 374.996094 255.746094 370.722656 255.746094 365.460938 L 255.746094 9.539062 C 255.746094 4.277344 251.476562 0.00390625 246.214844 0.00390625 C 240.953125 0.00390625 236.683594 4.277344 236.683594 9.539062 Z M 236.683594 9.539062 " fill-opacity="1" fill-rule="evenodd"/><path fill="#3d2723" d="M 193.828125 79.0625 L 167.582031 105.320312 C 163.859375 109.042969 163.859375 115.082031 167.582031 118.808594 C 171.296875 122.523438 177.339844 122.523438 181.058594 118.808594 L 207.304688 92.550781 C 211.027344 88.828125 211.027344 82.789062 207.304688 79.0625 C 203.585938 75.347656 197.546875 75.347656 193.828125 79.0625 Z M 193.828125 79.0625 " fill-opacity="1" fill-rule="evenodd"/><path fill="#3d2723" d="M 193.828125 138.902344 L 167.582031 165.160156 C 163.859375 168.882812 163.859375 174.921875 167.582031 178.644531 C 171.296875 182.363281 177.339844 182.363281 181.058594 178.644531 L 207.304688 152.390625 C 211.027344 148.667969 211.027344 142.628906 207.304688 138.902344 C 203.585938 135.1875 197.546875 135.1875 193.828125 138.902344 Z M 193.828125 138.902344 " fill-opacity="1" fill-rule="evenodd"/><path fill="#3d2723" d="M 273.21875 114.410156 L 273.21875 146.1875 C 273.21875 151.449219 277.488281 155.722656 282.75 155.722656 C 288.011719 155.722656 292.28125 151.449219 292.28125 146.1875 L 292.28125 114.410156 C 292.28125 109.144531 288.011719 104.875 282.75 104.875 C 277.488281 104.875 273.21875 109.144531 273.21875 114.410156 Z M 273.21875 114.410156 " fill-opacity="1" fill-rule="evenodd"/><path fill="#3d2723" d="M 82.605469 114.410156 L 82.605469 146.1875 C 82.605469 151.449219 86.875 155.722656 92.136719 155.722656 C 97.398438 155.722656 101.667969 151.449219 101.667969 146.1875 L 101.667969 114.410156 C 101.667969 109.144531 97.398438 104.875 92.136719 104.875 C 86.875 104.875 82.605469 109.144531 82.605469 114.410156 Z M 82.605469 114.410156 " fill-opacity="1" fill-rule="evenodd"/><path fill="#3d2723" d="M 187.441406 279.660156 C 171.660156 279.660156 158.851562 292.472656 158.851562 308.257812 C 158.851562 324.046875 171.660156 336.859375 187.441406 336.859375 C 203.226562 336.859375 216.035156 324.046875 216.035156 308.257812 C 216.035156 292.472656 203.226562 279.660156 187.441406 279.660156 Z M 187.441406 298.726562 C 192.703125 298.726562 196.972656 302.996094 196.972656 308.257812 C 196.972656 313.523438 192.703125 317.792969 187.441406 317.792969 C 182.183594 317.792969 177.914062 313.523438 177.914062 308.257812 C 177.914062 302.996094 182.183594 298.726562 187.441406 298.726562 Z M 187.441406 298.726562 " fill-opacity="1" fill-rule="evenodd"/><path fill="#3d2723" d="M 273.21875 295.546875 L 273.21875 320.972656 C 273.21875 326.234375 277.488281 330.503906 282.75 330.503906 C 288.011719 330.503906 292.28125 326.234375 292.28125 320.972656 L 292.28125 295.546875 C 292.28125 290.285156 288.011719 286.015625 282.75 286.015625 C 277.488281 286.015625 273.21875 290.285156 273.21875 295.546875 Z M 273.21875 295.546875 " fill-opacity="1" fill-rule="evenodd"/><path fill="#3d2723" d="M 82.605469 295.546875 L 82.605469 320.972656 C 82.605469 326.234375 86.875 330.503906 92.136719 330.503906 C 97.398438 330.503906 101.667969 326.234375 101.667969 320.972656 L 101.667969 295.546875 C 101.667969 290.285156 97.398438 286.015625 92.136719 286.015625 C 86.875 286.015625 82.605469 290.285156 82.605469 295.546875 Z M 82.605469 295.546875 " fill-opacity="1" fill-rule="evenodd"/></svg>