<svg xmlns="http://www.w3.org/2000/svg" xmlns:xlink="http://www.w3.org/1999/xlink" width="500" zoomAndPan="magnify" viewBox="0 0 375 374.999991" height="500" preserveAspectRatio="xMidYMid meet" version="1.0"><defs><clipPath id="f89dc7e5ed"><path d="M 3.066406 0 L 229 0 L 229 374.941406 L 3.066406 374.941406 Z M 3.066406 0 " clip-rule="nonzero"/></clipPath><clipPath id="09cb0de301"><path d="M 196 74 L 372.066406 74 L 372.066406 319 L 196 319 Z M 196 74 " clip-rule="nonzero"/></clipPath></defs><path fill="#fff3e8" d="M 190.589844 93.691406 L 171.863281 93.691406 C 151.136719 93.691406 134.339844 76.90625 134.339844 56.191406 L 130.566406 57.03125 C 126.414062 57.953125 122.289062 58.984375 118.191406 60.105469 C 116.328125 60.617188 114.488281 61.203125 112.636719 61.761719 C 110.46875 62.40625 108.289062 63.03125 106.132812 63.730469 C 103.675781 64.53125 101.253906 65.410156 98.820312 66.285156 C 97.359375 66.8125 95.882812 67.3125 94.425781 67.859375 C 91.59375 68.9375 88.785156 70.085938 85.988281 71.253906 C 85.007812 71.660156 84.023438 72.054688 83.050781 72.480469 C 79.953125 73.824219 76.882812 75.234375 73.835938 76.699219 C 73.222656 76.992188 72.605469 77.28125 71.996094 77.574219 C 68.714844 79.179688 65.460938 80.855469 62.246094 82.597656 C 61.917969 82.78125 61.585938 82.953125 61.253906 83.136719 C 57.855469 84.992188 54.5 86.921875 51.183594 88.929688 C 51.054688 89.011719 50.921875 89.085938 50.796875 89.167969 C 47.351562 91.25 43.949219 93.417969 40.597656 95.667969 C 40.953125 122.9375 53.167969 148.722656 74.160156 166.210938 C 75.425781 167.261719 76.730469 168.230469 78.050781 169.167969 L 78.050781 212.441406 L 115.578125 231.191406 L 153.101562 212.441406 L 153.101562 169.167969 C 154.421875 168.222656 155.726562 167.261719 156.992188 166.210938 C 178.300781 148.46875 190.625 122.171875 190.625 94.453125 C 190.625 94.191406 190.59375 93.949219 190.589844 93.691406 Z M 190.589844 93.691406 " fill-opacity="1" fill-rule="nonzero"/><path fill="#f5443f" d="M 305.089844 226.015625 C 302.757812 224.9375 299.988281 225.679688 298.503906 227.78125 L 288.859375 241.441406 C 286.738281 244.449219 282.28125 244.449219 280.15625 241.441406 L 270.511719 227.78125 C 269.027344 225.679688 266.257812 224.9375 263.925781 226.015625 L 248.746094 233.03125 C 248.164062 233.296875 247.570312 233.316406 246.984375 233.367188 L 246.984375 312.441406 L 284.507812 274.941406 L 322.03125 312.441406 L 322.03125 233.367188 C 321.4375 233.316406 320.84375 233.296875 320.261719 233.03125 Z M 305.089844 226.015625 " fill-opacity="1" fill-rule="nonzero"/><path fill="#c06a48" d="M 196.949219 87.441406 C 196.949219 42.566406 160.550781 6.191406 115.644531 6.191406 C 70.742188 6.191406 34.339844 42.566406 34.339844 87.441406 L 34.339844 99.941406 C 63.230469 79.324219 95.984375 64.722656 130.636719 57.03125 L 134.40625 56.191406 C 134.40625 76.90625 151.207031 93.691406 171.933594 93.691406 L 196.949219 93.691406 Z M 196.949219 87.441406 " fill-opacity="1" fill-rule="nonzero"/><path fill="#4753b5" d="M 78.121094 221.265625 L 9.324219 237.441406 L 9.324219 368.691406 L 78.121094 368.691406 Z M 78.121094 221.265625 " fill-opacity="1" fill-rule="nonzero"/><path fill="#4753b5" d="M 153.171875 243.691406 L 153.171875 368.691406 L 221.964844 368.691406 L 221.964844 237.441406 L 153.171875 221.265625 Z M 153.171875 243.691406 " fill-opacity="1" fill-rule="nonzero"/><path fill="#73c3e7" d="M 115.644531 231.191406 L 78.121094 212.441406 L 78.121094 368.691406 L 153.171875 368.691406 L 153.171875 212.441406 Z M 115.644531 231.191406 " fill-opacity="1" fill-rule="nonzero"/><path fill="#73c3e7" d="M 65.613281 106.191406 L 65.613281 131.191406 L 103.136719 131.191406 L 103.136719 106.191406 Z M 65.613281 106.191406 " fill-opacity="1" fill-rule="nonzero"/><path fill="#73c3e7" d="M 165.679688 131.191406 L 165.679688 106.191406 L 128.152344 106.191406 L 128.152344 131.191406 Z M 165.679688 131.191406 " fill-opacity="1" fill-rule="nonzero"/><path fill="#f5443f" d="M 349.886719 148.453125 C 347.785156 146.972656 347.042969 144.203125 348.125 141.875 L 355.140625 126.710938 C 356.6875 123.367188 354.453125 119.503906 350.78125 119.171875 L 334.132812 117.679688 C 331.570312 117.449219 329.539062 115.417969 329.304688 112.855469 L 327.8125 96.21875 C 327.480469 92.546875 323.613281 90.316406 320.269531 91.859375 L 305.089844 98.875 C 302.757812 99.953125 299.988281 99.210938 298.503906 97.109375 L 288.859375 83.449219 C 286.738281 80.441406 282.28125 80.441406 280.15625 83.449219 L 270.511719 97.109375 C 269.027344 99.210938 266.257812 99.953125 263.925781 98.875 L 248.753906 91.859375 C 245.40625 90.316406 241.542969 92.546875 241.210938 96.21875 L 239.714844 112.855469 C 239.484375 115.417969 237.453125 117.449219 234.886719 117.679688 L 218.238281 119.171875 C 214.566406 119.503906 212.335938 123.367188 213.878906 126.710938 L 220.898438 141.878906 C 221.976562 144.210938 221.234375 146.980469 219.132812 148.460938 L 205.460938 158.097656 C 202.453125 160.21875 202.453125 164.671875 205.460938 166.796875 L 219.132812 176.4375 C 221.234375 177.917969 221.976562 180.6875 220.898438 183.015625 L 213.878906 198.179688 C 212.335938 201.523438 214.566406 205.386719 218.238281 205.71875 L 234.886719 207.210938 C 237.453125 207.441406 239.484375 209.472656 239.714844 212.035156 L 241.210938 228.671875 C 241.484375 231.703125 244.175781 233.617188 246.988281 233.367188 C 247.578125 233.316406 248.171875 233.296875 248.753906 233.03125 L 263.929688 226.015625 C 266.265625 224.9375 269.035156 225.679688 270.515625 227.78125 L 280.160156 241.441406 C 282.28125 244.449219 286.738281 244.449219 288.867188 241.441406 L 298.511719 227.78125 C 299.992188 225.679688 302.761719 224.9375 305.097656 226.015625 L 320.269531 233.03125 C 320.851562 233.296875 321.445312 233.316406 322.039062 233.367188 C 324.851562 233.617188 327.542969 231.703125 327.8125 228.671875 L 329.304688 212.035156 C 329.539062 209.472656 331.570312 207.441406 334.132812 207.210938 L 350.78125 205.71875 C 354.453125 205.386719 356.6875 201.523438 355.140625 198.179688 L 348.125 183.011719 C 347.042969 180.679688 347.785156 177.910156 349.886719 176.429688 L 363.558594 166.792969 C 366.566406 164.671875 366.566406 160.21875 363.558594 158.09375 Z M 284.507812 212.441406 C 256.875 212.441406 234.472656 190.054688 234.472656 162.441406 C 234.472656 134.828125 256.875 112.441406 284.507812 112.441406 C 312.136719 112.441406 334.539062 134.828125 334.539062 162.441406 C 334.539062 190.054688 312.136719 212.441406 284.507812 212.441406 Z M 284.507812 212.441406 " fill-opacity="1" fill-rule="nonzero"/><path fill="#fff3e8" d="M 334.539062 162.441406 C 334.539062 164.078125 334.460938 165.714844 334.300781 167.34375 C 334.140625 168.972656 333.898438 170.589844 333.578125 172.195312 C 333.257812 173.804688 332.863281 175.390625 332.386719 176.957031 C 331.910156 178.523438 331.359375 180.0625 330.730469 181.578125 C 330.105469 183.089844 329.40625 184.566406 328.632812 186.011719 C 327.859375 187.457031 327.019531 188.859375 326.109375 190.21875 C 325.199219 191.582031 324.222656 192.894531 323.183594 194.160156 C 322.144531 195.425781 321.042969 196.640625 319.886719 197.796875 C 318.726562 198.957031 317.515625 200.054688 316.246094 201.09375 C 314.980469 202.132812 313.667969 203.105469 312.304688 204.015625 C 310.941406 204.925781 309.539062 205.765625 308.09375 206.539062 C 306.648438 207.308594 305.167969 208.007812 303.652344 208.636719 C 302.140625 209.261719 300.597656 209.8125 299.03125 210.289062 C 297.464844 210.765625 295.875 211.160156 294.269531 211.480469 C 292.660156 211.800781 291.042969 212.039062 289.410156 212.203125 C 287.78125 212.363281 286.144531 212.441406 284.507812 212.441406 C 282.867188 212.441406 281.234375 212.363281 279.601562 212.203125 C 277.972656 212.039062 276.351562 211.800781 274.746094 211.480469 C 273.140625 211.160156 271.550781 210.765625 269.984375 210.289062 C 268.414062 209.8125 266.875 209.261719 265.359375 208.636719 C 263.847656 208.007812 262.367188 207.308594 260.921875 206.539062 C 259.476562 205.765625 258.074219 204.925781 256.710938 204.015625 C 255.347656 203.105469 254.035156 202.132812 252.765625 201.09375 C 251.5 200.054688 250.289062 198.957031 249.128906 197.796875 C 247.96875 196.640625 246.871094 195.425781 245.832031 194.160156 C 244.792969 192.894531 243.816406 191.582031 242.90625 190.21875 C 241.996094 188.859375 241.15625 187.457031 240.382812 186.011719 C 239.609375 184.566406 238.910156 183.089844 238.28125 181.578125 C 237.65625 180.0625 237.105469 178.523438 236.628906 176.957031 C 236.152344 175.390625 235.753906 173.804688 235.4375 172.195312 C 235.117188 170.589844 234.875 168.972656 234.714844 167.34375 C 234.554688 165.714844 234.472656 164.078125 234.472656 162.441406 C 234.472656 160.804688 234.554688 159.171875 234.714844 157.542969 C 234.875 155.910156 235.117188 154.292969 235.4375 152.6875 C 235.753906 151.082031 236.152344 149.496094 236.628906 147.929688 C 237.105469 146.359375 237.65625 144.820312 238.28125 143.308594 C 238.910156 141.796875 239.609375 140.316406 240.382812 138.871094 C 241.15625 137.429688 241.996094 136.023438 242.90625 134.664062 C 243.816406 133.300781 244.792969 131.988281 245.832031 130.722656 C 246.871094 129.457031 247.96875 128.246094 249.128906 127.085938 C 250.289062 125.929688 251.5 124.832031 252.765625 123.792969 C 254.035156 122.753906 255.347656 121.777344 256.710938 120.867188 C 258.074219 119.957031 259.476562 119.117188 260.921875 118.347656 C 262.367188 117.574219 263.847656 116.875 265.359375 116.25 C 266.875 115.621094 268.414062 115.070312 269.984375 114.59375 C 271.550781 114.121094 273.140625 113.722656 274.746094 113.402344 C 276.355469 113.082031 277.972656 112.84375 279.601562 112.683594 C 281.234375 112.523438 282.867188 112.441406 284.507812 112.441406 C 286.144531 112.441406 287.78125 112.523438 289.410156 112.683594 C 291.042969 112.84375 292.660156 113.082031 294.269531 113.402344 C 295.875 113.722656 297.464844 114.121094 299.03125 114.59375 C 300.597656 115.070312 302.140625 115.621094 303.652344 116.25 C 305.167969 116.875 306.648438 117.574219 308.09375 118.347656 C 309.539062 119.117188 310.941406 119.957031 312.304688 120.867188 C 313.667969 121.777344 314.980469 122.753906 316.246094 123.792969 C 317.515625 124.832031 318.726562 125.929688 319.886719 127.085938 C 321.042969 128.246094 322.144531 129.457031 323.183594 130.722656 C 324.222656 131.988281 325.199219 133.300781 326.109375 134.664062 C 327.019531 136.023438 327.859375 137.429688 328.632812 138.871094 C 329.40625 140.316406 330.105469 141.796875 330.730469 143.308594 C 331.359375 144.820312 331.910156 146.359375 332.386719 147.929688 C 332.863281 149.496094 333.257812 151.082031 333.578125 152.6875 C 333.898438 154.292969 334.140625 155.910156 334.300781 157.542969 C 334.460938 159.171875 334.539062 160.804688 334.539062 162.441406 Z M 334.539062 162.441406 " fill-opacity="1" fill-rule="nonzero"/><g clip-path="url(#f89dc7e5ed)"><path fill="#000000" d="M 223.398438 231.355469 L 159.425781 216.316406 L 159.425781 172.261719 C 159.96875 171.835938 160.53125 171.453125 161.070312 171.011719 C 182.453125 153.199219 195.136719 127.523438 196.648438 99.941406 L 196.949219 99.941406 C 200.40625 99.941406 203.203125 97.148438 203.203125 93.691406 L 203.203125 87.441406 C 203.203125 39.191406 163.925781 -0.0585938 115.644531 -0.0585938 C 67.363281 -0.0585938 28.085938 39.191406 28.085938 87.441406 L 28.085938 99.941406 C 28.085938 102.285156 29.394531 104.429688 31.476562 105.503906 C 32.382812 105.96875 33.367188 106.191406 34.339844 106.191406 C 34.597656 106.191406 34.847656 106.105469 35.105469 106.074219 C 38.058594 131.335938 50.515625 154.59375 70.222656 171.011719 C 70.753906 171.453125 71.324219 171.835938 71.867188 172.261719 L 71.867188 216.316406 L 7.894531 231.355469 C 5.066406 232.023438 3.070312 234.542969 3.070312 237.441406 L 3.070312 368.691406 C 3.070312 372.148438 5.867188 374.941406 9.324219 374.941406 L 221.964844 374.941406 C 225.425781 374.941406 228.21875 372.148438 228.21875 368.691406 L 228.21875 237.441406 C 228.21875 234.542969 226.226562 232.023438 223.398438 231.355469 Z M 127.746094 299.285156 L 115.644531 323.46875 L 103.542969 299.285156 L 115.644531 254.949219 Z M 146.917969 235.015625 L 131.949219 230.035156 L 146.917969 222.554688 Z M 84.375 235.015625 L 84.375 222.554688 L 99.339844 230.035156 Z M 40.597656 87.441406 C 40.597656 46.085938 74.261719 12.441406 115.644531 12.441406 C 157.027344 12.441406 190.695312 46.085938 190.695312 87.441406 L 171.933594 87.441406 C 154.691406 87.441406 140.664062 73.421875 140.664062 56.191406 C 140.664062 54.292969 139.800781 52.503906 138.324219 51.316406 C 136.839844 50.136719 134.921875 49.6875 133.050781 50.09375 L 129.28125 50.929688 C 97.507812 57.992188 67.726562 70.480469 40.589844 88.117188 L 40.589844 87.441406 Z M 47.136719 98.816406 C 72.199219 82.484375 99.605469 70.730469 128.828125 63.855469 C 132.457031 84.335938 150.414062 99.941406 171.933594 99.941406 L 184.140625 99.941406 C 182.640625 123.804688 171.582031 145.980469 153.058594 161.40625 C 131.394531 179.453125 99.917969 179.460938 78.238281 161.40625 C 59.503906 145.8125 48.355469 123.136719 47.136719 98.816406 Z M 115.644531 187.449219 C 126.363281 187.449219 137.066406 184.972656 146.917969 180.128906 L 146.917969 208.578125 L 115.644531 224.203125 L 84.375 208.578125 L 84.375 180.128906 C 94.226562 184.972656 104.925781 187.449219 115.644531 187.449219 Z M 15.578125 242.390625 L 71.867188 229.160156 L 71.867188 362.441406 L 15.578125 362.441406 Z M 84.375 362.441406 L 84.375 248.199219 L 106.539062 240.816406 L 90.847656 298.304688 C 90.449219 299.785156 90.597656 301.367188 91.285156 302.742188 L 110.046875 340.242188 C 111.109375 342.355469 113.273438 343.691406 115.644531 343.691406 C 118.015625 343.691406 120.179688 342.355469 121.242188 340.234375 L 140.003906 302.734375 C 140.695312 301.359375 140.851562 299.78125 140.441406 298.296875 L 124.75 240.8125 L 146.917969 248.199219 L 146.917969 362.441406 Z M 215.710938 362.441406 L 159.425781 362.441406 L 159.425781 229.160156 L 215.710938 242.390625 Z M 215.710938 362.441406 " fill-opacity="1" fill-rule="nonzero"/></g><path fill="#000000" d="M 109.390625 131.191406 L 109.390625 124.941406 L 121.898438 124.941406 L 121.898438 131.191406 C 121.898438 134.648438 124.695312 137.441406 128.152344 137.441406 L 165.679688 137.441406 C 169.136719 137.441406 171.933594 134.648438 171.933594 131.191406 L 171.933594 106.191406 C 171.933594 102.734375 169.136719 99.941406 165.679688 99.941406 L 128.152344 99.941406 C 124.695312 99.941406 121.898438 102.734375 121.898438 106.191406 L 121.898438 112.441406 L 109.390625 112.441406 L 109.390625 106.191406 C 109.390625 102.734375 106.597656 99.941406 103.136719 99.941406 L 65.613281 99.941406 C 62.152344 99.941406 59.359375 102.734375 59.359375 106.191406 L 59.359375 131.191406 C 59.359375 134.648438 62.152344 137.441406 65.613281 137.441406 L 103.136719 137.441406 C 106.597656 137.441406 109.390625 134.648438 109.390625 131.191406 Z M 134.40625 112.441406 L 159.425781 112.441406 L 159.425781 124.941406 L 134.40625 124.941406 Z M 96.882812 124.941406 L 71.867188 124.941406 L 71.867188 112.441406 L 96.882812 112.441406 Z M 96.882812 124.941406 " fill-opacity="1" fill-rule="nonzero"/><g clip-path="url(#09cb0de301)"><path fill="#000000" d="M 367.160156 152.980469 L 354.128906 143.792969 L 360.8125 129.328125 C 362.394531 125.917969 362.214844 121.9375 360.332031 118.6875 C 358.449219 115.4375 355.085938 113.285156 351.339844 112.949219 L 335.464844 111.523438 L 334.035156 95.648438 C 333.695312 91.90625 331.558594 88.546875 328.292969 86.660156 C 325.035156 84.773438 321.054688 84.597656 317.636719 86.179688 L 303.164062 92.859375 L 293.964844 79.828125 C 291.800781 76.773438 288.265625 74.941406 284.507812 74.941406 C 280.75 74.941406 277.214844 76.773438 275.039062 79.84375 L 265.84375 92.867188 L 251.371094 86.1875 C 247.953125 84.605469 243.96875 84.78125 240.722656 86.667969 C 237.464844 88.546875 235.320312 91.910156 234.980469 95.65625 L 233.554688 111.515625 L 217.667969 112.949219 C 213.921875 113.285156 210.566406 115.421875 208.675781 118.6875 C 206.792969 121.941406 206.613281 125.917969 208.195312 129.335938 L 214.878906 143.796875 L 201.847656 152.984375 C 201.839844 152.984375 201.839844 152.992188 201.839844 152.992188 C 198.78125 155.15625 196.949219 158.6875 196.949219 162.441406 C 196.949219 166.199219 198.78125 169.730469 201.851562 171.90625 L 214.886719 181.09375 L 208.199219 195.554688 C 206.617188 198.96875 206.800781 202.949219 208.683594 206.199219 C 210.566406 209.449219 213.929688 211.597656 217.675781 211.9375 L 233.546875 213.359375 L 234.980469 229.234375 C 235.320312 232.980469 237.457031 236.335938 240.722656 238.222656 C 240.726562 238.222656 240.726562 238.222656 240.734375 238.230469 L 240.734375 312.441406 C 240.734375 314.96875 242.253906 317.253906 244.59375 318.21875 C 246.933594 319.191406 249.621094 318.648438 251.410156 316.859375 L 284.507812 283.78125 L 317.609375 316.859375 C 318.804688 318.054688 320.40625 318.691406 322.03125 318.691406 C 322.839844 318.691406 323.652344 318.542969 324.425781 318.21875 C 326.765625 317.253906 328.285156 314.96875 328.285156 312.441406 L 328.285156 238.21875 C 328.285156 238.21875 328.292969 238.21875 328.292969 238.21875 C 331.550781 236.335938 333.695312 232.972656 334.035156 229.230469 L 335.460938 213.367188 L 351.34375 211.9375 C 355.089844 211.597656 358.449219 209.460938 360.339844 206.199219 C 362.222656 202.941406 362.402344 198.96875 360.820312 195.546875 L 354.132812 181.085938 L 367.175781 171.890625 C 370.234375 169.730469 372.066406 166.199219 372.066406 162.441406 C 372.066406 158.6875 370.234375 155.15625 367.160156 152.980469 Z M 288.929688 270.523438 C 286.484375 268.078125 282.53125 268.078125 280.085938 270.523438 L 253.238281 297.355469 L 253.238281 237.84375 L 265.851562 232.015625 L 275.050781 245.046875 C 277.214844 248.109375 280.75 249.941406 284.507812 249.941406 C 288.265625 249.941406 291.800781 248.109375 293.976562 245.042969 L 303.167969 232.015625 L 315.777344 237.84375 L 315.777344 297.355469 Z M 346.285156 171.316406 C 341.707031 174.542969 340.09375 180.5625 342.453125 185.636719 L 348.914062 199.605469 L 333.582031 200.984375 C 328 201.480469 323.578125 205.886719 323.070312 211.472656 L 321.6875 226.804688 L 307.722656 220.347656 C 302.636719 218.003906 296.621094 219.609375 293.394531 224.171875 L 284.507812 236.765625 L 275.625 224.179688 C 273.398438 221.015625 269.828125 219.273438 266.15625 219.273438 C 264.519531 219.273438 262.867188 219.625 261.296875 220.347656 L 247.320312 226.804688 L 245.9375 211.484375 C 245.445312 205.90625 241.035156 201.484375 235.445312 200.980469 L 220.101562 199.597656 L 226.5625 185.640625 C 228.921875 180.5625 227.308594 174.542969 222.734375 171.324219 L 210.132812 162.441406 L 222.730469 153.566406 C 227.308594 150.34375 228.921875 144.324219 226.5625 139.25 L 220.101562 125.28125 L 235.429688 123.898438 C 241.015625 123.40625 245.4375 119 245.945312 113.410156 L 247.328125 98.078125 L 261.292969 104.535156 C 266.390625 106.886719 272.40625 105.285156 275.621094 100.710938 L 284.507812 88.117188 L 293.386719 100.703125 C 296.609375 105.273438 302.625 106.886719 307.714844 104.535156 L 321.695312 98.078125 L 323.078125 113.398438 C 323.570312 118.980469 327.980469 123.398438 333.570312 123.90625 L 348.914062 125.285156 L 342.453125 139.242188 C 340.09375 144.324219 341.707031 150.34375 346.28125 153.5625 L 358.882812 162.441406 Z M 346.285156 171.316406 " fill-opacity="1" fill-rule="nonzero"/></g><path fill="#000000" d="M 284.507812 106.191406 C 253.46875 106.191406 228.21875 131.421875 228.21875 162.441406 C 228.21875 193.460938 253.46875 218.691406 284.507812 218.691406 C 315.546875 218.691406 340.792969 193.460938 340.792969 162.441406 C 340.792969 131.421875 315.546875 106.191406 284.507812 106.191406 Z M 284.507812 206.191406 C 260.371094 206.191406 240.726562 186.5625 240.726562 162.441406 C 240.726562 138.324219 260.371094 118.691406 284.507812 118.691406 C 308.640625 118.691406 328.285156 138.324219 328.285156 162.441406 C 328.285156 186.5625 308.640625 206.191406 284.507812 206.191406 Z M 284.507812 206.191406 " fill-opacity="1" fill-rule="nonzero"/><path fill="#000000" d="M 322.03125 43.691406 L 334.539062 43.691406 L 334.539062 56.191406 L 322.03125 56.191406 Z M 322.03125 43.691406 " fill-opacity="1" fill-rule="nonzero"/><path fill="#000000" d="M 347.046875 43.691406 L 359.558594 43.691406 L 359.558594 56.191406 L 347.046875 56.191406 Z M 347.046875 43.691406 " fill-opacity="1" fill-rule="nonzero"/><path fill="#000000" d="M 334.539062 31.191406 L 347.046875 31.191406 L 347.046875 43.691406 L 334.539062 43.691406 Z M 334.539062 31.191406 " fill-opacity="1" fill-rule="nonzero"/><path fill="#000000" d="M 334.539062 56.191406 L 347.046875 56.191406 L 347.046875 68.691406 L 334.539062 68.691406 Z M 334.539062 56.191406 " fill-opacity="1" fill-rule="nonzero"/><path fill="#000000" d="M 253.238281 12.441406 L 265.746094 12.441406 L 265.746094 24.941406 L 253.238281 24.941406 Z M 253.238281 12.441406 " fill-opacity="1" fill-rule="nonzero"/><path fill="#000000" d="M 278.253906 12.441406 L 290.761719 12.441406 L 290.761719 24.941406 L 278.253906 24.941406 Z M 278.253906 12.441406 " fill-opacity="1" fill-rule="nonzero"/><path fill="#000000" d="M 265.746094 -0.0585938 L 278.253906 -0.0585938 L 278.253906 12.441406 L 265.746094 12.441406 Z M 265.746094 -0.0585938 " fill-opacity="1" fill-rule="nonzero"/><path fill="#000000" d="M 265.746094 24.941406 L 278.253906 24.941406 L 278.253906 37.441406 L 265.746094 37.441406 Z M 265.746094 24.941406 " fill-opacity="1" fill-rule="nonzero"/></svg>