<svg xmlns="http://www.w3.org/2000/svg" xmlns:xlink="http://www.w3.org/1999/xlink" width="500" zoomAndPan="magnify" viewBox="0 0 375 374.999991" height="500" preserveAspectRatio="xMidYMid meet" version="1.0"><path fill="#a1887f" d="M 95.6875 24.175781 C 95.6875 24.175781 95.6875 24.175781 95.691406 24.175781 C 97.953125 24.179688 99.777344 26.011719 99.777344 28.269531 L 99.777344 32.363281 L 183.28125 32.363281 L 183.28125 28.269531 C 183.28125 26.007812 185.109375 24.175781 187.371094 24.175781 Z M 99.78125 131.621094 L 99.777344 32.363281 L 183.28125 32.363281 L 183.28125 131.621094 Z M 247.441406 24.175781 C 247.445312 24.175781 247.445312 24.175781 247.449219 24.175781 C 249.707031 24.179688 251.535156 26.011719 251.535156 28.269531 L 251.535156 32.363281 L 306.585938 32.363281 L 306.585938 28.269531 C 306.585938 26.007812 308.410156 24.175781 310.679688 24.175781 Z M 91.59375 32.363281 L 91.59375 135.714844 C 91.59375 137.976562 93.429688 139.808594 95.6875 139.808594 L 187.371094 139.808594 C 189.636719 139.808594 191.464844 137.976562 191.464844 135.714844 L 191.460938 32.363281 L 243.351562 32.363281 L 243.347656 101.160156 L 244.09375 100.097656 C 245.386719 98.246094 247.945312 97.796875 249.796875 99.097656 C 251.644531 100.394531 252.097656 102.945312 250.792969 104.796875 L 249.570312 106.539062 L 308.550781 106.539062 L 307.328125 104.796875 C 306.027344 102.945312 306.472656 100.394531 308.324219 99.097656 C 310.179688 97.796875 312.726562 98.246094 314.027344 100.097656 L 314.769531 101.15625 L 314.769531 32.363281 L 370.75 32.363281 C 373.011719 32.363281 374.847656 30.53125 374.847656 28.269531 L 374.84375 4 C 374.84375 1.738281 373.011719 -0.09375 370.75 -0.09375 L 3.992188 -0.09375 C 1.734375 -0.09375 -0.0976562 1.738281 -0.0976562 4 L -0.0976562 28.269531 C -0.0976562 28.324219 -0.0976562 28.375 -0.0976562 28.425781 L -0.0976562 28.269531 C -0.0976562 26.007812 1.734375 24.175781 3.992188 24.175781 C 6.261719 24.175781 8.085938 26.007812 8.085938 28.269531 L 8.085938 32.363281 Z M 251.539062 98.355469 L 251.535156 32.363281 L 306.585938 32.363281 L 306.585938 98.355469 Z M 251.539062 98.355469 " fill-opacity="1" fill-rule="evenodd"/><path fill="#000000" d="M 8.089844 366.65625 L 366.660156 366.65625 L 366.660156 241.65625 L 8.089844 241.65625 Z M 370.753906 374.839844 L 3.996094 374.839844 C 1.738281 374.839844 -0.0976562 373.007812 -0.0976562 370.75 L -0.09375 237.5625 C -0.09375 235.304688 1.738281 233.472656 3.996094 233.472656 L 370.753906 233.472656 C 373.011719 233.472656 374.847656 235.304688 374.847656 237.566406 L 374.847656 370.746094 C 374.847656 373.007812 373.011719 374.839844 370.753906 374.839844 Z M 370.753906 374.839844 " fill-opacity="1" fill-rule="evenodd"/><path fill="#000000" d="M 8.089844 24.175781 L 366.660156 24.175781 L 366.660156 8.09375 L 8.089844 8.09375 Z M 370.753906 32.363281 L 3.996094 32.363281 C 1.738281 32.363281 -0.0976562 30.53125 -0.0976562 28.269531 L -0.09375 4 C -0.09375 1.738281 1.738281 -0.09375 3.996094 -0.09375 L 370.753906 -0.09375 C 373.011719 -0.09375 374.847656 1.738281 374.847656 4 L 374.847656 28.269531 C 374.847656 30.53125 373.011719 32.363281 370.753906 32.363281 Z M 370.753906 32.363281 " fill-opacity="1" fill-rule="evenodd"/><path fill="#000000" d="M 187.371094 139.808594 L 3.996094 139.808594 C 1.734375 139.808594 -0.0976562 137.976562 -0.0976562 135.714844 L -0.09375 28.269531 C -0.09375 26.007812 1.734375 24.175781 3.996094 24.175781 C 6.261719 24.175781 8.089844 26.007812 8.089844 28.269531 L 8.089844 131.621094 L 183.28125 131.621094 L 183.28125 28.269531 C 183.28125 26.007812 185.109375 24.175781 187.371094 24.175781 C 189.636719 24.175781 191.460938 26.007812 191.460938 28.269531 L 191.464844 135.714844 C 191.464844 137.976562 189.636719 139.808594 187.371094 139.808594 Z M 187.371094 139.808594 " fill-opacity="1" fill-rule="evenodd"/><path fill="#000000" d="M 95.6875 139.808594 C 93.429688 139.808594 91.59375 137.976562 91.59375 135.714844 L 91.59375 28.269531 C 91.59375 26.007812 93.425781 24.175781 95.6875 24.175781 C 97.949219 24.175781 99.777344 26.007812 99.777344 28.269531 L 99.78125 135.714844 C 99.78125 137.976562 97.945312 139.808594 95.6875 139.808594 Z M 95.6875 139.808594 " fill-opacity="1" fill-rule="evenodd"/><path fill="#000000" d="M 76.070312 95.675781 C 73.808594 95.675781 71.972656 93.847656 71.972656 91.585938 L 71.972656 72.398438 C 71.972656 70.140625 73.804688 68.304688 76.066406 68.304688 C 78.324219 68.304688 80.160156 70.140625 80.160156 72.398438 L 80.160156 91.585938 C 80.160156 93.84375 78.324219 95.679688 76.066406 95.679688 Z M 76.070312 95.675781 " fill-opacity="1" fill-rule="evenodd"/><path fill="#000000" d="M 115.308594 95.675781 C 113.046875 95.675781 111.214844 93.847656 111.214844 91.585938 L 111.21875 72.398438 C 111.21875 70.140625 113.046875 68.304688 115.304688 68.304688 C 117.566406 68.304688 119.398438 70.140625 119.398438 72.398438 L 119.402344 91.585938 C 119.402344 93.84375 117.566406 95.679688 115.308594 95.675781 Z M 115.308594 95.675781 " fill-opacity="1" fill-rule="evenodd"/><path fill="#000000" d="M 95.6875 374.84375 C 93.429688 374.84375 91.59375 373.011719 91.59375 370.75 L 91.59375 237.566406 C 91.59375 235.304688 93.425781 233.472656 95.6875 233.472656 C 97.949219 233.472656 99.777344 235.304688 99.777344 237.566406 L 99.78125 370.75 C 99.78125 373.007812 97.945312 374.84375 95.6875 374.84375 Z M 95.6875 374.84375 " fill-opacity="1" fill-rule="evenodd"/><path fill="#000000" d="M 24.460938 350.285156 L 75.226562 350.285156 L 75.226562 258.03125 L 24.460938 258.03125 Z M 79.316406 358.46875 L 20.375 358.46875 C 18.109375 358.46875 16.28125 356.636719 16.28125 354.375 L 16.285156 253.9375 C 16.285156 251.675781 18.109375 249.84375 20.375 249.84375 L 79.316406 249.84375 C 81.574219 249.84375 83.40625 251.679688 83.40625 253.9375 L 83.410156 354.375 C 83.410156 356.636719 81.574219 358.46875 79.316406 358.46875 Z M 79.316406 358.46875 " fill-opacity="1" fill-rule="evenodd"/><path fill="#000000" d="M 116.152344 350.285156 L 166.90625 350.285156 L 166.90625 258.03125 L 116.152344 258.03125 Z M 171 358.46875 L 112.0625 358.46875 C 109.800781 358.46875 107.964844 356.636719 107.964844 354.375 L 107.96875 253.9375 C 107.96875 251.675781 109.796875 249.84375 112.058594 249.84375 L 171 249.84375 C 173.257812 249.84375 175.089844 251.679688 175.089844 253.9375 L 175.089844 354.375 C 175.089844 356.636719 173.257812 358.46875 170.996094 358.46875 Z M 171 358.46875 " fill-opacity="1" fill-rule="evenodd"/><path fill="#000000" d="M 65.945312 317.84375 C 63.6875 317.84375 61.851562 316.011719 61.851562 313.75 L 61.851562 294.5625 C 61.851562 292.304688 63.683594 290.472656 65.945312 290.472656 C 68.207031 290.472656 70.039062 292.304688 70.039062 294.566406 L 70.039062 313.75 C 70.039062 316.011719 68.203125 317.84375 65.945312 317.84375 Z M 65.945312 317.84375 " fill-opacity="1" fill-rule="evenodd"/><path fill="#000000" d="M 125.421875 317.84375 C 123.164062 317.84375 121.328125 316.011719 121.328125 313.75 L 121.328125 294.5625 C 121.328125 292.304688 123.160156 290.472656 125.421875 290.472656 C 127.691406 290.472656 129.511719 292.304688 129.511719 294.566406 L 129.515625 313.75 C 129.515625 316.011719 127.6875 317.84375 125.421875 317.84375 Z M 125.421875 317.84375 " fill-opacity="1" fill-rule="evenodd"/><path fill="#000000" d="M 187.371094 374.84375 C 185.109375 374.84375 183.277344 373.011719 183.277344 370.75 L 183.28125 237.566406 C 183.28125 235.304688 185.109375 233.472656 187.371094 233.472656 C 189.636719 233.472656 191.460938 235.304688 191.460938 237.566406 L 191.464844 370.75 C 191.464844 373.007812 189.636719 374.84375 187.371094 374.84375 Z M 187.371094 374.84375 " fill-opacity="1" fill-rule="evenodd"/><path fill="#000000" d="M 209.890625 348.238281 L 348.242188 348.238281 L 348.242188 280.542969 L 209.890625 280.542969 Z M 352.324219 356.421875 L 205.796875 356.421875 C 203.527344 356.421875 201.703125 354.589844 201.703125 352.332031 L 201.707031 276.449219 C 201.707031 274.1875 203.527344 272.355469 205.796875 272.355469 L 352.324219 272.355469 C 354.59375 272.355469 356.417969 274.191406 356.417969 276.449219 L 356.421875 352.332031 C 356.421875 354.589844 354.59375 356.425781 352.324219 356.421875 Z M 352.324219 356.421875 " fill-opacity="1" fill-rule="evenodd"/><path fill="#000000" d="M 279.0625 253.269531 C 276.996094 253.269531 275.316406 254.945312 275.316406 257.007812 C 275.316406 259.070312 276.996094 260.75 279.058594 260.75 C 281.125 260.746094 282.804688 259.070312 282.804688 257.007812 C 282.804688 254.945312 281.125 253.269531 279.0625 253.269531 Z M 279.0625 268.933594 C 272.484375 268.933594 267.128906 263.585938 267.128906 257.007812 C 267.132812 250.429688 272.484375 245.082031 279.058594 245.082031 C 285.636719 245.082031 290.988281 250.429688 290.988281 257.007812 C 290.992188 263.582031 285.632812 268.933594 279.0625 268.933594 Z M 279.0625 268.933594 " fill-opacity="1" fill-rule="evenodd"/><path fill="#000000" d="M 243.085938 253.269531 C 241.023438 253.269531 239.351562 254.945312 239.351562 257.007812 C 239.351562 259.070312 241.023438 260.75 243.085938 260.75 C 245.148438 260.746094 246.828125 259.070312 246.828125 257.007812 C 246.832031 254.945312 245.148438 253.269531 243.085938 253.269531 Z M 243.085938 268.933594 C 236.511719 268.933594 231.164062 263.585938 231.164062 257.007812 C 231.167969 250.429688 236.511719 245.082031 243.085938 245.082031 C 249.671875 245.082031 255.015625 250.429688 255.015625 257.007812 C 255.015625 263.582031 249.667969 268.933594 243.085938 268.933594 Z M 243.085938 268.933594 " fill-opacity="1" fill-rule="evenodd"/><path fill="#000000" d="M 315.035156 253.269531 C 312.976562 253.269531 311.292969 254.945312 311.292969 257.007812 C 311.296875 259.070312 312.972656 260.75 315.035156 260.75 C 317.09375 260.746094 318.769531 259.070312 318.769531 257.007812 C 318.773438 254.945312 317.089844 253.269531 315.035156 253.269531 Z M 315.035156 268.933594 C 308.457031 268.933594 303.105469 263.585938 303.105469 257.007812 C 303.109375 250.429688 308.453125 245.082031 315.035156 245.082031 C 321.613281 245.082031 326.957031 250.429688 326.957031 257.007812 C 326.957031 263.582031 321.609375 268.933594 315.035156 268.933594 Z M 315.035156 268.933594 " fill-opacity="1" fill-rule="evenodd"/><path fill="#000000" d="M 268.277344 241.65625 C 266.015625 241.65625 264.179688 239.824219 264.179688 237.566406 L 264.179688 228.609375 C 264.179688 225.925781 261.996094 223.746094 259.320312 223.746094 L 226.179688 223.742188 C 223.492188 223.742188 221.304688 225.925781 221.304688 228.609375 L 221.308594 237.5625 C 221.308594 239.824219 219.480469 241.65625 217.214844 241.65625 C 214.953125 241.65625 213.121094 239.824219 213.121094 237.566406 L 213.121094 228.609375 C 213.121094 221.414062 218.976562 215.558594 226.175781 215.558594 L 259.320312 215.558594 C 266.519531 215.558594 272.367188 221.414062 272.367188 228.609375 L 272.367188 237.5625 C 272.367188 239.824219 270.53125 241.65625 268.273438 241.65625 Z M 268.277344 241.65625 " fill-opacity="1" fill-rule="evenodd"/><path fill="#000000" d="M 340.910156 241.65625 C 338.640625 241.65625 336.8125 239.824219 336.8125 237.566406 L 336.816406 228.609375 C 336.816406 225.925781 334.628906 223.746094 331.945312 223.746094 L 298.800781 223.742188 C 296.121094 223.742188 293.941406 225.925781 293.941406 228.609375 L 293.941406 237.5625 C 293.941406 239.824219 292.105469 241.65625 289.847656 241.65625 C 287.589844 241.65625 285.753906 239.824219 285.753906 237.566406 L 285.753906 228.609375 C 285.753906 221.414062 291.601562 215.558594 298.800781 215.558594 L 331.945312 215.558594 C 339.144531 215.558594 345 221.414062 345 228.609375 L 345 237.5625 C 345 239.824219 343.167969 241.65625 340.90625 241.65625 Z M 340.910156 241.65625 " fill-opacity="1" fill-rule="evenodd"/><path fill="#000000" d="M 310.683594 106.539062 L 247.445312 106.539062 C 245.183594 106.539062 243.351562 104.707031 243.351562 102.445312 L 243.351562 28.269531 C 243.351562 26.007812 245.183594 24.175781 247.441406 24.175781 C 249.707031 24.175781 251.535156 26.007812 251.535156 28.269531 L 251.539062 98.355469 L 306.585938 98.355469 L 306.585938 28.269531 C 306.585938 26.007812 308.410156 24.175781 310.679688 24.175781 C 312.941406 24.175781 314.773438 26.007812 314.773438 28.269531 L 314.773438 102.445312 C 314.773438 104.707031 312.9375 106.539062 310.683594 106.539062 Z M 310.683594 106.539062 " fill-opacity="1" fill-rule="evenodd"/><path fill="#000000" d="M 229.046875 132.765625 C 228.238281 132.765625 227.410156 132.527344 226.703125 132.023438 C 224.855469 130.726562 224.402344 128.171875 225.699219 126.324219 L 244.09375 100.097656 C 245.386719 98.246094 247.945312 97.796875 249.796875 99.097656 C 251.644531 100.394531 252.097656 102.945312 250.792969 104.796875 L 232.402344 131.023438 C 231.609375 132.160156 230.335938 132.765625 229.046875 132.765625 Z M 329.070312 132.765625 C 327.785156 132.765625 326.511719 132.160156 325.71875 131.023438 L 307.328125 104.796875 C 306.027344 102.945312 306.472656 100.394531 308.324219 99.097656 C 310.175781 97.796875 312.726562 98.246094 314.027344 100.097656 L 332.421875 126.324219 C 333.71875 128.171875 333.265625 130.726562 331.414062 132.023438 C 330.710938 132.523438 329.882812 132.765625 329.070312 132.765625 Z M 329.070312 132.765625 " fill-opacity="1" fill-rule="evenodd"/><path fill="#000000" d="M 233.144531 145.417969 L 324.980469 145.417969 L 324.980469 132.765625 L 233.144531 132.765625 Z M 329.074219 153.601562 L 229.050781 153.601562 C 226.792969 153.601562 224.957031 151.769531 224.957031 149.511719 L 224.957031 128.671875 C 224.957031 126.410156 226.789062 124.582031 229.050781 124.582031 L 329.074219 124.578125 C 331.332031 124.578125 333.164062 126.414062 333.164062 128.671875 L 333.167969 149.511719 C 333.167969 151.769531 331.332031 153.605469 329.074219 153.601562 Z M 329.074219 153.601562 " fill-opacity="1" fill-rule="evenodd"/><path fill="#917a72" d="M 91.59375 131.621094 L 91.59375 32.363281 L 8.089844 32.363281 L 8.089844 131.621094 Z M 76.070312 95.675781 L 76.066406 95.679688 C 76.066406 95.675781 76.066406 95.675781 76.070312 95.675781 Z M 71.972656 91.585938 L 71.972656 72.398438 C 71.972656 70.140625 73.804688 68.304688 76.066406 68.304688 C 78.324219 68.304688 80.160156 70.140625 80.160156 72.398438 L 80.160156 91.585938 C 80.160156 93.84375 78.328125 95.675781 76.070312 95.679688 C 76.066406 95.679688 76.066406 95.679688 76.066406 95.675781 C 73.804688 95.675781 71.972656 93.84375 71.972656 91.585938 Z M 71.972656 91.585938 " fill-opacity="1" fill-rule="evenodd"/><path fill="#917a72" d="M 119.398438 72.398438 L 119.402344 91.585938 C 119.402344 93.84375 117.566406 95.679688 115.308594 95.675781 C 113.046875 95.675781 111.214844 93.847656 111.214844 91.585938 L 111.21875 72.398438 C 111.21875 70.140625 113.046875 68.304688 115.304688 68.304688 C 117.566406 68.304688 119.398438 70.140625 119.398438 72.398438 Z M 99.777344 32.363281 L 99.78125 131.621094 L 183.28125 131.621094 L 183.28125 32.363281 Z M 99.777344 32.363281 " fill-opacity="1" fill-rule="evenodd"/><path fill="#eceff1" d="M 233.144531 132.765625 L 324.980469 132.765625 L 324.980469 145.417969 L 233.144531 145.417969 Z M 233.144531 132.765625 " fill-opacity="1" fill-rule="evenodd"/><path fill="#d4d7d9" d="M 236.921875 124.582031 L 321.203125 124.578125 L 308.550781 106.539062 L 249.570312 106.539062 Z M 236.921875 124.582031 " fill-opacity="1" fill-rule="evenodd"/><path fill="#eceff1" d="M 251.539062 98.355469 L 306.585938 98.355469 L 306.585938 32.363281 L 251.535156 32.363281 Z M 251.539062 98.355469 " fill-opacity="1" fill-rule="evenodd"/><path fill="#917a72" d="M 75.226562 258.03125 L 24.460938 258.03125 L 24.460938 350.28125 L 75.226562 350.28125 Z M 61.851562 313.75 L 61.851562 294.5625 C 61.851562 292.304688 63.683594 290.472656 65.945312 290.472656 C 68.207031 290.472656 70.039062 292.304688 70.039062 294.566406 L 70.039062 313.75 C 70.039062 316.011719 68.203125 317.84375 65.945312 317.84375 C 63.6875 317.84375 61.851562 316.011719 61.851562 313.75 Z M 61.851562 313.75 " fill-opacity="1" fill-rule="evenodd"/><path fill="#a1887f" d="M 20.375 249.84375 L 79.316406 249.84375 C 81.574219 249.84375 83.40625 251.675781 83.40625 253.9375 L 83.410156 354.375 C 83.410156 356.632812 81.574219 358.46875 79.316406 358.46875 L 20.375 358.46875 C 18.109375 358.46875 16.28125 356.636719 16.28125 354.375 L 16.285156 253.9375 C 16.285156 251.675781 18.109375 249.84375 20.375 249.84375 Z M 91.59375 366.65625 L 91.59375 241.65625 L 8.089844 241.65625 L 8.089844 366.65625 Z M 91.59375 366.65625 " fill-opacity="1" fill-rule="evenodd"/><path fill="#917a72" d="M 116.152344 258.03125 L 116.152344 350.28125 L 166.90625 350.28125 L 166.90625 258.03125 Z M 129.511719 294.566406 L 129.515625 313.75 C 129.515625 316.011719 127.6875 317.84375 125.421875 317.84375 C 123.164062 317.84375 121.328125 316.011719 121.328125 313.75 L 121.328125 294.5625 C 121.328125 292.304688 123.160156 290.472656 125.421875 290.472656 C 127.691406 290.472656 129.511719 292.304688 129.511719 294.566406 Z M 129.511719 294.566406 " fill-opacity="1" fill-rule="evenodd"/><path fill="#a1887f" d="M 171 358.46875 L 170.996094 358.46875 Z M 112.058594 249.84375 L 171 249.84375 C 173.257812 249.84375 175.089844 251.675781 175.089844 253.9375 L 175.089844 354.375 C 175.089844 356.632812 173.257812 358.46875 171 358.46875 C 171 358.46875 170.996094 358.46875 170.996094 358.46875 L 112.0625 358.46875 C 109.800781 358.46875 107.964844 356.636719 107.964844 354.375 L 107.96875 253.9375 C 107.96875 251.675781 109.796875 249.84375 112.058594 249.84375 Z M 99.78125 366.65625 L 183.277344 366.65625 L 183.28125 241.65625 L 99.777344 241.65625 Z M 99.78125 366.65625 " fill-opacity="1" fill-rule="evenodd"/><path fill="#e69a83" d="M 209.890625 280.542969 L 348.242188 280.542969 L 348.242188 348.238281 L 209.890625 348.238281 Z M 209.890625 280.542969 " fill-opacity="1" fill-rule="evenodd"/><path fill="#ffab91" d="M 326.957031 257.007812 C 326.957031 263.582031 321.609375 268.933594 315.035156 268.933594 C 308.453125 268.933594 303.105469 263.585938 303.105469 257.007812 C 303.109375 250.429688 308.453125 245.082031 315.035156 245.082031 C 321.613281 245.082031 326.957031 250.429688 326.957031 257.007812 Z M 205.792969 272.355469 L 352.324219 272.355469 C 354.59375 272.355469 356.417969 274.191406 356.417969 276.449219 L 356.417969 352.332031 C 356.417969 354.589844 354.589844 356.425781 352.324219 356.421875 L 205.792969 356.421875 C 203.527344 356.421875 201.703125 354.59375 201.703125 352.332031 L 201.703125 276.449219 C 201.703125 274.1875 203.527344 272.355469 205.792969 272.355469 Z M 340.910156 241.65625 L 340.90625 241.660156 C 340.90625 241.65625 340.90625 241.65625 340.910156 241.65625 Z M 279.058594 245.082031 C 285.632812 245.082031 290.988281 250.429688 290.988281 257.007812 C 290.992188 263.582031 285.632812 268.933594 279.0625 268.933594 C 272.484375 268.933594 267.128906 263.585938 267.128906 257.007812 C 267.132812 250.429688 272.484375 245.082031 279.058594 245.082031 Z M 255.011719 257.007812 C 255.015625 263.582031 249.667969 268.933594 243.085938 268.933594 C 236.511719 268.933594 231.164062 263.585938 231.164062 257.007812 C 231.167969 250.429688 236.507812 245.082031 243.082031 245.082031 C 249.667969 245.082031 255.011719 250.429688 255.011719 257.007812 Z M 268.273438 241.65625 L 268.273438 241.660156 C 268.273438 241.65625 268.273438 241.65625 268.273438 241.65625 Z M 191.460938 241.65625 L 191.460938 366.65625 L 366.660156 366.65625 L 366.660156 241.65625 L 341.023438 241.65625 C 340.988281 241.660156 340.949219 241.660156 340.910156 241.65625 L 340.90625 241.660156 L 289.964844 241.65625 C 289.925781 241.660156 289.886719 241.660156 289.847656 241.660156 C 289.808594 241.660156 289.769531 241.660156 289.730469 241.65625 L 268.390625 241.65625 C 268.351562 241.660156 268.3125 241.660156 268.273438 241.65625 L 268.273438 241.660156 L 217.332031 241.65625 C 217.292969 241.660156 217.253906 241.660156 217.210938 241.660156 C 217.171875 241.660156 217.136719 241.660156 217.097656 241.65625 Z M 191.460938 241.65625 " fill-opacity="1" fill-rule="evenodd"/><path fill="#eceff1" d="M 246.828125 257.007812 C 246.832031 254.945312 245.148438 253.269531 243.085938 253.269531 C 241.023438 253.269531 239.351562 254.945312 239.351562 257.007812 C 239.351562 259.070312 241.023438 260.75 243.085938 260.75 C 245.148438 260.746094 246.828125 259.070312 246.828125 257.007812 Z M 246.828125 257.007812 " fill-opacity="1" fill-rule="evenodd"/><path fill="#eceff1" d="M 279.0625 253.269531 C 276.996094 253.269531 275.316406 254.945312 275.316406 257.007812 C 275.316406 259.070312 276.996094 260.75 279.058594 260.75 C 281.125 260.746094 282.804688 259.070312 282.804688 257.007812 C 282.804688 254.945312 281.125 253.269531 279.0625 253.269531 Z M 279.0625 253.269531 " fill-opacity="1" fill-rule="evenodd"/><path fill="#eceff1" d="M 311.292969 257.007812 C 311.292969 259.070312 312.972656 260.75 315.035156 260.75 C 317.089844 260.746094 318.769531 259.070312 318.769531 257.007812 C 318.773438 254.945312 317.089844 253.269531 315.035156 253.269531 C 312.972656 253.269531 311.292969 254.945312 311.292969 257.007812 Z M 311.292969 257.007812 " fill-opacity="1" fill-rule="evenodd"/><path fill="#eceff1" d="M 293.941406 233.472656 L 336.816406 233.472656 L 336.816406 228.609375 C 336.816406 225.925781 334.632812 223.746094 331.945312 223.746094 L 298.800781 223.746094 C 296.125 223.746094 293.941406 225.929688 293.941406 228.609375 Z M 293.941406 233.472656 " fill-opacity="1" fill-rule="evenodd"/><path fill="#eceff1" d="M 264.183594 228.609375 C 264.183594 225.925781 262 223.746094 259.320312 223.746094 L 226.179688 223.746094 C 223.492188 223.746094 221.308594 225.925781 221.308594 228.609375 L 221.308594 233.472656 L 264.183594 233.472656 Z M 264.183594 228.609375 " fill-opacity="1" fill-rule="evenodd"/></svg>