<svg xmlns="http://www.w3.org/2000/svg" xmlns:xlink="http://www.w3.org/1999/xlink" width="500" zoomAndPan="magnify" viewBox="0 0 375 374.999991" height="500" preserveAspectRatio="xMidYMid meet" version="1.0"><path fill="#aab2bd" d="M 320.566406 235.886719 L 338.710938 368.953125 L 278.226562 368.953125 L 296.371094 235.886719 Z M 320.566406 235.886719 " fill-opacity="1" fill-rule="nonzero"/><path fill="#ccd1d9" d="M 368.953125 163.304688 L 368.953125 187.5 C 368.953125 214.234375 347.296875 235.886719 320.566406 235.886719 L 296.371094 235.886719 C 285.363281 235.886719 275.203125 232.199219 267.097656 226.027344 C 255.484375 217.199219 247.984375 203.226562 247.984375 187.5 L 247.984375 163.304688 Z M 368.953125 163.304688 " fill-opacity="1" fill-rule="nonzero"/><path fill="#b27946" d="M 247.984375 163.304688 L 247.984375 175.402344 C 247.984375 162.035156 237.15625 151.210938 223.789062 151.210938 L 211.695312 151.210938 L 211.695312 127.015625 L 247.984375 127.015625 Z M 247.984375 163.304688 " fill-opacity="1" fill-rule="nonzero"/><path fill="#b27946" d="M 42.339844 127.015625 L 42.339844 151.210938 L 30.242188 151.210938 C 23.589844 151.210938 17.539062 153.929688 13.125 158.285156 C 8.769531 162.703125 6.046875 168.75 6.046875 175.402344 L 6.046875 127.015625 Z M 42.339844 127.015625 " fill-opacity="1" fill-rule="nonzero"/><path fill="#ff826e" d="M 247.984375 102.824219 L 187.5 102.824219 C 186.835938 74.152344 167.054688 37.257812 139.113281 30.242188 L 187.5 30.242188 C 220.886719 30.242188 247.984375 69.433594 247.984375 102.824219 Z M 247.984375 102.824219 " fill-opacity="1" fill-rule="nonzero"/><path fill="#ff826e" d="M 66.53125 30.242188 L 114.917969 30.242188 C 86.492188 37.378906 66.53125 75 66.53125 104.335938 L 66.53125 127.015625 L 6.046875 127.015625 L 6.046875 102.824219 C 6.046875 69.433594 33.144531 30.242188 66.53125 30.242188 Z M 66.53125 30.242188 " fill-opacity="1" fill-rule="nonzero"/><path fill="#fc6e51" d="M 139.113281 12.097656 L 139.113281 30.242188 L 114.917969 30.242188 L 114.917969 12.097656 C 114.917969 8.769531 117.640625 6.046875 120.96875 6.046875 L 133.066406 6.046875 C 136.390625 6.046875 139.113281 8.769531 139.113281 12.097656 Z M 139.113281 12.097656 " fill-opacity="1" fill-rule="nonzero"/><path fill="#fc6e51" d="M 187.5 102.824219 L 120.96875 102.824219 C 117.640625 102.824219 114.917969 105.542969 114.917969 108.871094 L 114.917969 127.015625 L 66.53125 127.015625 L 66.53125 104.335938 C 66.53125 75 86.492188 37.378906 114.917969 30.242188 L 139.113281 30.242188 C 167.054688 37.257812 186.835938 74.152344 187.5 102.824219 Z M 187.5 102.824219 " fill-opacity="1" fill-rule="nonzero"/><path fill="#fc6e51" d="M 284.273438 108.871094 L 284.273438 120.96875 C 284.273438 124.292969 281.550781 127.015625 278.226562 127.015625 L 114.917969 127.015625 L 114.917969 108.871094 C 114.917969 105.542969 117.640625 102.824219 120.96875 102.824219 L 278.226562 102.824219 C 281.550781 102.824219 284.273438 105.542969 284.273438 108.871094 Z M 284.273438 108.871094 " fill-opacity="1" fill-rule="nonzero"/><path fill="#fcd770" d="M 139.113281 320.566406 L 205.644531 320.566406 C 208.972656 320.566406 211.695312 323.285156 211.695312 326.613281 L 211.695312 362.902344 C 211.695312 366.230469 208.972656 368.953125 205.644531 368.953125 L 114.917969 368.953125 C 101.550781 368.953125 90.726562 358.125 90.726562 344.757812 L 90.726562 296.371094 C 90.726562 289.71875 93.449219 283.667969 97.800781 279.253906 C 102.21875 274.898438 108.265625 272.175781 114.917969 272.175781 C 128.285156 272.175781 139.113281 283.003906 139.113281 296.371094 Z M 139.113281 320.566406 " fill-opacity="1" fill-rule="nonzero"/><path fill="#fcd770" d="M 139.113281 272.175781 C 159.132812 272.175781 175.402344 288.449219 175.402344 308.46875 L 175.402344 320.566406 L 139.113281 320.566406 L 139.113281 296.371094 C 139.113281 283.003906 128.285156 272.175781 114.917969 272.175781 Z M 139.113281 272.175781 " fill-opacity="1" fill-rule="nonzero"/><path fill="#f0d0b4" d="M 260.082031 332.660156 L 260.082031 356.855469 C 260.082031 363.507812 254.636719 368.953125 247.984375 368.953125 L 205.644531 368.953125 C 208.972656 368.953125 211.695312 366.230469 211.695312 362.902344 L 211.695312 332.660156 L 220.222656 324.132812 C 221.25 323.105469 222.460938 322.257812 223.789062 321.652344 C 225.363281 320.925781 227.054688 320.566406 228.808594 320.566406 L 247.984375 320.566406 C 254.636719 320.566406 260.082031 326.007812 260.082031 332.660156 Z M 260.082031 332.660156 " fill-opacity="1" fill-rule="nonzero"/><path fill="#f0d0b4" d="M 223.789062 151.210938 C 237.15625 151.210938 247.984375 162.035156 247.984375 175.402344 C 247.984375 182.054688 245.261719 188.105469 240.90625 192.519531 C 236.492188 196.875 230.445312 199.597656 223.789062 199.597656 L 211.695312 199.597656 L 211.695312 151.210938 Z M 223.789062 151.210938 " fill-opacity="1" fill-rule="nonzero"/><path fill="#f0d0b4" d="M 211.695312 199.597656 L 211.695312 211.695312 C 211.695312 216.410156 211.148438 221.070312 210.121094 225.484375 C 203.890625 228.328125 199.597656 234.617188 199.597656 241.933594 L 199.597656 247.984375 C 188.527344 262.679688 170.988281 272.175781 151.210938 272.175781 L 102.824219 272.175781 C 69.433594 272.175781 42.339844 245.082031 42.339844 211.695312 L 42.339844 127.015625 L 211.695312 127.015625 Z M 211.695312 199.597656 " fill-opacity="1" fill-rule="nonzero"/><path fill="#f0d0b4" d="M 42.339844 181.453125 L 42.339844 199.597656 L 30.242188 199.597656 C 16.875 199.597656 6.046875 188.769531 6.046875 175.402344 C 6.046875 168.75 8.769531 162.703125 13.125 158.285156 C 17.539062 153.929688 23.589844 151.210938 30.242188 151.210938 L 42.339844 151.210938 Z M 42.339844 181.453125 " fill-opacity="1" fill-rule="nonzero"/><path fill="#ccd1d9" d="M 254.03125 223.789062 C 258.449219 223.789062 262.441406 225.363281 265.585938 227.964844 C 269.636719 231.230469 272.175781 236.308594 272.175781 241.933594 L 272.175781 247.984375 C 272.175781 259.113281 265.886719 269.273438 255.96875 274.234375 L 247.984375 278.226562 L 247.984375 320.566406 L 228.808594 320.566406 C 227.054688 320.566406 225.363281 320.925781 223.789062 321.652344 L 223.789062 278.226562 L 215.804688 274.234375 C 205.886719 269.273438 199.597656 259.113281 199.597656 247.984375 L 199.597656 241.933594 C 199.597656 234.617188 203.890625 228.328125 210.121094 225.484375 C 212.417969 224.394531 215.019531 223.789062 217.742188 223.789062 L 223.789062 223.789062 L 223.789062 241.933594 C 223.789062 245.261719 226.511719 247.984375 229.839844 247.984375 L 241.933594 247.984375 C 245.261719 247.984375 247.984375 245.261719 247.984375 241.933594 L 247.984375 223.789062 Z M 254.03125 223.789062 " fill-opacity="1" fill-rule="nonzero"/><path fill="#d3a06c" d="M 96.773438 187.5 L 157.257812 187.5 C 162.277344 187.5 166.816406 189.554688 170.082031 192.824219 C 173.347656 196.089844 175.402344 200.625 175.402344 205.644531 C 175.402344 210.664062 173.347656 215.203125 170.082031 218.46875 C 166.816406 221.734375 162.277344 223.789062 157.257812 223.789062 C 150.96875 223.789062 145.402344 220.585938 142.136719 215.683594 C 138.871094 220.585938 133.367188 223.789062 127.015625 223.789062 C 120.664062 223.789062 115.160156 220.585938 111.894531 215.683594 C 108.628906 220.585938 103.066406 223.789062 96.773438 223.789062 C 91.753906 223.789062 87.21875 221.734375 83.953125 218.46875 C 80.683594 215.203125 78.628906 210.664062 78.628906 205.644531 C 78.628906 195.605469 86.734375 187.5 96.773438 187.5 Z M 96.773438 187.5 " fill-opacity="1" fill-rule="nonzero"/><path fill="#000000" d="M 127.015625 229.839844 C 132.738281 229.839844 137.933594 227.757812 142.078125 224.429688 C 146.324219 227.867188 151.640625 229.839844 157.257812 229.839844 C 170.601562 229.839844 181.453125 218.988281 181.453125 205.644531 C 181.453125 192.300781 170.601562 181.453125 157.257812 181.453125 L 96.773438 181.453125 C 83.429688 181.453125 72.582031 192.300781 72.582031 205.644531 C 72.582031 218.988281 83.429688 229.839844 96.773438 229.839844 C 102.394531 229.839844 107.710938 227.867188 111.957031 224.429688 C 116.097656 227.757812 121.292969 229.839844 127.015625 229.839844 Z M 84.675781 205.644531 C 84.675781 198.972656 90.101562 193.546875 96.773438 193.546875 L 157.257812 193.546875 C 163.929688 193.546875 169.355469 198.972656 169.355469 205.644531 C 169.355469 212.316406 163.929688 217.742188 157.257812 217.742188 C 154.320312 217.742188 151.554688 216.652344 149.390625 214.785156 C 150.550781 211.960938 151.210938 208.882812 151.210938 205.644531 L 139.113281 205.644531 C 139.113281 212.316406 133.6875 217.742188 127.015625 217.742188 C 120.34375 217.742188 114.917969 212.316406 114.917969 205.644531 L 102.824219 205.644531 C 102.824219 208.882812 103.480469 211.960938 104.644531 214.785156 C 102.476562 216.652344 99.714844 217.742188 96.773438 217.742188 C 90.101562 217.742188 84.675781 212.316406 84.675781 205.644531 Z M 84.675781 205.644531 " fill-opacity="1" fill-rule="nonzero"/><path fill="#000000" d="M 169.355469 157.257812 C 176.027344 157.257812 181.453125 162.683594 181.453125 169.355469 L 193.546875 169.355469 C 193.546875 156.011719 182.699219 145.160156 169.355469 145.160156 C 156.011719 145.160156 145.160156 156.011719 145.160156 169.355469 L 157.257812 169.355469 C 157.257812 162.683594 162.683594 157.257812 169.355469 157.257812 Z M 169.355469 157.257812 " fill-opacity="1" fill-rule="nonzero"/><path fill="#000000" d="M 84.675781 157.257812 C 91.347656 157.257812 96.773438 162.683594 96.773438 169.355469 L 108.871094 169.355469 C 108.871094 156.011719 98.019531 145.160156 84.675781 145.160156 C 71.335938 145.160156 60.484375 156.011719 60.484375 169.355469 L 72.582031 169.355469 C 72.582031 162.683594 78.007812 157.257812 84.675781 157.257812 Z M 84.675781 157.257812 " fill-opacity="1" fill-rule="nonzero"/><path fill="#000000" d="M 375 187.5 L 375 157.257812 L 362.902344 157.257812 L 362.902344 72.582031 C 362.902344 55.90625 349.335938 42.339844 332.660156 42.339844 C 315.984375 42.339844 302.417969 55.90625 302.417969 72.582031 L 290.324219 72.582031 L 290.324219 84.675781 L 326.613281 84.675781 L 326.613281 72.582031 L 314.515625 72.582031 C 314.515625 62.578125 322.65625 54.433594 332.660156 54.433594 C 342.664062 54.433594 350.804688 62.578125 350.804688 72.582031 L 350.804688 157.257812 L 254.03125 157.257812 L 254.03125 133.066406 L 278.226562 133.066406 C 284.898438 133.066406 290.324219 127.640625 290.324219 120.96875 L 290.324219 108.871094 C 290.324219 102.199219 284.898438 96.773438 278.226562 96.773438 L 253.734375 96.773438 C 250.777344 61.933594 222.914062 24.195312 187.5 24.195312 L 145.160156 24.195312 L 145.160156 12.097656 C 145.160156 5.425781 139.734375 0 133.066406 0 L 120.96875 0 C 114.296875 0 108.871094 5.425781 108.871094 12.097656 L 108.871094 24.195312 L 66.53125 24.195312 C 29.0625 24.195312 0 66.460938 0 102.824219 L 0 175.402344 C 0 192.078125 13.566406 205.644531 30.242188 205.644531 L 36.289062 205.644531 L 36.289062 211.695312 C 36.289062 244.585938 60.308594 271.90625 91.710938 277.222656 C 87.386719 282.453125 84.675781 289.070312 84.675781 296.371094 L 84.675781 344.757812 C 84.675781 361.433594 98.242188 375 114.917969 375 L 375 375 L 375 362.902344 L 343.988281 362.902344 L 327.429688 241.453125 C 354.210938 238.058594 375 215.191406 375 187.5 Z M 320.566406 229.839844 L 296.371094 229.839844 C 275.085938 229.839844 257.46875 214.027344 254.515625 193.546875 L 362.417969 193.546875 C 359.46875 214.027344 341.847656 229.839844 320.566406 229.839844 Z M 215.96875 319.832031 L 215.769531 320.03125 C 213.609375 316.71875 209.886719 314.515625 205.644531 314.515625 L 181.453125 314.515625 L 181.453125 308.46875 C 181.453125 295.667969 175.71875 284.203125 166.710938 276.429688 C 177.664062 273.839844 187.65625 268.433594 195.996094 260.789062 C 199.105469 268.839844 205.058594 275.617188 213.109375 279.652344 L 217.742188 281.964844 L 217.742188 318.375 C 217.136719 318.839844 216.519531 319.28125 215.96875 319.832031 Z M 138.957031 278.226562 L 139.113281 278.226562 C 155.789062 278.226562 169.355469 291.792969 169.355469 308.46875 L 169.355469 314.515625 L 145.160156 314.515625 L 145.160156 296.371094 C 145.160156 289.535156 142.796875 283.292969 138.957031 278.226562 Z M 223.789062 193.546875 L 217.742188 193.546875 L 217.742188 184.6875 L 233.195312 174.386719 L 226.488281 164.324219 L 217.742188 170.152344 L 217.742188 157.257812 L 223.789062 157.257812 C 233.792969 157.257812 241.933594 165.398438 241.933594 175.402344 C 241.933594 185.40625 233.792969 193.546875 223.789062 193.546875 Z M 217.742188 211.695312 L 217.742188 205.644531 L 223.789062 205.644531 C 231.144531 205.644531 237.808594 202.898438 243.058594 198.515625 C 244.5 205.507812 247.292969 212.003906 251.140625 217.742188 L 241.933594 217.742188 L 241.933594 241.933594 L 229.839844 241.933594 L 229.839844 217.742188 L 217.742188 217.742188 C 217.621094 217.742188 217.511719 217.773438 217.398438 217.777344 C 217.578125 215.757812 217.742188 213.730469 217.742188 211.695312 Z M 218.515625 268.828125 C 210.574219 264.851562 205.644531 256.875 205.644531 248.003906 L 205.644531 241.933594 C 205.644531 235.265625 211.070312 229.839844 217.742188 229.839844 L 217.742188 241.933594 C 217.742188 248.605469 223.167969 254.03125 229.839844 254.03125 L 241.933594 254.03125 C 248.605469 254.03125 254.03125 248.605469 254.03125 241.933594 L 254.03125 229.839844 C 260.703125 229.839844 266.128906 235.265625 266.128906 241.933594 L 266.128906 248.003906 C 266.128906 256.875 261.199219 264.851562 253.257812 268.828125 L 241.933594 274.488281 L 241.933594 314.515625 L 229.839844 314.515625 L 229.839844 274.488281 Z M 254.03125 315.628906 L 254.03125 281.964844 L 258.671875 279.648438 C 270.730469 273.605469 278.226562 261.476562 278.226562 248.003906 L 278.226562 241.933594 C 278.226562 240.804688 278.042969 239.726562 277.894531 238.640625 C 281.601562 239.980469 285.476562 240.945312 289.507812 241.457031 L 272.945312 362.902344 L 265.015625 362.902344 C 265.695312 361.003906 266.128906 358.984375 266.128906 356.855469 L 266.128906 332.660156 C 266.128906 324.785156 261.054688 318.132812 254.03125 315.628906 Z M 362.902344 169.355469 L 362.902344 181.453125 L 254.03125 181.453125 L 254.03125 169.355469 Z M 241.933594 151.367188 C 236.867188 147.527344 230.625 145.160156 223.789062 145.160156 L 217.742188 145.160156 L 217.742188 133.066406 L 241.933594 133.066406 Z M 278.226562 120.96875 L 120.96875 120.96875 L 120.96875 108.871094 L 278.226562 108.871094 Z M 115.820312 36.289062 L 138.210938 36.289062 C 161.054688 42.417969 178.011719 71.558594 180.957031 96.773438 L 120.96875 96.773438 C 114.296875 96.773438 108.871094 102.199219 108.871094 108.871094 L 108.871094 120.96875 L 72.582031 120.96875 L 72.582031 104.308594 C 72.582031 77.492188 91.039062 42.945312 115.820312 36.289062 Z M 241.609375 96.773438 L 193.160156 96.773438 C 190.976562 74.914062 179.644531 50.804688 162.707031 36.289062 L 187.5 36.289062 C 215.660156 36.289062 238.6875 68.03125 241.609375 96.773438 Z M 120.96875 12.097656 L 133.066406 12.097656 L 133.066406 24.195312 L 120.96875 24.195312 Z M 66.53125 36.289062 L 91.390625 36.289062 C 72.472656 52.574219 60.484375 80.914062 60.484375 104.308594 L 60.484375 120.96875 L 12.097656 120.96875 L 12.097656 102.824219 C 12.097656 72.691406 36.382812 36.289062 66.53125 36.289062 Z M 36.289062 145.160156 L 30.242188 145.160156 C 23.40625 145.160156 17.164062 147.527344 12.097656 151.367188 L 12.097656 133.066406 L 36.289062 133.066406 Z M 30.242188 193.546875 C 20.238281 193.546875 12.097656 185.40625 12.097656 175.402344 C 12.097656 165.398438 20.238281 157.257812 30.242188 157.257812 L 36.289062 157.257812 L 36.289062 170.152344 L 27.550781 164.324219 L 20.84375 174.386719 L 36.289062 184.6875 L 36.289062 193.546875 Z M 48.386719 211.695312 L 48.386719 133.066406 L 205.644531 133.066406 L 205.644531 211.695312 C 205.644531 215.054688 205.253906 218.378906 204.652344 221.648438 C 197.988281 225.960938 193.546875 233.425781 193.546875 241.933594 L 193.546875 245.789062 C 183.15625 258.703125 167.859375 266.128906 151.210938 266.128906 L 102.824219 266.128906 C 72.804688 266.128906 48.386719 241.710938 48.386719 211.695312 Z M 114.917969 362.902344 C 104.914062 362.902344 96.773438 354.761719 96.773438 344.757812 L 96.773438 296.371094 C 96.773438 286.367188 104.914062 278.226562 114.917969 278.226562 C 124.921875 278.226562 133.066406 286.367188 133.066406 296.371094 L 133.066406 318.058594 L 122.738281 328.386719 L 131.292969 336.9375 L 141.617188 326.613281 L 205.644531 326.613281 L 205.65625 362.902344 Z M 217.742188 362.902344 L 217.742188 335.164062 L 224.523438 328.386719 C 225.652344 327.253906 227.207031 326.613281 228.796875 326.613281 L 247.984375 326.613281 C 251.324219 326.613281 254.03125 329.324219 254.03125 332.660156 L 254.03125 356.855469 C 254.03125 360.195312 251.324219 362.902344 247.984375 362.902344 Z M 285.15625 362.902344 L 301.652344 241.933594 L 315.285156 241.933594 L 331.777344 362.902344 Z M 285.15625 362.902344 " fill-opacity="1" fill-rule="nonzero"/><path fill="#000000" d="M 314.515625 96.773438 L 326.613281 96.773438 L 326.613281 120.96875 L 314.515625 120.96875 Z M 314.515625 96.773438 " fill-opacity="1" fill-rule="nonzero"/><path fill="#000000" d="M 302.417969 133.066406 L 314.515625 133.066406 L 314.515625 145.160156 L 302.417969 145.160156 Z M 302.417969 133.066406 " fill-opacity="1" fill-rule="nonzero"/></svg>