<svg xmlns="http://www.w3.org/2000/svg" xmlns:xlink="http://www.w3.org/1999/xlink" width="500" zoomAndPan="magnify" viewBox="0 0 375 374.999991" height="500" preserveAspectRatio="xMidYMid meet" version="1.0"><path fill="#dcebfd" d="M 345.558594 7.328125 L 29.441406 7.328125 C 17.261719 7.328125 7.386719 17.203125 7.386719 29.382812 L 7.386719 147.050781 C 7.386719 159.234375 17.261719 169.105469 29.441406 169.105469 L 79.433594 169.105469 L 58.847656 220.566406 L 136.039062 169.105469 L 345.558594 169.105469 C 357.738281 169.105469 367.613281 159.234375 367.613281 147.050781 L 367.613281 29.382812 C 367.613281 17.203125 357.738281 7.328125 345.558594 7.328125 Z M 345.558594 7.328125 " fill-opacity="1" fill-rule="nonzero"/><path fill="#ff641a" d="M 339.835938 347.992188 L 339.835938 367.597656 L 248.355469 367.597656 L 248.355469 347.992188 C 248.355469 322.730469 268.835938 302.25 294.097656 302.25 C 319.355469 302.25 339.835938 322.730469 339.835938 347.992188 Z M 339.835938 347.992188 " fill-opacity="1" fill-rule="nonzero"/><path fill="#ffe1ba" d="M 294.097656 249.972656 C 308.535156 249.972656 320.238281 261.675781 320.238281 276.109375 C 320.238281 290.546875 308.535156 302.25 294.097656 302.25 C 279.660156 302.25 267.953125 290.546875 267.953125 276.109375 C 267.953125 261.675781 279.660156 249.972656 294.097656 249.972656 Z M 294.097656 249.972656 " fill-opacity="1" fill-rule="nonzero"/><path fill="#fbd642" d="M 312.476562 76.089844 L 285.421875 102.464844 L 291.808594 139.699219 L 256.308594 122.117188 L 222.867188 139.699219 L 229.257812 102.464844 L 202.203125 76.089844 L 239.59375 70.65625 L 256.308594 36.78125 L 275.085938 70.65625 Z M 312.476562 76.089844 " fill-opacity="1" fill-rule="nonzero"/><path fill="#a3cc52" d="M 247.539062 341.867188 L 247.539062 367.597656 L 127.460938 367.597656 L 127.460938 341.867188 C 127.460938 308.710938 154.34375 281.828125 187.5 281.828125 C 220.65625 281.828125 247.539062 308.710938 247.539062 341.867188 Z M 247.539062 341.867188 " fill-opacity="1" fill-rule="nonzero"/><path fill="#ffe1ba" d="M 187.5 213.214844 C 206.445312 213.214844 221.808594 228.574219 221.808594 247.523438 C 221.808594 266.46875 206.445312 281.828125 187.5 281.828125 C 168.554688 281.828125 153.191406 266.46875 153.191406 247.523438 C 153.191406 228.574219 168.554688 213.214844 187.5 213.214844 Z M 187.5 213.214844 " fill-opacity="1" fill-rule="nonzero"/><path fill="#fbd642" d="M 172.796875 76.089844 L 145.742188 102.464844 L 152.132812 139.699219 L 116.632812 122.117188 L 83.191406 139.699219 L 89.578125 102.464844 L 62.523438 76.089844 L 99.914062 70.65625 L 116.632812 36.78125 L 135.40625 70.65625 Z M 172.796875 76.089844 " fill-opacity="1" fill-rule="nonzero"/><path fill="#fbd642" d="M 126.644531 347.992188 L 126.644531 367.597656 L 35.164062 367.597656 L 35.164062 347.992188 C 35.164062 322.730469 55.644531 302.25 80.902344 302.25 C 106.164062 302.25 126.644531 322.730469 126.644531 347.992188 Z M 126.644531 347.992188 " fill-opacity="1" fill-rule="nonzero"/><path fill="#ffe1ba" d="M 80.902344 249.972656 C 95.339844 249.972656 107.046875 261.675781 107.046875 276.109375 C 107.046875 290.546875 95.339844 302.25 80.902344 302.25 C 66.464844 302.25 54.761719 290.546875 54.761719 276.109375 C 54.761719 261.675781 66.464844 249.972656 80.902344 249.972656 Z M 80.902344 249.972656 " fill-opacity="1" fill-rule="nonzero"/><path fill="#000000" d="M 345.558594 -0.0195312 L 29.441406 -0.0195312 C 13.226562 -0.0195312 0.0351562 13.171875 0.0351562 29.382812 L 0.0351562 147.050781 C 0.0351562 163.265625 13.226562 176.457031 29.441406 176.457031 L 68.574219 176.457031 L 52.023438 217.835938 C 50.828125 220.828125 51.714844 224.246094 54.214844 226.277344 C 56.722656 228.308594 60.253906 228.464844 62.925781 226.683594 L 138.265625 176.457031 L 345.558594 176.457031 C 361.773438 176.457031 374.964844 163.265625 374.964844 147.050781 L 374.964844 29.382812 C 374.964844 13.171875 361.773438 -0.0195312 345.558594 -0.0195312 Z M 360.261719 147.050781 C 360.261719 155.160156 353.664062 161.753906 345.558594 161.753906 L 136.039062 161.753906 C 134.589844 161.753906 133.167969 162.183594 131.960938 162.988281 L 74.464844 201.320312 L 86.257812 171.835938 C 88.1875 167.007812 84.625 161.753906 79.433594 161.753906 L 29.441406 161.753906 C 21.335938 161.753906 14.738281 155.160156 14.738281 147.050781 L 14.738281 29.382812 C 14.738281 21.277344 21.335938 14.683594 29.441406 14.683594 L 345.558594 14.683594 C 353.664062 14.683594 360.261719 21.277344 360.261719 29.382812 Z M 360.261719 147.050781 " fill-opacity="1" fill-rule="nonzero"/><path fill="#000000" d="M 317.285156 300.238281 C 323.628906 294.140625 327.585938 285.582031 327.585938 276.109375 C 327.585938 257.644531 312.5625 242.621094 294.097656 242.621094 C 275.628906 242.621094 260.605469 257.644531 260.605469 276.109375 C 260.605469 285.582031 264.5625 294.140625 270.90625 300.238281 C 262.671875 304.253906 255.628906 310.34375 250.445312 317.8125 C 243.894531 300.722656 230.574219 286.953125 213.78125 279.816406 C 223.15625 272.171875 229.15625 260.535156 229.15625 247.523438 C 229.15625 224.550781 210.46875 205.863281 187.5 205.863281 C 164.53125 205.863281 145.839844 224.550781 145.839844 247.523438 C 145.839844 260.535156 151.84375 272.171875 161.21875 279.816406 C 144.425781 286.953125 131.105469 300.722656 124.550781 317.816406 C 119.371094 310.34375 112.328125 304.253906 104.09375 300.242188 C 110.433594 294.144531 114.394531 285.582031 114.394531 276.109375 C 114.394531 257.644531 99.371094 242.621094 80.902344 242.621094 C 62.433594 242.621094 47.410156 257.644531 47.410156 276.109375 C 47.410156 285.582031 51.371094 294.140625 57.714844 300.242188 C 40.027344 308.863281 27.808594 327.027344 27.808594 347.992188 L 27.808594 367.597656 C 27.808594 371.65625 31.101562 374.949219 35.160156 374.949219 C 96.5 374.949219 328.265625 374.949219 339.839844 374.949219 C 343.898438 374.949219 347.191406 371.65625 347.191406 367.597656 L 347.191406 347.992188 C 347.191406 327.027344 334.972656 308.863281 317.285156 300.238281 Z M 275.308594 276.109375 C 275.308594 265.75 283.738281 257.324219 294.097656 257.324219 C 304.457031 257.324219 312.882812 265.75 312.882812 276.109375 C 312.882812 286.472656 304.457031 294.898438 294.097656 294.898438 C 283.738281 294.898438 275.308594 286.472656 275.308594 276.109375 Z M 160.542969 247.523438 C 160.542969 232.65625 172.636719 220.566406 187.5 220.566406 C 202.363281 220.566406 214.453125 232.65625 214.453125 247.523438 C 214.453125 262.386719 202.363281 274.476562 187.5 274.476562 C 172.636719 274.476562 160.542969 262.386719 160.542969 247.523438 Z M 62.117188 276.109375 C 62.117188 265.75 70.542969 257.324219 80.902344 257.324219 C 91.261719 257.324219 99.691406 265.75 99.691406 276.109375 C 99.691406 286.472656 91.261719 294.898438 80.902344 294.898438 C 70.542969 294.898438 62.117188 286.472656 62.117188 276.109375 Z M 119.292969 360.246094 L 42.511719 360.246094 L 42.511719 347.992188 C 42.511719 326.824219 59.734375 309.601562 80.902344 309.601562 C 102.070312 309.601562 119.292969 326.824219 119.292969 347.992188 Z M 240.183594 360.246094 L 134.8125 360.246094 L 134.8125 341.867188 C 134.8125 312.8125 158.449219 289.179688 187.5 289.179688 C 216.550781 289.179688 240.183594 312.8125 240.183594 341.867188 Z M 332.488281 360.246094 L 255.707031 360.246094 L 255.707031 347.992188 C 255.707031 326.824219 272.929688 309.601562 294.097656 309.601562 C 315.265625 309.601562 332.488281 326.824219 332.488281 347.992188 Z M 332.488281 360.246094 " fill-opacity="1" fill-rule="nonzero"/><path fill="#000000" d="M 313.53125 68.816406 L 279.75 63.90625 L 262.742188 33.214844 C 261.417969 30.820312 258.855469 29.347656 256.136719 29.429688 C 253.402344 29.496094 250.929688 31.070312 249.71875 33.523438 L 234.710938 63.9375 L 201.148438 68.816406 C 198.378906 69.21875 196.078125 71.160156 195.210938 73.820312 C 194.347656 76.480469 195.066406 79.402344 197.074219 81.355469 L 221.359375 105.03125 L 215.625 138.457031 C 215.152344 141.214844 216.285156 144.003906 218.550781 145.648438 C 220.816406 147.292969 223.816406 147.507812 226.292969 146.207031 L 256.414062 130.371094 L 288.546875 146.289062 C 291.023438 147.515625 293.984375 147.246094 296.199219 145.59375 C 298.417969 143.941406 299.519531 141.183594 299.054688 138.457031 L 293.320312 105.03125 L 317.609375 81.355469 C 319.613281 79.402344 320.332031 76.480469 319.46875 73.820312 C 318.601562 71.160156 316.300781 69.21875 313.53125 68.816406 Z M 280.289062 97.199219 C 278.558594 98.886719 277.765625 101.320312 278.175781 103.707031 L 282.117188 126.695312 L 259.574219 115.53125 C 257.421875 114.464844 254.9375 114.535156 252.890625 115.613281 L 232.636719 126.261719 L 236.503906 103.707031 C 236.914062 101.320312 236.121094 98.886719 234.390625 97.199219 L 218 81.222656 L 240.648438 77.933594 C 243.042969 77.585938 245.113281 76.082031 246.183594 73.910156 L 256.6875 52.625 L 268.65625 74.222656 C 269.769531 76.226562 271.757812 77.601562 274.03125 77.933594 L 296.679688 81.222656 Z M 280.289062 97.199219 " fill-opacity="1" fill-rule="nonzero"/><path fill="#000000" d="M 173.855469 68.816406 L 140.074219 63.90625 L 123.0625 33.214844 C 121.738281 30.820312 119.179688 29.347656 116.457031 29.429688 C 113.722656 29.496094 111.25 31.070312 110.042969 33.523438 L 95.03125 63.9375 L 61.46875 68.816406 C 58.699219 69.21875 56.398438 71.160156 55.535156 73.820312 C 54.667969 76.480469 55.390625 79.402344 57.394531 81.355469 L 81.679688 105.03125 L 75.949219 138.457031 C 75.472656 141.214844 76.609375 144.003906 78.871094 145.648438 C 81.136719 147.292969 84.136719 147.507812 86.613281 146.207031 L 116.734375 130.371094 L 148.867188 146.289062 C 151.347656 147.515625 154.304688 147.246094 156.523438 145.59375 C 158.742188 143.941406 159.84375 141.183594 159.375 138.457031 L 153.640625 105.03125 L 177.929688 81.355469 C 179.933594 79.402344 180.652344 76.480469 179.789062 73.820312 C 178.921875 71.160156 176.625 69.21875 173.855469 68.816406 Z M 140.613281 97.199219 C 138.878906 98.886719 138.085938 101.320312 138.496094 103.707031 L 142.441406 126.695312 L 119.898438 115.53125 C 117.746094 114.464844 115.257812 114.535156 113.214844 115.613281 L 92.957031 126.261719 L 96.824219 103.707031 C 97.234375 101.320312 96.445312 98.886719 94.710938 97.199219 L 78.324219 81.222656 L 100.96875 77.933594 C 103.363281 77.585938 105.433594 76.082031 106.503906 73.910156 L 117.011719 52.625 L 128.976562 74.222656 C 130.089844 76.226562 132.078125 77.601562 134.351562 77.933594 L 157 81.222656 Z M 140.613281 97.199219 " fill-opacity="1" fill-rule="nonzero"/></svg>