<svg xmlns="http://www.w3.org/2000/svg" xmlns:xlink="http://www.w3.org/1999/xlink" width="500" zoomAndPan="magnify" viewBox="0 0 375 374.999991" height="500" preserveAspectRatio="xMidYMid meet" version="1.0"><defs><clipPath id="02da897a67"><path d="M 13.949219 1 L 366 1 L 366 375 L 13.949219 375 Z M 13.949219 1 " clip-rule="nonzero"/></clipPath></defs><g clip-path="url(#02da897a67)"><path fill="#000000" d="M 17.609375 1.503906 C 15.453125 1.503906 13.71875 3.261719 13.71875 5.414062 L 13.71875 372.707031 C 13.71875 374.859375 15.453125 376.613281 17.609375 376.613281 L 284.03125 376.613281 C 286.1875 376.613281 287.941406 374.859375 287.941406 372.707031 L 287.941406 273.007812 L 347.066406 213.917969 C 348.519531 217.46875 347.78125 221.632812 344.851562 224.546875 L 306.683594 262.703125 C 305.148438 264.238281 305.148438 266.710938 306.683594 268.246094 C 308.199219 269.757812 310.695312 269.757812 312.210938 268.222656 L 350.375 230.085938 C 357.253906 223.210938 357.253906 211.945312 350.375 205.066406 L 346.644531 201.339844 L 361.441406 186.546875 C 366.585938 181.40625 366.765625 172.972656 361.640625 167.847656 C 359.089844 165.277344 355.679688 164.039062 352.289062 164.101562 C 348.898438 164.140625 345.507812 165.476562 342.917969 168.046875 L 328.140625 182.839844 L 324.394531 179.09375 C 323.65625 178.355469 322.636719 177.9375 321.582031 177.957031 C 320.5625 177.976562 319.585938 178.375 318.871094 179.09375 L 287.941406 210.011719 L 287.941406 39.742188 C 287.941406 39.621094 287.941406 39.484375 287.921875 39.363281 C 287.882812 38.386719 287.460938 37.488281 286.785156 36.792969 L 252.488281 2.660156 L 252.488281 2.640625 C 252.40625 2.5625 252.308594 2.460938 252.207031 2.382812 C 252.109375 2.304688 251.988281 2.222656 251.890625 2.164062 C 251.890625 2.144531 251.867188 2.144531 251.867188 2.144531 C 251.769531 2.082031 251.648438 2.003906 251.550781 1.964844 C 251.429688 1.90625 251.3125 1.84375 251.191406 1.785156 C 251.152344 1.785156 251.132812 1.765625 251.089844 1.765625 C 251.011719 1.726562 250.910156 1.683594 250.8125 1.664062 C 250.691406 1.625 250.574219 1.605469 250.453125 1.566406 L 250.433594 1.566406 C 250.394531 1.566406 250.355469 1.566406 250.3125 1.566406 C 250.234375 1.546875 250.132812 1.527344 250.054688 1.527344 C 249.933594 1.503906 249.835938 1.503906 249.734375 1.503906 Z M 17.609375 1.503906 " fill-opacity="1" fill-rule="nonzero"/></g><path fill="#f5f5f5" d="M 21.515625 9.320312 L 21.515625 368.800781 L 280.125 368.800781 L 280.125 280.824219 L 240.042969 320.894531 C 240.003906 320.933594 239.964844 320.972656 239.925781 320.992188 L 227.582031 333.332031 C 226.921875 334.429688 225.785156 335.128906 224.511719 335.207031 L 186.464844 347.886719 C 186.445312 347.90625 186.425781 347.90625 186.40625 347.90625 C 186.285156 347.945312 186.164062 347.988281 186.046875 348.007812 C 186.027344 348.007812 186.027344 348.007812 186.027344 348.007812 C 185.765625 348.066406 185.488281 348.085938 185.226562 348.085938 L 92.265625 348.085938 C 87.039062 348.085938 87.039062 340.273438 92.265625 340.273438 L 182.394531 340.273438 L 194.300781 304.625 C 194.460938 303.589844 195.019531 302.671875 195.855469 302.054688 L 208.039062 289.875 C 208.300781 289.515625 208.597656 289.214844 208.9375 288.976562 L 280.125 217.828125 L 280.125 43.570312 L 249.734375 43.570312 C 247.582031 43.570312 245.828125 41.816406 245.828125 39.664062 L 245.828125 9.320312 Z M 40.578125 35.753906 L 123.273438 35.753906 C 125.425781 35.753906 127.179688 37.507812 127.179688 39.664062 L 127.179688 140.675781 C 127.179688 142.828125 125.425781 144.582031 123.273438 144.582031 L 40.578125 144.582031 C 38.425781 144.582031 36.671875 142.828125 36.671875 140.675781 L 36.671875 39.664062 C 36.671875 37.507812 38.425781 35.753906 40.578125 35.753906 Z M 150.832031 44.945312 L 215.136719 44.945312 C 217.3125 44.925781 219.066406 46.679688 219.066406 48.851562 C 219.066406 51.027344 217.3125 52.78125 215.136719 52.761719 L 150.832031 52.761719 C 148.65625 52.78125 146.882812 51.027344 146.882812 48.851562 C 146.882812 46.679688 148.65625 44.925781 150.832031 44.945312 Z M 150.832031 72.476562 L 251.890625 72.476562 C 254.0625 72.457031 255.835938 74.210938 255.835938 76.382812 C 255.835938 78.578125 254.0625 80.332031 251.890625 80.292969 L 150.832031 80.292969 C 148.65625 80.332031 146.882812 78.578125 146.882812 76.382812 C 146.882812 74.210938 148.65625 72.457031 150.832031 72.476562 Z M 150.832031 100.027344 L 251.890625 100.027344 C 254.042969 100.027344 255.796875 101.78125 255.796875 103.933594 C 255.796875 106.109375 254.042969 107.84375 251.890625 107.84375 L 150.832031 107.84375 C 145.625 107.84375 145.625 100.046875 150.832031 100.027344 Z M 251.890625 127.578125 C 254.082031 127.539062 255.898438 129.292969 255.898438 131.484375 C 255.878906 133.699219 254.082031 135.453125 251.890625 135.394531 L 150.832031 135.394531 C 148.617188 135.453125 146.800781 133.699219 146.800781 131.484375 C 146.800781 129.273438 148.617188 127.519531 150.832031 127.578125 Z M 40.578125 159.714844 L 251.890625 159.714844 C 254.042969 159.714844 255.777344 161.46875 255.777344 163.621094 L 255.777344 191.171875 C 255.777344 193.328125 254.042969 195.082031 251.890625 195.082031 L 40.578125 195.082031 C 38.425781 195.082031 36.671875 193.328125 36.671875 191.171875 L 36.671875 163.621094 C 36.671875 161.46875 38.425781 159.714844 40.578125 159.714844 Z M 40.578125 214.816406 L 237.171875 214.816406 C 242.335938 214.855469 242.335938 222.570312 237.171875 222.632812 L 40.578125 222.632812 C 35.414062 222.570312 35.414062 214.855469 40.578125 214.816406 Z M 40.578125 239.277344 L 237.171875 239.277344 C 242.378906 239.277344 242.378906 247.074219 237.171875 247.09375 L 40.578125 247.09375 C 38.425781 247.09375 36.671875 245.339844 36.671875 243.183594 C 36.671875 241.011719 38.425781 239.277344 40.578125 239.277344 Z M 40.578125 262.222656 L 68.15625 262.222656 C 70.3125 262.222656 72.066406 263.976562 72.046875 266.132812 L 72.046875 293.683594 C 72.046875 295.835938 70.3125 297.589844 68.15625 297.589844 L 40.578125 297.589844 C 38.425781 297.589844 36.671875 295.835938 36.671875 293.683594 L 36.671875 266.132812 C 36.671875 263.976562 38.425781 262.222656 40.578125 262.222656 Z M 150.871094 271.414062 C 153.0625 271.375 154.859375 273.148438 154.859375 275.339844 C 154.839844 277.535156 153.023438 279.289062 150.832031 279.230469 L 92.265625 279.230469 C 90.050781 279.289062 88.238281 277.515625 88.238281 275.320312 C 88.238281 273.109375 90.050781 271.335938 92.265625 271.414062 L 150.832031 271.414062 C 150.851562 271.414062 150.851562 271.414062 150.871094 271.414062 Z M 185.269531 289.773438 C 187.460938 289.734375 189.257812 291.507812 189.234375 293.703125 C 189.234375 295.894531 187.421875 297.648438 185.226562 297.589844 L 92.265625 297.589844 C 90.050781 297.667969 88.238281 295.894531 88.238281 293.683594 C 88.238281 291.46875 90.050781 289.714844 92.265625 289.773438 L 185.226562 289.773438 C 185.226562 289.773438 185.246094 289.773438 185.269531 289.773438 Z M 40.578125 312.742188 L 68.15625 312.742188 C 70.3125 312.742188 72.046875 314.476562 72.046875 316.648438 L 72.046875 344.179688 C 72.066406 346.351562 70.3125 348.085938 68.15625 348.085938 L 40.578125 348.085938 C 38.425781 348.085938 36.671875 346.351562 36.671875 344.179688 L 36.671875 316.648438 C 36.671875 314.476562 38.425781 312.742188 40.578125 312.742188 Z M 92.265625 321.910156 L 150.832031 321.910156 C 155.996094 321.949219 155.996094 329.6875 150.832031 329.726562 L 92.265625 329.726562 C 87.101562 329.6875 87.101562 321.949219 92.265625 321.910156 Z M 92.265625 321.910156 " fill-opacity="1" fill-rule="nonzero"/><path fill="#9e9e9e" d="M 253.644531 14.84375 L 274.582031 35.753906 L 253.644531 35.753906 Z M 253.644531 14.84375 " fill-opacity="1" fill-rule="nonzero"/><path fill="#00a8cc" d="M 44.488281 43.570312 L 44.488281 121.238281 C 52.644531 109.277344 66.382812 101.421875 81.917969 101.421875 C 97.46875 101.421875 111.207031 109.277344 119.363281 121.238281 L 119.363281 43.570312 Z M 81.917969 58.023438 C 91.648438 58.023438 99.601562 65.996094 99.601562 75.707031 C 99.601562 85.433594 91.648438 93.390625 81.917969 93.390625 C 72.207031 93.390625 64.230469 85.433594 64.230469 75.707031 C 64.230469 65.996094 72.207031 58.023438 81.917969 58.023438 Z M 44.488281 187.265625 L 247.960938 187.265625 L 247.960938 167.53125 L 44.488281 167.53125 Z M 200.582031 310.488281 L 191.410156 338 L 218.925781 328.828125 C 217.191406 325.4375 214.539062 321.75 211.109375 318.324219 C 207.679688 314.894531 203.972656 312.242188 200.582031 310.488281 Z M 44.488281 340.273438 L 64.230469 340.273438 L 64.230469 320.554688 L 44.488281 320.554688 Z M 44.488281 340.273438 " fill-opacity="1" fill-rule="nonzero"/><path fill="#ffccbc" d="M 81.917969 65.839844 C 87.417969 65.839844 91.804688 70.222656 91.804688 75.707031 C 91.804688 81.207031 87.417969 85.574219 81.917969 85.574219 C 76.433594 85.574219 72.046875 81.207031 72.046875 75.707031 C 72.046875 70.222656 76.433594 65.839844 81.917969 65.839844 Z M 81.917969 65.839844 " fill-opacity="1" fill-rule="nonzero"/><path fill="#ffa41b" d="M 81.917969 109.21875 C 64.628906 109.21875 50.152344 120.898438 45.824219 136.769531 L 118.027344 136.769531 C 113.703125 120.898438 99.222656 109.21875 81.917969 109.21875 Z M 321.640625 187.386719 L 287.324219 221.675781 C 287.023438 222.152344 286.605469 222.570312 286.125 222.890625 L 218.070312 290.910156 C 221.019531 292.503906 223.972656 294.578125 226.84375 297.050781 C 231.371094 292.546875 236.773438 287.125 240.78125 283.117188 C 241.5 282.378906 242.457031 281.960938 243.472656 281.941406 C 247.042969 281.820312 248.878906 286.167969 246.324219 288.636719 C 242.316406 292.644531 236.894531 298.066406 232.367188 302.59375 C 234.859375 305.445312 236.914062 308.394531 238.527344 311.34375 L 280.742188 269.160156 C 281.042969 268.683594 281.441406 268.285156 281.917969 267.964844 L 342.078125 207.839844 Z M 260.265625 265.152344 C 263.832031 265.054688 265.667969 269.378906 263.117188 271.851562 L 258.328125 276.636719 C 254.640625 280.304688 249.136719 274.78125 252.804688 271.113281 L 257.570312 266.332031 C 258.289062 265.613281 259.246094 265.175781 260.265625 265.152344 Z M 44.488281 289.773438 L 64.230469 289.773438 L 64.230469 270.039062 L 44.488281 270.039062 Z M 44.488281 289.773438 " fill-opacity="1" fill-rule="nonzero"/><path fill="#005082" d="M 352.347656 171.855469 C 350.992188 171.875 349.597656 172.433594 348.460938 173.570312 L 333.664062 188.363281 L 341.121094 195.816406 L 355.917969 181.027344 C 358.191406 178.753906 358.191406 175.445312 356.117188 173.371094 C 355.082031 172.332031 353.726562 171.816406 352.347656 171.855469 Z M 212.226562 296.753906 L 204.988281 303.988281 C 208.957031 306.121094 212.925781 309.09375 216.632812 312.800781 C 220.34375 316.488281 223.292969 320.457031 225.449219 324.421875 L 232.6875 317.1875 C 230.992188 313.4375 228.101562 309.171875 224.171875 305.246094 C 220.261719 301.316406 215.996094 298.425781 212.226562 296.753906 Z M 212.226562 296.753906 " fill-opacity="1" fill-rule="nonzero"/></svg>