<svg xmlns="http://www.w3.org/2000/svg" xmlns:xlink="http://www.w3.org/1999/xlink" width="500" zoomAndPan="magnify" viewBox="0 0 375 374.999991" height="500" preserveAspectRatio="xMidYMid meet" version="1.0"><path fill="#ef7385" d="M 120.988281 320.867188 L 133.027344 369.023438 L 96.910156 369.023438 L 108.949219 320.867188 Z M 120.988281 320.867188 " fill-opacity="1" fill-rule="nonzero"/><path fill="#ed5565" d="M 129.414062 304.015625 L 120.988281 320.867188 L 108.949219 320.867188 L 100.523438 304.015625 L 114.96875 296.792969 Z M 129.414062 304.015625 " fill-opacity="1" fill-rule="nonzero"/><path fill="#fcd770" d="M 163.121094 369.023438 L 133.027344 369.023438 L 120.988281 320.867188 L 129.414062 304.015625 L 139.046875 308.832031 L 150.601562 274.160156 C 179.914062 283.066406 200.984375 309.191406 203.210938 340.128906 L 205.257812 369.023438 Z M 163.121094 369.023438 " fill-opacity="1" fill-rule="nonzero"/><path fill="#fcd770" d="M 66.8125 369.023438 L 24.679688 369.023438 L 26.726562 340.128906 C 27.929688 323.699219 34.429688 308.648438 44.601562 296.792969 C 53.632812 286.316406 65.609375 278.371094 79.332031 274.160156 L 90.890625 308.832031 L 100.523438 304.015625 L 108.949219 320.867188 L 96.910156 369.023438 Z M 66.8125 369.023438 " fill-opacity="1" fill-rule="nonzero"/><path fill="#ffc729" d="M 145.0625 272.714844 C 146.929688 273.136719 148.796875 273.617188 150.601562 274.160156 L 139.046875 308.832031 L 114.96875 296.792969 L 90.890625 308.832031 L 79.332031 274.160156 C 81.140625 273.617188 83.003906 273.136719 84.871094 272.714844 L 114.96875 290.773438 Z M 145.0625 272.714844 " fill-opacity="1" fill-rule="nonzero"/><path fill="#b27946" d="M 30.699219 137.882812 L 30.699219 152.328125 L 24.679688 152.328125 C 22.089844 152.328125 19.621094 152.871094 17.394531 153.894531 L 9.8125 127.347656 C 7.703125 119.945312 6.621094 112.300781 6.621094 104.597656 C 6.621094 92.378906 11.074219 81.0625 18.597656 72.453125 C 26.125 63.785156 36.65625 57.707031 48.757812 56.019531 C 55.917969 34.472656 76.144531 19.90625 98.835938 19.90625 L 143.019531 19.90625 C 164.265625 19.90625 185.273438 15.871094 205.015625 7.988281 L 205.257812 7.867188 L 214.105469 34.472656 C 220.183594 52.710938 223.316406 71.851562 223.316406 91.113281 C 223.316406 94.726562 223.195312 98.398438 222.953125 102.007812 C 211.035156 105.078125 199.777344 109.894531 189.425781 116.214844 L 104.855469 116.214844 C 92.335938 116.214844 80.539062 111.757812 71.328125 104.175781 L 45.023438 115.851562 C 36.296875 119.765625 30.699219 128.371094 30.699219 137.882812 Z M 30.699219 137.882812 " fill-opacity="1" fill-rule="nonzero"/><path fill="#f0d0b4" d="M 114.96875 260.675781 C 116.171875 260.675781 117.316406 260.675781 141.03125 256.523438 L 141.03125 256.582031 L 145.0625 272.714844 L 114.96875 290.773438 L 84.871094 272.714844 L 88.90625 256.582031 L 88.90625 256.523438 C 97.089844 259.230469 105.878906 260.675781 114.96875 260.675781 Z M 114.96875 260.675781 " fill-opacity="1" fill-rule="nonzero"/><path fill="#f0d0b4" d="M 142.355469 183.628906 C 151.023438 202.347656 164.023438 218.179688 179.914062 230.097656 C 172.152344 239.429688 162.460938 247.074219 151.445312 252.371094 C 148.074219 253.996094 144.644531 255.378906 141.03125 256.523438 C 117.316406 260.675781 116.171875 260.675781 114.96875 260.675781 C 105.878906 260.675781 97.089844 259.230469 88.90625 256.523438 C 58.808594 246.773438 36.175781 220.527344 31.539062 188.445312 C 31 184.53125 30.699219 180.5 30.699219 176.40625 L 30.699219 137.882812 C 30.699219 128.371094 36.296875 119.765625 45.023438 115.851562 L 71.328125 104.175781 C 80.539062 111.757812 92.335938 116.214844 104.855469 116.214844 L 189.425781 116.214844 C 169.261719 128.613281 152.648438 146.851562 142.355469 169.183594 L 139.046875 176.40625 Z M 142.355469 183.628906 " fill-opacity="1" fill-rule="nonzero"/><path fill="#f0d0b4" d="M 17.394531 153.894531 C 19.621094 152.871094 22.089844 152.328125 24.679688 152.328125 L 30.699219 152.328125 L 30.699219 176.40625 C 30.699219 180.5 31 184.53125 31.539062 188.445312 L 24.679688 188.445312 C 14.6875 188.445312 6.621094 180.378906 6.621094 170.386719 C 6.621094 165.390625 8.667969 160.875 11.917969 157.625 C 13.484375 156.0625 15.347656 154.796875 17.394531 153.894531 Z M 17.394531 153.894531 " fill-opacity="1" fill-rule="nonzero"/><path fill="#d3a06c" d="M 90.890625 164.367188 C 90.890625 165.160156 90.8125 165.941406 90.660156 166.714844 C 90.503906 167.492188 90.277344 168.246094 89.972656 168.976562 C 89.671875 169.707031 89.300781 170.398438 88.863281 171.054688 C 88.421875 171.714844 87.921875 172.320312 87.363281 172.878906 C 86.804688 173.4375 86.199219 173.9375 85.539062 174.378906 C 84.882812 174.816406 84.191406 175.1875 83.460938 175.488281 C 82.730469 175.792969 81.976562 176.019531 81.199219 176.175781 C 80.425781 176.328125 79.644531 176.40625 78.851562 176.40625 C 78.0625 176.40625 77.277344 176.328125 76.503906 176.175781 C 75.726562 176.019531 74.976562 175.792969 74.246094 175.488281 C 73.515625 175.1875 72.820312 174.816406 72.164062 174.378906 C 71.507812 173.9375 70.898438 173.4375 70.339844 172.878906 C 69.78125 172.320312 69.28125 171.714844 68.84375 171.054688 C 68.402344 170.398438 68.03125 169.707031 67.730469 168.976562 C 67.425781 168.246094 67.199219 167.492188 67.046875 166.714844 C 66.890625 165.941406 66.8125 165.160156 66.8125 164.367188 C 66.8125 163.578125 66.890625 162.792969 67.046875 162.019531 C 67.199219 161.242188 67.425781 160.492188 67.730469 159.761719 C 68.03125 159.03125 68.402344 158.335938 68.84375 157.679688 C 69.28125 157.023438 69.78125 156.414062 70.339844 155.855469 C 70.898438 155.296875 71.507812 154.796875 72.164062 154.359375 C 72.820312 153.917969 73.515625 153.546875 74.246094 153.246094 C 74.976562 152.941406 75.726562 152.714844 76.503906 152.5625 C 77.277344 152.40625 78.0625 152.328125 78.851562 152.328125 C 79.644531 152.328125 80.425781 152.40625 81.199219 152.5625 C 81.976562 152.714844 82.730469 152.941406 83.460938 153.246094 C 84.191406 153.546875 84.882812 153.917969 85.539062 154.359375 C 86.199219 154.796875 86.804688 155.296875 87.363281 155.855469 C 87.921875 156.414062 88.421875 157.023438 88.863281 157.679688 C 89.300781 158.335938 89.671875 159.03125 89.972656 159.761719 C 90.277344 160.492188 90.503906 161.242188 90.660156 162.019531 C 90.8125 162.792969 90.890625 163.578125 90.890625 164.367188 Z M 90.890625 164.367188 " fill-opacity="1" fill-rule="nonzero"/><path fill="#e6e9ed" d="M 364.464844 169.183594 L 367.777344 176.40625 L 364.464844 183.628906 C 344.480469 226.90625 301.082031 254.65625 253.410156 254.65625 C 296.628906 254.65625 331.660156 219.625 331.660156 176.40625 C 331.660156 133.1875 296.628906 98.15625 253.410156 98.15625 C 277.246094 98.15625 300 105.078125 319.320312 117.417969 C 338.644531 129.816406 354.472656 147.515625 364.464844 169.183594 Z M 364.464844 169.183594 " fill-opacity="1" fill-rule="nonzero"/><path fill="#e6e9ed" d="M 175.160156 176.40625 C 175.160156 219.625 210.191406 254.65625 253.410156 254.65625 C 226.382812 254.65625 200.742188 245.75 179.914062 230.097656 C 164.023438 218.179688 151.023438 202.347656 142.355469 183.628906 L 139.046875 176.40625 L 142.355469 169.183594 C 152.648438 146.851562 169.261719 128.613281 189.425781 116.214844 C 199.777344 109.894531 211.035156 105.078125 222.953125 102.007812 C 232.765625 99.480469 242.996094 98.15625 253.410156 98.15625 C 210.191406 98.15625 175.160156 133.1875 175.160156 176.40625 Z M 175.160156 176.40625 " fill-opacity="1" fill-rule="nonzero"/><path fill="#69d6f4" d="M 253.410156 98.15625 C 296.628906 98.15625 331.660156 133.1875 331.660156 176.40625 C 331.660156 219.625 296.628906 254.65625 253.410156 254.65625 C 210.191406 254.65625 175.160156 219.625 175.160156 176.40625 C 175.160156 133.1875 210.191406 98.15625 253.410156 98.15625 Z M 253.410156 98.15625 " fill-opacity="1" fill-rule="nonzero"/><path fill="#4fc1e9" d="M 253.410156 128.253906 C 280.015625 128.253906 301.566406 149.800781 301.566406 176.40625 C 301.566406 203.011719 280.015625 224.5625 253.410156 224.5625 C 226.804688 224.5625 205.257812 203.011719 205.257812 176.40625 C 205.257812 149.800781 226.804688 128.253906 253.410156 128.253906 Z M 253.410156 128.253906 " fill-opacity="1" fill-rule="nonzero"/><path fill="#3bafda" d="M 271.46875 176.40625 C 271.46875 176.996094 271.441406 177.589844 271.382812 178.175781 C 271.324219 178.765625 271.238281 179.347656 271.121094 179.929688 C 271.007812 180.507812 270.863281 181.082031 270.691406 181.648438 C 270.519531 182.214844 270.320312 182.769531 270.09375 183.316406 C 269.867188 183.863281 269.617188 184.398438 269.335938 184.917969 C 269.058594 185.441406 268.753906 185.945312 268.425781 186.4375 C 268.097656 186.929688 267.746094 187.40625 267.371094 187.863281 C 266.996094 188.320312 266.597656 188.757812 266.179688 189.175781 C 265.761719 189.59375 265.324219 189.988281 264.867188 190.367188 C 264.410156 190.742188 263.933594 191.09375 263.441406 191.421875 C 262.953125 191.75 262.445312 192.054688 261.921875 192.332031 C 261.402344 192.609375 260.867188 192.863281 260.320312 193.089844 C 259.773438 193.316406 259.21875 193.515625 258.652344 193.6875 C 258.085938 193.859375 257.515625 194 256.933594 194.117188 C 256.355469 194.234375 255.769531 194.320312 255.179688 194.378906 C 254.59375 194.433594 254.003906 194.464844 253.410156 194.464844 C 252.820312 194.464844 252.230469 194.433594 251.640625 194.378906 C 251.050781 194.320312 250.46875 194.234375 249.886719 194.117188 C 249.308594 194 248.734375 193.859375 248.167969 193.6875 C 247.601562 193.515625 247.046875 193.316406 246.5 193.089844 C 245.953125 192.863281 245.421875 192.609375 244.898438 192.332031 C 244.375 192.054688 243.871094 191.75 243.378906 191.421875 C 242.886719 191.09375 242.414062 190.742188 241.957031 190.367188 C 241.496094 189.988281 241.058594 189.59375 240.640625 189.175781 C 240.222656 188.757812 239.828125 188.320312 239.453125 187.863281 C 239.078125 187.40625 238.726562 186.929688 238.394531 186.4375 C 238.066406 185.945312 237.765625 185.441406 237.484375 184.917969 C 237.207031 184.398438 236.953125 183.863281 236.726562 183.316406 C 236.5 182.769531 236.300781 182.214844 236.128906 181.648438 C 235.960938 181.082031 235.816406 180.507812 235.699219 179.929688 C 235.585938 179.347656 235.5 178.765625 235.441406 178.175781 C 235.382812 177.585938 235.351562 176.996094 235.351562 176.40625 C 235.351562 175.816406 235.382812 175.226562 235.441406 174.636719 C 235.5 174.046875 235.585938 173.464844 235.699219 172.882812 C 235.816406 172.304688 235.960938 171.730469 236.128906 171.164062 C 236.300781 170.597656 236.5 170.042969 236.726562 169.496094 C 236.953125 168.949219 237.207031 168.414062 237.484375 167.894531 C 237.765625 167.371094 238.066406 166.867188 238.394531 166.375 C 238.726562 165.882812 239.078125 165.40625 239.453125 164.949219 C 239.828125 164.492188 240.222656 164.054688 240.640625 163.636719 C 241.058594 163.21875 241.496094 162.824219 241.957031 162.449219 C 242.414062 162.074219 242.886719 161.71875 243.378906 161.390625 C 243.871094 161.0625 244.375 160.757812 244.898438 160.480469 C 245.421875 160.203125 245.953125 159.949219 246.5 159.722656 C 247.046875 159.496094 247.601562 159.296875 248.167969 159.125 C 248.734375 158.953125 249.308594 158.8125 249.886719 158.695312 C 250.46875 158.582031 251.050781 158.492188 251.640625 158.4375 C 252.230469 158.378906 252.820312 158.347656 253.410156 158.347656 C 254.003906 158.347656 254.59375 158.378906 255.179688 158.4375 C 255.769531 158.492188 256.355469 158.582031 256.933594 158.695312 C 257.515625 158.8125 258.085938 158.953125 258.652344 159.125 C 259.21875 159.296875 259.773438 159.496094 260.320312 159.722656 C 260.867188 159.949219 261.402344 160.203125 261.921875 160.480469 C 262.445312 160.757812 262.953125 161.0625 263.441406 161.390625 C 263.933594 161.71875 264.410156 162.074219 264.867188 162.449219 C 265.324219 162.824219 265.761719 163.21875 266.179688 163.636719 C 266.597656 164.054688 266.996094 164.492188 267.371094 164.949219 C 267.746094 165.40625 268.097656 165.882812 268.425781 166.375 C 268.753906 166.867188 269.058594 167.371094 269.335938 167.894531 C 269.613281 168.414062 269.867188 168.949219 270.09375 169.496094 C 270.320312 170.042969 270.519531 170.597656 270.691406 171.164062 C 270.863281 171.730469 271.007812 172.304688 271.121094 172.882812 C 271.238281 173.464844 271.324219 174.046875 271.382812 174.636719 C 271.441406 175.226562 271.46875 175.816406 271.46875 176.40625 Z M 271.46875 176.40625 " fill-opacity="1" fill-rule="nonzero"/><path fill="#000000" d="M 369.917969 166.679688 C 349.019531 121.394531 303.292969 92.136719 253.410156 92.136719 C 245.199219 92.136719 237.121094 93.003906 229.230469 94.53125 C 229.25 93.390625 229.332031 92.257812 229.332031 91.121094 C 229.332031 71.171875 226.136719 51.464844 219.828125 32.550781 L 210.96875 5.960938 L 208.710938 0 L 202.789062 2.371094 C 183.683594 10.015625 163.566406 13.886719 143 13.886719 L 98.867188 13.886719 C 74.722656 13.886719 53.234375 28.539062 44.300781 50.699219 C 19.148438 56.039062 0.601562 78.59375 0.601562 104.601562 C 0.601562 112.867188 1.75 121.082031 4.019531 129.027344 L 10.339844 151.15625 C 4.464844 155.542969 0.601562 162.496094 0.601562 170.386719 C 0.601562 183.664062 11.402344 194.464844 24.679688 194.464844 L 26.496094 194.464844 C 32.628906 224.554688 53.804688 249.183594 81.773438 260.289062 L 79.910156 267.742188 C 47.28125 276.644531 23.167969 305.710938 20.742188 339.679688 L 18.214844 375.042969 L 211.722656 375.042969 L 209.195312 339.679688 C 206.769531 305.707031 182.65625 276.640625 150.023438 267.742188 L 148.152344 260.261719 C 160.449219 255.398438 171.585938 247.855469 180.8125 237.988281 C 201.820312 252.417969 227.011719 260.683594 253.410156 260.683594 C 303.292969 260.683594 349.019531 231.421875 369.914062 186.132812 L 374.402344 176.414062 Z M 147.832031 181.082031 L 145.679688 176.40625 L 147.839844 171.730469 C 156.519531 152.917969 169.964844 137.210938 186.300781 125.652344 C 175.582031 139.785156 169.140625 157.335938 169.140625 176.40625 C 169.140625 195.476562 175.582031 213.023438 186.300781 227.160156 C 169.964844 215.605469 156.511719 199.894531 147.832031 181.082031 Z M 230.1875 182.425781 C 232.378906 190.847656 238.96875 197.4375 247.390625 199.628906 L 247.390625 218.058594 C 228.980469 215.40625 214.414062 200.839844 211.757812 182.425781 Z M 253.410156 188.445312 C 246.773438 188.445312 241.371094 183.046875 241.371094 176.40625 C 241.371094 169.765625 246.773438 164.367188 253.410156 164.367188 C 260.050781 164.367188 265.449219 169.765625 265.449219 176.40625 C 265.449219 183.046875 260.050781 188.445312 253.410156 188.445312 Z M 247.390625 153.183594 C 238.972656 155.375 232.378906 161.964844 230.1875 170.386719 L 211.757812 170.386719 C 214.414062 151.972656 228.980469 137.40625 247.390625 134.753906 Z M 199.59375 170.386719 L 181.488281 170.386719 C 184.398438 135.359375 212.367188 107.390625 247.390625 104.480469 L 247.390625 122.589844 C 222.328125 125.375 202.378906 145.316406 199.59375 170.386719 Z M 199.59375 182.425781 C 202.378906 207.496094 222.328125 227.4375 247.390625 230.226562 L 247.390625 248.332031 C 212.367188 245.421875 184.394531 217.453125 181.488281 182.425781 Z M 259.429688 199.628906 C 267.851562 197.4375 274.441406 190.847656 276.632812 182.425781 L 295.0625 182.425781 C 292.410156 200.839844 277.84375 215.40625 259.429688 218.058594 Z M 276.632812 170.386719 C 274.441406 161.964844 267.851562 155.375 259.429688 153.183594 L 259.429688 134.753906 C 277.84375 137.40625 292.410156 151.972656 295.0625 170.386719 Z M 259.429688 248.332031 L 259.429688 230.226562 C 284.496094 227.4375 304.441406 207.496094 307.230469 182.425781 L 325.335938 182.425781 C 322.429688 217.453125 294.457031 245.421875 259.429688 248.332031 Z M 307.230469 170.386719 C 304.441406 145.316406 284.496094 125.375 259.429688 122.589844 L 259.429688 104.480469 C 294.457031 107.390625 322.429688 135.359375 325.335938 170.386719 Z M 24.679688 182.425781 C 18.039062 182.425781 12.640625 177.027344 12.640625 170.386719 C 12.640625 163.746094 18.039062 158.347656 24.679688 158.347656 L 24.679688 176.40625 C 24.679688 178.441406 24.855469 180.425781 24.984375 182.425781 Z M 24.679688 137.878906 L 24.679688 146.304688 C 23.613281 146.304688 22.597656 146.484375 21.566406 146.617188 L 15.597656 125.71875 C 13.640625 118.851562 12.640625 111.746094 12.640625 104.601562 C 12.640625 83.320312 28.53125 64.988281 49.609375 61.980469 L 53.292969 61.449219 L 54.46875 57.921875 C 60.847656 38.78125 78.691406 25.925781 98.867188 25.925781 L 143 25.925781 C 162.996094 25.925781 182.601562 22.519531 201.53125 15.722656 L 208.410156 36.363281 C 214.304688 54.039062 217.296875 72.464844 217.296875 91.121094 C 217.296875 93.21875 217.179688 95.316406 217.101562 97.414062 C 210.359375 99.414062 203.84375 102.027344 197.550781 105.078125 C 193.171875 89.976562 180.234375 78.425781 164.097656 76.414062 L 145.804688 74.128906 L 144.3125 86.070312 L 162.605469 88.355469 C 174.527344 89.847656 183.980469 98.753906 186.496094 110.195312 L 104.886719 110.195312 C 84.710938 110.195312 66.867188 97.332031 60.488281 78.195312 L 49.070312 82.007812 C 51.621094 89.664062 55.640625 96.507812 60.742188 102.296875 L 42.5625 110.382812 C 31.699219 115.203125 24.679688 125.996094 24.679688 137.878906 Z M 141.734375 281.730469 L 135.53125 300.34375 L 121.992188 293.578125 Z M 113.648438 326.886719 L 116.285156 326.886719 L 125.316406 363.003906 L 104.621094 363.003906 Z M 117.265625 314.847656 L 112.667969 314.847656 L 108.597656 306.707031 L 114.96875 303.519531 L 121.335938 306.707031 Z M 94.40625 300.335938 L 88.199219 281.726562 L 107.9375 293.566406 Z M 32.75 340.535156 C 34.621094 314.3125 51.6875 291.53125 75.566406 281.886719 L 87.375 317.316406 L 97.832031 312.09375 L 102.566406 321.574219 L 92.210938 363.003906 L 72.832031 363.003906 L 72.832031 329.378906 C 72.832031 322.285156 70.070312 315.613281 65.054688 310.59375 L 56.539062 319.105469 C 59.285156 321.851562 60.792969 325.496094 60.792969 329.378906 L 60.792969 363.003906 L 31.144531 363.003906 Z M 197.183594 340.535156 L 198.792969 362.996094 L 169.140625 362.996094 L 169.140625 329.375 C 169.140625 325.492188 170.652344 321.84375 173.402344 319.097656 L 164.878906 310.59375 C 159.867188 315.613281 157.101562 322.285156 157.101562 329.378906 L 157.101562 363.003906 L 137.726562 363.003906 L 127.367188 321.574219 L 132.105469 312.09375 L 142.558594 317.316406 L 154.371094 281.886719 C 178.253906 291.53125 195.3125 314.3125 197.183594 340.535156 Z M 138.140625 269.84375 L 114.96875 283.753906 L 91.792969 269.847656 L 93.269531 263.949219 C 100.234375 265.679688 107.480469 266.695312 114.96875 266.695312 C 122.382812 266.695312 129.644531 265.714844 136.671875 263.976562 Z M 114.96875 254.65625 C 71.820312 254.65625 36.71875 219.550781 36.71875 176.40625 L 36.71875 137.882812 C 36.71875 130.75 40.925781 124.273438 47.445312 121.382812 L 70.472656 111.144531 C 80.253906 118.195312 92.203125 122.234375 104.886719 122.234375 L 171.007812 122.234375 C 156.746094 134.167969 144.96875 149.21875 136.90625 166.683594 L 132.417969 176.40625 L 136.90625 186.128906 C 144.996094 203.65625 156.835938 218.746094 171.175781 230.707031 C 156.453125 245.945312 136.332031 254.65625 114.96875 254.65625 Z M 358.988281 181.082031 C 350.308594 199.894531 336.863281 215.605469 320.527344 227.160156 C 331.238281 213.023438 337.679688 195.46875 337.679688 176.40625 C 337.679688 157.335938 331.238281 139.792969 320.519531 125.652344 C 336.855469 137.203125 350.304688 152.914062 358.988281 171.730469 L 361.144531 176.40625 Z M 358.988281 181.082031 " fill-opacity="1" fill-rule="nonzero"/><path fill="#000000" d="M 78.851562 146.308594 C 68.894531 146.308594 60.792969 154.414062 60.792969 164.367188 C 60.792969 174.324219 68.894531 182.425781 78.851562 182.425781 C 88.808594 182.425781 96.910156 174.324219 96.910156 164.367188 C 96.910156 154.414062 88.808594 146.308594 78.851562 146.308594 Z M 78.851562 170.386719 C 75.535156 170.386719 72.832031 167.691406 72.832031 164.367188 C 72.832031 161.046875 75.535156 158.347656 78.851562 158.347656 C 82.167969 158.347656 84.871094 161.046875 84.871094 164.367188 C 84.871094 167.691406 82.167969 170.386719 78.851562 170.386719 Z M 78.851562 170.386719 " fill-opacity="1" fill-rule="nonzero"/><path fill="#000000" d="M 125.585938 218.542969 L 96.910156 218.542969 L 96.910156 230.578125 L 125.585938 230.578125 C 136.179688 230.578125 145.707031 224.6875 150.445312 215.210938 L 139.675781 209.824219 C 136.992188 215.199219 131.59375 218.542969 125.585938 218.542969 Z M 125.585938 218.542969 " fill-opacity="1" fill-rule="nonzero"/></svg>