<svg xmlns="http://www.w3.org/2000/svg" xmlns:xlink="http://www.w3.org/1999/xlink" width="500" zoomAndPan="magnify" viewBox="0 0 375 374.999991" height="500" preserveAspectRatio="xMidYMid meet" version="1.0"><path fill="#dfb28b" d="M 332.660156 272.175781 L 368.953125 272.175781 L 368.953125 368.953125 L 332.660156 368.953125 Z M 332.660156 272.175781 " fill-opacity="1" fill-rule="nonzero"/><path fill="#dfb28b" d="M 6.046875 272.175781 L 42.339844 272.175781 L 42.339844 368.953125 L 6.046875 368.953125 Z M 6.046875 272.175781 " fill-opacity="1" fill-rule="nonzero"/><path fill="#dfb28b" d="M 90.726562 308.46875 L 42.339844 308.46875 L 42.339844 272.175781 L 332.660156 272.175781 L 332.660156 308.46875 Z M 90.726562 308.46875 " fill-opacity="1" fill-rule="nonzero"/><path fill="#aab2bd" d="M 332.660156 308.46875 L 332.660156 368.953125 L 296.371094 368.953125 L 296.371094 332.660156 L 78.628906 332.660156 L 78.628906 368.953125 L 42.339844 368.953125 L 42.339844 308.46875 Z M 332.660156 308.46875 " fill-opacity="1" fill-rule="nonzero"/><path fill="#d3a06c" d="M 6.046875 247.984375 L 368.953125 247.984375 L 368.953125 272.175781 L 6.046875 272.175781 Z M 6.046875 247.984375 " fill-opacity="1" fill-rule="nonzero"/><path fill="#ccd1d9" d="M 78.628906 332.660156 L 296.371094 332.660156 L 296.371094 368.953125 L 78.628906 368.953125 Z M 78.628906 332.660156 " fill-opacity="1" fill-rule="nonzero"/><path fill="#b27946" d="M 229.839844 60.484375 C 229.839844 63.824219 228.484375 66.851562 226.300781 69.042969 C 224.109375 71.226562 221.082031 72.582031 217.742188 72.582031 C 202.734375 72.582031 188.824219 64.703125 181.105469 51.835938 L 178.382812 47.296875 C 177.460938 45.757812 176.160156 44.515625 174.65625 43.660156 C 173.144531 42.808594 171.410156 42.339844 169.621094 42.339844 C 165.75 42.339844 162.210938 44.523438 160.488281 47.988281 L 157.257812 54.433594 L 154.40625 54.433594 C 149.160156 54.433594 144.761719 58.414062 144.238281 63.636719 L 143.347656 72.582031 L 133.066406 72.582031 C 127.914062 72.582031 123.257812 74.726562 119.960938 78.183594 C 116.695312 71.453125 114.917969 63.976562 114.917969 56.25 L 114.917969 49.371094 C 114.917969 37.945312 122.230469 27.808594 133.066406 24.195312 C 136.84375 18.523438 141.910156 13.988281 147.738281 10.871094 C 153.570312 7.75 160.152344 6.046875 166.964844 6.046875 L 209.878906 6.046875 C 237.601562 6.046875 260.082031 28.527344 260.082031 56.25 C 260.082031 60.105469 259.632812 63.910156 258.789062 67.582031 C 257.933594 71.257812 256.679688 74.804688 255.046875 78.167969 C 251.75 74.726562 247.097656 72.582031 241.957031 72.582031 L 231.183594 72.582031 Z M 229.839844 60.484375 " fill-opacity="1" fill-rule="nonzero"/><path fill="#fcd770" d="M 278.226562 211.695312 L 278.226562 235.886719 C 278.226562 242.570312 283.640625 247.984375 290.324219 247.984375 L 241.933594 247.984375 L 241.933594 172.386719 C 253.351562 175.328125 262.9375 182.207031 269.378906 191.347656 C 267.363281 193.511719 266.128906 196.40625 266.128906 199.597656 C 266.128906 202.9375 267.480469 205.960938 269.667969 208.15625 C 271.859375 210.339844 274.882812 211.695312 278.226562 211.695312 Z M 278.226562 211.695312 " fill-opacity="1" fill-rule="nonzero"/><path fill="#fcd770" d="M 133.066406 172.386719 L 133.066406 247.984375 L 84.675781 247.984375 C 91.359375 247.984375 96.773438 242.570312 96.773438 235.886719 L 96.773438 211.695312 C 100.117188 211.695312 103.140625 210.339844 105.332031 208.15625 C 107.519531 205.960938 108.871094 202.9375 108.871094 199.597656 C 108.871094 196.40625 107.636719 193.511719 105.621094 191.347656 C 112.0625 182.207031 121.648438 175.328125 133.066406 172.386719 Z M 133.066406 172.386719 " fill-opacity="1" fill-rule="nonzero"/><path fill="#fcd770" d="M 217.742188 211.695312 L 157.257812 211.695312 L 187.5 187.5 Z M 217.742188 211.695312 " fill-opacity="1" fill-rule="nonzero"/><path fill="#ffc729" d="M 217.742188 166.332031 L 217.742188 211.695312 L 187.5 187.5 L 205.621094 163.304688 L 205.644531 163.304688 Z M 217.742188 166.332031 " fill-opacity="1" fill-rule="nonzero"/><path fill="#ffc729" d="M 169.378906 163.304688 L 187.5 187.5 L 157.257812 211.695312 L 157.257812 166.339844 Z M 169.378906 163.304688 " fill-opacity="1" fill-rule="nonzero"/><path fill="#5cd6b3" d="M 241.933594 172.386719 L 241.933594 247.984375 L 133.066406 247.984375 L 133.066406 172.386719 C 133.183594 172.347656 133.304688 172.320312 133.425781 172.289062 L 157.257812 166.339844 L 157.257812 211.695312 L 217.742188 211.695312 L 217.742188 166.332031 L 241.574219 172.289062 C 241.695312 172.320312 241.816406 172.347656 241.933594 172.386719 Z M 241.933594 172.386719 " fill-opacity="1" fill-rule="nonzero"/><path fill="#969faa" d="M 302.417969 223.789062 L 302.417969 235.886719 C 302.417969 239.230469 301.066406 242.253906 298.882812 244.445312 C 296.6875 246.628906 293.664062 247.984375 290.324219 247.984375 C 283.640625 247.984375 278.226562 242.570312 278.226562 235.886719 L 278.226562 211.695312 L 284.273438 211.695312 C 287.617188 211.695312 290.324219 208.988281 290.324219 205.644531 L 290.324219 217.742188 C 290.324219 221.082031 293.027344 223.789062 296.371094 223.789062 Z M 302.417969 223.789062 " fill-opacity="1" fill-rule="nonzero"/><path fill="#969faa" d="M 302.417969 163.304688 L 302.417969 187.5 L 296.371094 187.5 C 293.027344 187.5 290.324219 190.207031 290.324219 193.546875 C 290.324219 190.207031 287.617188 187.5 284.273438 187.5 L 278.226562 187.5 L 278.226562 163.304688 Z M 302.417969 163.304688 " fill-opacity="1" fill-rule="nonzero"/><path fill="#ccd1d9" d="M 96.773438 211.695312 L 96.773438 235.886719 C 96.773438 242.570312 91.359375 247.984375 84.675781 247.984375 C 81.335938 247.984375 78.3125 246.628906 76.117188 244.445312 C 73.933594 242.253906 72.582031 239.230469 72.582031 235.886719 L 72.582031 223.789062 L 78.628906 223.789062 C 81.972656 223.789062 84.675781 221.082031 84.675781 217.742188 L 84.675781 205.644531 C 84.675781 208.988281 87.382812 211.695312 90.726562 211.695312 Z M 96.773438 211.695312 " fill-opacity="1" fill-rule="nonzero"/><path fill="#ccd1d9" d="M 120.96875 127.015625 L 120.96875 138.371094 C 120.96875 145.699219 118.472656 152.554688 114.199219 158.027344 C 109.929688 163.496094 103.882812 167.578125 96.773438 169.355469 L 96.773438 187.5 L 90.726562 187.5 C 87.382812 187.5 84.675781 190.207031 84.675781 193.546875 C 84.675781 190.207031 81.972656 187.5 78.628906 187.5 L 72.582031 187.5 L 72.582031 169.355469 C 58.359375 165.800781 48.386719 153.023438 48.386719 138.371094 L 48.386719 127.015625 L 72.582031 127.015625 L 72.582031 133.066406 C 72.582031 136.40625 73.933594 139.429688 76.117188 141.621094 C 78.3125 143.808594 81.335938 145.160156 84.675781 145.160156 C 91.359375 145.160156 96.773438 139.746094 96.773438 133.066406 L 96.773438 127.015625 Z M 120.96875 127.015625 " fill-opacity="1" fill-rule="nonzero"/><path fill="#f0d0b4" d="M 105.621094 191.347656 C 107.636719 193.511719 108.871094 196.40625 108.871094 199.597656 C 108.871094 202.9375 107.519531 205.960938 105.332031 208.15625 C 103.140625 210.339844 100.117188 211.695312 96.773438 211.695312 L 90.726562 211.695312 C 87.382812 211.695312 84.675781 208.988281 84.675781 205.644531 L 84.675781 193.546875 C 84.675781 190.207031 87.382812 187.5 90.726562 187.5 L 96.773438 187.5 C 100.265625 187.5 103.417969 188.980469 105.621094 191.347656 Z M 105.621094 191.347656 " fill-opacity="1" fill-rule="nonzero"/><path fill="#f0d0b4" d="M 84.675781 205.644531 L 84.675781 217.742188 C 84.675781 221.082031 81.972656 223.789062 78.628906 223.789062 L 72.582031 223.789062 C 65.898438 223.789062 60.484375 218.378906 60.484375 211.695312 L 60.484375 199.597656 C 60.484375 192.914062 65.898438 187.5 72.582031 187.5 L 78.628906 187.5 C 81.972656 187.5 84.675781 190.207031 84.675781 193.546875 Z M 84.675781 205.644531 " fill-opacity="1" fill-rule="nonzero"/><path fill="#f0d0b4" d="M 314.515625 199.597656 L 314.515625 211.695312 C 314.515625 218.378906 309.101562 223.789062 302.417969 223.789062 L 296.371094 223.789062 C 293.027344 223.789062 290.324219 221.082031 290.324219 217.742188 L 290.324219 193.546875 C 290.324219 190.207031 293.027344 187.5 296.371094 187.5 L 302.417969 187.5 C 309.101562 187.5 314.515625 192.914062 314.515625 199.597656 Z M 314.515625 199.597656 " fill-opacity="1" fill-rule="nonzero"/><path fill="#f0d0b4" d="M 290.324219 193.546875 L 290.324219 205.644531 C 290.324219 208.988281 287.617188 211.695312 284.273438 211.695312 L 278.226562 211.695312 C 274.882812 211.695312 271.859375 210.339844 269.667969 208.15625 C 267.480469 205.960938 266.128906 202.9375 266.128906 199.597656 C 266.128906 196.40625 267.363281 193.511719 269.378906 191.347656 C 271.582031 188.980469 274.734375 187.5 278.226562 187.5 L 284.273438 187.5 C 287.617188 187.5 290.324219 190.207031 290.324219 193.546875 Z M 290.324219 193.546875 " fill-opacity="1" fill-rule="nonzero"/><path fill="#f0d0b4" d="M 255.046875 78.167969 C 258.175781 81.433594 260.101562 85.855469 260.101562 90.726562 C 260.101562 95.730469 258.070312 100.265625 254.789062 103.554688 C 251.507812 106.835938 246.972656 108.871094 241.957031 108.871094 L 235.230469 108.871094 L 231.183594 72.582031 L 241.957031 72.582031 C 247.097656 72.582031 251.75 74.726562 255.046875 78.167969 Z M 255.046875 78.167969 " fill-opacity="1" fill-rule="nonzero"/><path fill="#f0d0b4" d="M 235.691406 113.015625 C 235.835938 114.285156 235.910156 115.5625 235.910156 116.839844 C 235.910156 125.074219 233 132.730469 228.078125 138.742188 C 223.15625 144.746094 216.207031 149.09375 208.132812 150.710938 L 205.644531 151.210938 L 205.644531 163.304688 L 205.621094 163.304688 L 187.5 187.5 L 169.378906 163.304688 L 169.378906 151.210938 L 166.882812 150.710938 C 150.742188 147.480469 139.113281 133.304688 139.113281 116.839844 L 139.113281 116.644531 C 139.113281 115.492188 139.171875 114.34375 139.285156 113.203125 L 139.71875 108.871094 L 143.347656 72.582031 L 144.238281 63.636719 C 144.761719 58.414062 149.160156 54.433594 154.40625 54.433594 L 157.257812 54.433594 L 160.488281 47.988281 C 162.210938 44.523438 165.75 42.339844 169.621094 42.339844 C 171.410156 42.339844 173.144531 42.808594 174.65625 43.660156 C 176.160156 44.515625 177.460938 45.757812 178.382812 47.296875 L 181.105469 51.835938 C 188.824219 64.703125 202.734375 72.582031 217.742188 72.582031 C 221.082031 72.582031 224.109375 71.226562 226.300781 69.042969 C 228.484375 66.851562 229.839844 63.824219 229.839844 60.484375 L 231.183594 72.582031 L 235.230469 108.871094 Z M 235.691406 113.015625 " fill-opacity="1" fill-rule="nonzero"/><path fill="#f0d0b4" d="M 143.347656 72.582031 L 139.71875 108.871094 L 133.066406 108.871094 C 128.058594 108.871094 123.523438 106.835938 120.234375 103.554688 C 116.953125 100.265625 114.917969 95.730469 114.917969 90.726562 C 114.917969 85.863281 116.839844 81.441406 119.960938 78.183594 C 123.257812 74.726562 127.914062 72.582031 133.066406 72.582031 Z M 143.347656 72.582031 " fill-opacity="1" fill-rule="nonzero"/><path fill="#000000" d="M 307.425781 241.933594 C 308.097656 240.042969 308.46875 238.007812 308.46875 235.886719 L 308.46875 228.796875 C 315.507812 226.300781 320.566406 219.578125 320.566406 211.695312 L 320.566406 199.597656 C 320.566406 191.710938 315.507812 184.988281 308.46875 182.492188 L 308.46875 157.257812 L 296.371094 157.257812 L 296.371094 127.015625 L 284.273438 127.015625 L 284.273438 157.257812 L 272.175781 157.257812 L 272.175781 182.492188 C 271.632812 182.683594 271.097656 182.90625 270.578125 183.148438 C 263.324219 174.960938 253.738281 169.09375 243.042969 166.421875 L 211.695312 158.585938 L 211.695312 156.09375 C 229.367188 151.441406 241.957031 135.308594 241.957031 116.839844 C 241.957031 116.199219 241.933594 115.558594 241.902344 114.917969 L 241.957031 114.917969 C 255.296875 114.917969 266.148438 104.066406 266.148438 90.726562 C 266.148438 85.746094 264.636719 81.117188 262.046875 77.265625 C 264.722656 70.609375 266.128906 63.421875 266.128906 56.253906 C 266.128906 25.234375 240.894531 0 209.875 0 L 166.96875 0 C 151.964844 0 137.988281 7.132812 129.191406 19.179688 C 116.953125 24.140625 108.871094 36.023438 108.871094 49.367188 L 108.871094 56.253906 C 108.871094 63.425781 110.28125 70.621094 112.957031 77.285156 C 110.378906 81.132812 108.871094 85.753906 108.871094 90.726562 C 108.871094 104.066406 119.722656 114.917969 133.066406 114.917969 L 133.109375 114.917969 C 133.082031 115.492188 133.066406 116.070312 133.066406 116.640625 L 133.066406 116.839844 C 133.066406 135.308594 145.652344 151.441406 163.324219 156.09375 L 163.324219 158.582031 L 131.960938 166.421875 C 121.265625 169.097656 111.679688 174.960938 104.425781 183.148438 C 103.902344 182.90625 103.371094 182.6875 102.824219 182.492188 L 102.824219 173.769531 C 117.28125 168.152344 127.015625 154.210938 127.015625 138.371094 L 127.015625 120.96875 L 90.726562 120.96875 L 90.726562 133.066406 C 90.726562 136.398438 88.011719 139.113281 84.679688 139.113281 C 81.34375 139.113281 78.628906 136.398438 78.628906 133.066406 L 78.628906 120.96875 L 42.339844 120.96875 L 42.339844 138.367188 C 42.339844 154.210938 52.074219 168.152344 66.53125 173.769531 L 66.53125 182.492188 C 59.492188 184.988281 54.433594 191.710938 54.433594 199.597656 L 54.433594 211.695312 C 54.433594 219.578125 59.492188 226.300781 66.53125 228.796875 L 66.53125 235.886719 C 66.53125 238.007812 66.902344 240.042969 67.574219 241.933594 L 0 241.933594 L 0 375 L 375 375 L 375 241.933594 Z M 284.273438 205.644531 L 278.226562 205.644531 C 274.890625 205.644531 272.175781 202.933594 272.175781 199.597656 C 272.175781 196.261719 274.890625 193.546875 278.226562 193.546875 L 284.273438 193.546875 Z M 284.273438 235.886719 L 284.273438 217.742188 C 284.273438 224.410156 289.699219 229.839844 296.371094 229.839844 L 296.371094 235.886719 C 296.371094 239.222656 293.65625 241.933594 290.324219 241.933594 C 286.988281 241.933594 284.273438 239.222656 284.273438 235.886719 Z M 308.46875 211.695312 C 308.46875 215.027344 305.753906 217.742188 302.417969 217.742188 L 296.371094 217.742188 L 296.371094 193.546875 L 302.417969 193.546875 C 305.753906 193.546875 308.46875 196.261719 308.46875 199.597656 Z M 284.273438 169.355469 L 296.371094 169.355469 L 296.371094 181.453125 C 294.167969 181.453125 292.105469 182.054688 290.324219 183.089844 C 288.539062 182.054688 286.480469 181.453125 284.273438 181.453125 Z M 261.929688 191.625 C 260.746094 194.03125 260.082031 196.738281 260.082031 199.597656 C 260.082031 207.480469 265.136719 214.203125 272.175781 216.703125 L 272.175781 235.886719 C 272.175781 238.007812 272.546875 240.042969 273.21875 241.933594 L 247.984375 241.933594 L 247.984375 180.988281 C 253.308594 183.515625 258.066406 187.132812 261.929688 191.625 Z M 139.113281 177.105469 L 151.210938 174.082031 L 151.210938 217.742188 L 223.789062 217.742188 L 223.789062 174.078125 L 235.886719 177.101562 L 235.886719 241.933594 L 139.113281 241.933594 Z M 187.5 195.246094 L 200.5 205.644531 L 174.5 205.644531 Z M 208.058594 170.144531 L 211.695312 171.054688 L 211.695312 199.109375 L 195.855469 186.4375 Z M 241.957031 102.824219 L 240.644531 102.824219 L 237.949219 78.628906 L 241.957031 78.628906 C 248.625 78.628906 254.050781 84.054688 254.050781 90.726562 C 254.050781 97.394531 248.625 102.824219 241.957031 102.824219 Z M 120.96875 90.726562 C 120.96875 84.054688 126.394531 78.628906 133.066406 78.628906 L 136.664062 78.628906 L 134.242188 102.824219 L 133.066406 102.824219 C 126.394531 102.824219 120.96875 97.394531 120.96875 90.726562 Z M 138.222656 63.03125 L 137.871094 66.53125 L 133.066406 66.53125 C 129.398438 66.53125 125.921875 67.355469 122.808594 68.820312 C 121.601562 64.746094 120.96875 60.496094 120.96875 56.253906 L 120.96875 49.367188 C 120.96875 40.535156 126.597656 32.726562 134.976562 29.933594 L 136.945312 29.277344 L 138.097656 27.550781 C 144.546875 17.875 155.339844 12.097656 166.96875 12.097656 L 209.875 12.097656 C 234.222656 12.097656 254.03125 31.90625 254.03125 56.253906 C 254.03125 60.492188 253.402344 64.738281 252.195312 68.8125 C 249.082031 67.351562 245.613281 66.53125 241.957031 66.53125 L 236.597656 66.53125 L 235.875 60.050781 C 235.644531 50.246094 227.601562 42.339844 217.742188 42.339844 L 211.695312 42.339844 L 211.695312 54.433594 L 217.742188 54.433594 C 221.078125 54.433594 223.789062 57.148438 223.789062 60.484375 C 223.789062 63.820312 221.078125 66.53125 217.742188 66.53125 C 204.929688 66.53125 192.878906 59.707031 186.289062 48.722656 L 183.566406 44.1875 C 180.644531 39.316406 175.300781 36.289062 169.621094 36.289062 C 163.417969 36.289062 157.84375 39.734375 155.074219 45.28125 L 153.507812 48.410156 C 145.523438 48.84375 139.027344 54.984375 138.222656 63.03125 Z M 145.160156 116.839844 L 145.160156 116.640625 C 145.160156 115.699219 145.207031 114.746094 145.300781 113.804688 L 150.261719 64.234375 C 150.472656 62.097656 152.257812 60.484375 154.40625 60.484375 L 160.996094 60.484375 L 165.894531 50.691406 C 166.601562 49.269531 168.03125 48.386719 169.621094 48.386719 C 171.074219 48.386719 172.441406 49.160156 173.191406 50.410156 L 175.914062 54.949219 C 184.679688 69.554688 200.707031 78.628906 217.742188 78.628906 C 220.546875 78.628906 223.203125 77.988281 225.578125 76.847656 L 229.683594 113.683594 C 229.800781 114.726562 229.859375 115.785156 229.859375 116.839844 C 229.859375 130.375 220.222656 142.128906 206.949219 144.78125 L 199.597656 146.25 L 199.597656 161.265625 L 187.5 177.410156 L 175.421875 161.292969 L 175.421875 146.25 L 168.070312 144.78125 C 154.796875 142.128906 145.160156 130.375 145.160156 116.839844 Z M 166.941406 170.148438 L 179.144531 186.4375 L 163.304688 199.109375 L 163.304688 171.058594 Z M 127.015625 180.992188 L 127.015625 241.933594 L 101.78125 241.933594 C 102.453125 240.042969 102.824219 238.007812 102.824219 235.886719 L 102.824219 216.703125 C 109.863281 214.207031 114.917969 207.480469 114.917969 199.597656 C 114.917969 196.738281 114.253906 194.03125 113.070312 191.625 C 116.933594 187.136719 121.691406 183.519531 127.015625 180.992188 Z M 96.773438 193.546875 C 100.109375 193.546875 102.824219 196.261719 102.824219 199.597656 C 102.824219 202.933594 100.109375 205.644531 96.773438 205.644531 L 90.726562 205.644531 L 90.726562 193.546875 Z M 54.433594 138.367188 L 54.433594 133.066406 L 66.53125 133.066406 C 66.53125 143.070312 74.671875 151.210938 84.675781 151.210938 C 94.683594 151.210938 102.824219 143.070312 102.824219 133.066406 L 114.917969 133.066406 L 114.917969 138.367188 C 114.917969 150.269531 106.855469 160.601562 95.308594 163.488281 L 90.726562 164.632812 L 90.726562 181.453125 C 88.519531 181.453125 86.460938 182.054688 84.675781 183.089844 C 82.894531 182.054688 80.832031 181.453125 78.628906 181.453125 L 78.628906 164.632812 L 74.046875 163.488281 C 62.5 160.601562 54.433594 150.269531 54.433594 138.367188 Z M 66.53125 199.597656 C 66.53125 196.261719 69.246094 193.546875 72.582031 193.546875 L 78.628906 193.546875 L 78.628906 217.742188 L 72.582031 217.742188 C 69.246094 217.742188 66.53125 215.027344 66.53125 211.695312 Z M 78.628906 235.886719 L 78.628906 229.839844 C 85.300781 229.839844 90.726562 224.410156 90.726562 217.742188 L 90.726562 235.886719 C 90.726562 239.222656 88.011719 241.933594 84.675781 241.933594 C 81.34375 241.933594 78.628906 239.222656 78.628906 235.886719 Z M 362.902344 254.03125 L 362.902344 266.128906 L 12.097656 266.128906 L 12.097656 254.03125 Z M 290.324219 362.902344 L 84.675781 362.902344 L 84.675781 338.710938 L 290.324219 338.710938 Z M 72.582031 326.613281 L 72.582031 362.902344 L 48.386719 362.902344 L 48.386719 314.515625 L 326.613281 314.515625 L 326.613281 362.902344 L 302.417969 362.902344 L 302.417969 326.613281 Z M 326.613281 302.417969 L 314.515625 302.417969 L 314.515625 290.324219 L 302.417969 290.324219 L 302.417969 302.417969 L 290.324219 302.417969 L 290.324219 290.324219 L 278.226562 290.324219 L 278.226562 302.417969 L 120.96875 302.417969 L 120.96875 290.324219 L 108.871094 290.324219 L 108.871094 302.417969 L 96.773438 302.417969 L 96.773438 290.324219 L 84.675781 290.324219 L 84.675781 302.417969 L 72.582031 302.417969 L 72.582031 290.324219 L 60.484375 290.324219 L 60.484375 302.417969 L 48.386719 302.417969 L 48.386719 278.226562 L 326.613281 278.226562 Z M 12.097656 278.226562 L 36.289062 278.226562 L 36.289062 362.902344 L 12.097656 362.902344 Z M 338.710938 362.902344 L 338.710938 278.226562 L 362.902344 278.226562 L 362.902344 362.902344 Z M 338.710938 362.902344 " fill-opacity="1" fill-rule="nonzero"/><path fill="#000000" d="M 175.402344 90.726562 C 175.402344 91.121094 175.363281 91.515625 175.285156 91.90625 C 175.210938 92.296875 175.09375 92.671875 174.941406 93.039062 C 174.789062 93.40625 174.605469 93.757812 174.382812 94.085938 C 174.164062 94.417969 173.914062 94.722656 173.632812 95.003906 C 173.351562 95.285156 173.046875 95.535156 172.714844 95.753906 C 172.386719 95.976562 172.035156 96.160156 171.667969 96.3125 C 171.300781 96.464844 170.925781 96.582031 170.535156 96.65625 C 170.144531 96.734375 169.753906 96.773438 169.355469 96.773438 C 168.957031 96.773438 168.5625 96.734375 168.175781 96.65625 C 167.785156 96.582031 167.40625 96.464844 167.039062 96.3125 C 166.671875 96.160156 166.324219 95.976562 165.996094 95.753906 C 165.664062 95.535156 165.359375 95.285156 165.078125 95.003906 C 164.796875 94.722656 164.546875 94.417969 164.324219 94.085938 C 164.105469 93.757812 163.917969 93.40625 163.765625 93.039062 C 163.613281 92.671875 163.5 92.296875 163.421875 91.90625 C 163.34375 91.515625 163.304688 91.121094 163.304688 90.726562 C 163.304688 90.328125 163.34375 89.933594 163.421875 89.546875 C 163.5 89.15625 163.613281 88.777344 163.765625 88.410156 C 163.917969 88.042969 164.105469 87.695312 164.324219 87.367188 C 164.546875 87.035156 164.796875 86.730469 165.078125 86.449219 C 165.359375 86.167969 165.664062 85.917969 165.996094 85.695312 C 166.324219 85.476562 166.671875 85.289062 167.039062 85.136719 C 167.40625 84.984375 167.785156 84.871094 168.175781 84.792969 C 168.5625 84.714844 168.957031 84.675781 169.355469 84.675781 C 169.753906 84.675781 170.144531 84.714844 170.535156 84.792969 C 170.925781 84.871094 171.300781 84.984375 171.667969 85.136719 C 172.035156 85.289062 172.386719 85.476562 172.714844 85.695312 C 173.046875 85.917969 173.351562 86.167969 173.632812 86.449219 C 173.914062 86.730469 174.164062 87.035156 174.382812 87.367188 C 174.605469 87.695312 174.789062 88.042969 174.941406 88.410156 C 175.09375 88.777344 175.210938 89.15625 175.285156 89.546875 C 175.363281 89.933594 175.402344 90.328125 175.402344 90.726562 Z M 175.402344 90.726562 " fill-opacity="1" fill-rule="nonzero"/><path fill="#000000" d="M 211.695312 90.726562 C 211.695312 91.121094 211.65625 91.515625 211.578125 91.90625 C 211.5 92.296875 211.386719 92.671875 211.234375 93.039062 C 211.082031 93.40625 210.894531 93.757812 210.675781 94.085938 C 210.453125 94.417969 210.203125 94.722656 209.921875 95.003906 C 209.640625 95.285156 209.335938 95.535156 209.003906 95.753906 C 208.675781 95.976562 208.328125 96.160156 207.960938 96.3125 C 207.59375 96.464844 207.214844 96.582031 206.824219 96.65625 C 206.4375 96.734375 206.042969 96.773438 205.644531 96.773438 C 205.246094 96.773438 204.855469 96.734375 204.464844 96.65625 C 204.074219 96.582031 203.699219 96.464844 203.332031 96.3125 C 202.964844 96.160156 202.613281 95.976562 202.285156 95.753906 C 201.953125 95.535156 201.648438 95.285156 201.367188 95.003906 C 201.085938 94.722656 200.835938 94.417969 200.617188 94.085938 C 200.394531 93.757812 200.210938 93.40625 200.058594 93.039062 C 199.90625 92.671875 199.789062 92.296875 199.714844 91.90625 C 199.636719 91.515625 199.597656 91.121094 199.597656 90.726562 C 199.597656 90.328125 199.636719 89.933594 199.714844 89.546875 C 199.789062 89.15625 199.90625 88.777344 200.058594 88.410156 C 200.210938 88.042969 200.394531 87.695312 200.617188 87.367188 C 200.835938 87.035156 201.085938 86.730469 201.367188 86.449219 C 201.648438 86.167969 201.953125 85.917969 202.285156 85.695312 C 202.613281 85.476562 202.964844 85.289062 203.332031 85.136719 C 203.699219 84.984375 204.074219 84.871094 204.464844 84.792969 C 204.855469 84.714844 205.246094 84.675781 205.644531 84.675781 C 206.042969 84.675781 206.4375 84.714844 206.824219 84.792969 C 207.214844 84.871094 207.59375 84.984375 207.960938 85.136719 C 208.328125 85.289062 208.675781 85.476562 209.003906 85.695312 C 209.335938 85.917969 209.640625 86.167969 209.921875 86.449219 C 210.203125 86.730469 210.453125 87.035156 210.675781 87.367188 C 210.894531 87.695312 211.082031 88.042969 211.234375 88.410156 C 211.386719 88.777344 211.5 89.15625 211.578125 89.546875 C 211.65625 89.933594 211.695312 90.328125 211.695312 90.726562 Z M 211.695312 90.726562 " fill-opacity="1" fill-rule="nonzero"/><path fill="#000000" d="M 187.5 133.066406 C 200.839844 133.066406 211.695312 122.210938 211.695312 108.871094 L 199.597656 108.871094 C 199.597656 115.539062 194.167969 120.96875 187.5 120.96875 C 180.832031 120.96875 175.402344 115.539062 175.402344 108.871094 L 163.304688 108.871094 C 163.304688 122.210938 174.160156 133.066406 187.5 133.066406 Z M 187.5 133.066406 " fill-opacity="1" fill-rule="nonzero"/></svg>